<svg width="91" height="267" viewBox="0 0 91 267" fill="none" xmlns="http://www.w3.org/2000/svg">
<path d="M47.9146 206.271L46.9674 209.725C46.6189 210.997 45.304 211.745 44.0295 211.397L23.5779 205.804C22.9696 205.636 22.3689 206.094 22.3689 206.724L22.3689 216L14 216L14 205.248C14 202.651 15.1436 200.135 17.2305 198.584C19.2212 197.106 21.7278 196.633 24.1247 197.289L46.2396 203.338C47.5141 203.685 48.263 204.998 47.9146 206.271Z" fill="#185A35"/>
<path d="M14 214.254L14 210.135L19.4254 208L22 211.127L22 216L14 214.254Z" fill="#2CA662"/>
<path d="M18 212.5C18 212.224 17.5523 212 17 212C16.4477 212 16 212.224 16 212.5C16 212.776 16.4477 213 17 213C17.5523 213 18 212.776 18 212.5Z" fill="#36CA77"/>
<path d="M-2.82298e-07 233.542L-6.73933e-08 238.458C-2.59855e-08 239.406 0.786194 240.13 1.65292 239.981L6 239.236L6 232.764L1.65292 232.02C0.784276 231.871 -3.23706e-07 232.595 -2.82298e-07 233.542Z" fill="#1D6D40"/>
<path d="M-1.54829e-07 234.458L0 238C1.97507 237.147 3.97891 236.361 6 235.628L6 233.723L1.65292 233.019C0.784276 232.878 -1.93985e-07 233.562 -1.54829e-07 234.458Z" fill="#185A35"/>
<path d="M14.0019 257.77L14.9072 263.998C14.9901 264.565 15.297 265.066 15.7545 265.38L17.4086 266.51C18.5319 267.279 20.0123 267.131 20.9773 266.154L33 254L14 257.768L14.0019 257.77Z" fill="#30B369"/>
<path d="M6 232.951L6 239.05L14 258L14 214L6 232.951Z" fill="#39D67E"/>
<path d="M6 233.03L14 226L14 246L6 238.98L6 233.03Z" fill="#268E54"/>
<path d="M6 235C8.63655 234.107 11.3018 233.293 14 232.582L14 214L6 233.082L6 235Z" fill="#32BD70"/>
<path d="M6 235C8.63655 234.122 11.3018 233.322 14 232.622L14 226L6 233.123L6 235Z" fill="#299B5B"/>
<path d="M44 223.004L44 248.996C44 250.854 42.7064 252.45 40.9175 252.794L14 258L14 214L40.9175 219.206C42.7045 219.552 44 221.148 44 223.004Z" fill="#36CA77"/>
<path d="M44 231.669L14 226L14 246L44 240.332L44 231.669Z" fill="#30B369"/>
<path d="M41.5824 228.871C42.3883 228.861 43.1941 228.875 44 228.885L44 223.271C44 221.357 42.7064 219.714 40.9175 219.36L14 214L14 233C22.975 230.387 32.2701 228.981 41.5824 228.871Z" fill="#32BD70"/>
<path d="M31 229.475L14 226L14 233C19.5673 231.336 25.2573 230.153 31 229.475Z" fill="#2CA662"/>
<path d="M44 249L44 223L45.7373 223C45.8821 223 46 223.113 46 223.251L46 248.75C46 248.888 45.8821 249 45.7373 249L44 249Z" fill="#39D67E"/>
<path d="M46 228L46 223.909C46 223.408 45.5408 223 44.9721 223L44 223L44 227.965C44.666 227.973 45.334 227.982 46 227.998L46 228Z" fill="#2CA662"/>
<path d="M46 226L46 247L51 247L51 226L46 226Z" fill="#268E54"/>
<path d="M51 228L51 225L46 225L46 227.809C47.6681 227.845 49.3361 227.911 51 227.998L51 228Z" fill="#299B5B"/>
<path d="M51 249.257L51 222.741C51 220.845 52.3156 219.217 54.135 218.866L87.7099 214.029C89.448 213.779 91 215.161 91 216.96L91 255.04C91 256.839 89.448 258.221 87.7099 257.971L54.1351 253.135C52.3176 252.781 51 251.153 51 249.259L51 249.257Z" fill="#36CA77"/>
<path d="M51 240.482L91 246L91 226L51 231.518L51 240.482Z" fill="#30B369"/>
<path d="M54.1352 218.969C52.3176 219.329 51 220.991 51 222.925L51 228.887C64.8429 229.92 78.496 233.706 91 240L91 217.021C91 215.185 89.4479 213.775 87.7098 214.03L54.1333 218.967L54.1352 218.969Z" fill="#32BD70"/>
<path d="M61 230.306C71.3823 232.076 81.518 235.341 91 240L91 226L61 230.306Z" fill="#2CA662"/>
<path d="M41 249.631C41 249.928 40.797 250.19 40.506 250.246L36.7177 250.989C36.3891 251.054 36.0709 250.829 36.0102 250.489C35.9495 250.146 36.1651 249.819 36.4937 249.754L40.2821 249.011C40.6107 248.946 40.9288 249.172 40.9895 249.512C40.9958 249.551 41 249.59 41 249.629L41 249.631Z" fill="#CDFFD8"/>
<path d="M34 251.584C34 251.859 33.8071 252.102 33.5306 252.154L18.6825 254.99C18.3703 255.05 18.0679 254.841 18.0103 254.526C17.9506 254.209 18.1574 253.906 18.4697 253.846L33.3178 251.01C33.63 250.95 33.9324 251.159 33.9901 251.474C33.996 251.51 34 251.546 34 251.582L34 251.584Z" fill="#CDFFD8"/>
<path d="M82.1052 13.602C82.1052 17.6677 80.9836 21.2567 78.7405 24.3691L73.9037 21.3829C75.6422 18.7472 76.5114 16.1396 76.5114 13.56C76.5114 12.2141 76.0768 11.5411 75.2076 11.5411C74.787 11.5411 74.4505 11.8215 74.1982 12.3823C73.9458 12.9151 73.6374 13.8544 73.2729 15.2003C72.5438 17.864 71.6746 19.8828 70.6652 21.2567C69.6278 22.6026 68.0435 23.2756 65.9126 23.2756C63.5573 23.2756 61.7207 22.4344 60.4029 20.752C59.057 19.0416 58.384 16.8405 58.384 14.1488C58.384 10.6439 59.2673 7.51752 61.0337 4.76967L66.0808 7.50349C64.6788 10.027 63.9779 12.2702 63.9779 14.2329C63.9779 15.4666 64.3704 16.0835 65.1555 16.0835C65.5481 16.0835 65.8845 15.8171 66.1649 15.2844C66.4173 14.7516 66.7537 13.7843 67.1743 12.3823C67.5388 11.0925 67.9034 10.027 68.2679 9.18585C68.6043 8.34467 69.053 7.51751 69.6137 6.70437C70.1745 5.89123 70.8615 5.28839 71.6746 4.89584C72.4597 4.50329 73.399 4.30702 74.4926 4.30702C76.932 4.30702 78.8106 5.1482 80.1284 6.83055C81.4463 8.51291 82.1052 10.7701 82.1052 13.602Z" fill="#185A35"/>
<path d="M82.0631 32.9772C82.0631 38.0803 79.5536 40.6319 74.5346 40.6319L65.2817 40.6319L65.2817 43.3237L58.8467 43.3237L58.8467 40.6319L53.0846 40.6319L53.0846 32.6407L58.8467 32.6407L58.8467 27.3413L65.2817 27.3413L65.2817 32.6407L72.9784 32.6407C74.4925 32.6407 75.2496 31.9117 75.2496 30.4537C75.2496 29.5003 74.9972 28.4909 74.4925 27.4254L80.7593 27.4254C81.6285 28.9676 82.0631 30.8182 82.0631 32.9772Z" fill="#185A35"/>
<path d="M81.6005 61.2715L58.8467 61.2715L58.8467 53.2804L63.4311 53.2804C59.9823 51.8223 58.328 49.425 58.4682 46.0883L66.8799 46.0883L66.8799 46.7613C66.8799 51.1073 69.4315 53.2804 74.5346 53.2804L81.6005 53.2804L81.6005 61.2715Z" fill="#185A35"/>
<path d="M82.1473 76.7269C82.1473 80.316 81.0537 83.2461 78.8667 85.5172C76.6796 87.7884 73.8056 88.924 70.2446 88.924C66.8799 88.924 64.062 87.8445 61.7908 85.6855C59.4916 83.5265 58.342 80.7786 58.342 77.4419C58.342 73.7127 59.5196 70.8668 61.8749 68.904C64.2302 66.9413 67.2024 65.9599 70.7914 65.9599C71.5204 65.9599 72.0672 65.9739 72.4317 66.002L72.4317 81.2272C74.9272 80.5823 76.1749 78.942 76.1749 76.3064C76.1749 74.5119 75.4038 72.8295 73.8617 71.2593L77.5208 66.8431C80.6051 69.2825 82.1473 72.5771 82.1473 76.7269ZM68.352 81.3534L68.352 73.4464C67.0902 73.5866 66.0948 74.0071 65.3658 74.7081C64.6087 75.4091 64.2302 76.3064 64.2302 77.3999C64.2302 78.4373 64.6087 79.3066 65.3658 80.0075C66.0948 80.6805 67.0902 81.1291 68.352 81.3534Z" fill="#185A35"/>
<path d="M88.3299 117.683L58.8467 117.683L58.8467 109.692L61.8749 109.692C59.5196 107.757 58.342 105.458 58.342 102.794C58.342 99.9903 59.4355 97.607 61.6226 95.6442C63.7816 93.6815 66.6416 92.7001 70.2026 92.7001C73.7916 92.7001 76.6796 93.6815 78.8667 95.6442C81.0257 97.5789 82.1052 99.9482 82.1052 102.752C82.1052 105.5 81.0117 107.813 78.8246 109.692L88.3299 109.692L88.3299 117.683ZM75.4179 105.234C75.4179 103.916 74.9272 102.808 73.9458 101.911C72.9644 101.014 71.7027 100.565 70.1605 100.565C68.6744 100.565 67.4547 101.014 66.5014 101.911C65.52 102.808 65.0293 103.916 65.0293 105.234C65.0293 106.523 65.52 107.617 66.5014 108.514C67.4828 109.411 68.7305 109.86 70.2446 109.86C71.7307 109.86 72.9644 109.411 73.9458 108.514C74.9272 107.617 75.4179 106.523 75.4179 105.234Z" fill="#185A35"/>
<path d="M81.6005 145.52L70.1184 137.866L58.8467 145.394L58.8467 136.772L64.4405 133.407L58.8467 130.043L58.8467 121.589L70.0764 129.075L81.6005 121.421L81.6005 130.001L75.7543 133.534L81.6005 137.109L81.6005 145.52Z" fill="#185A35"/>
<path d="M81.6005 172.564L52.1593 172.564L52.1593 148.885L59.099 148.885L59.099 164.489L63.5572 164.489L63.5572 150.357L69.9922 150.357L69.9922 164.489L74.6608 164.489L74.6608 148.674L81.6005 148.674L81.6005 172.564Z" fill="#185A35"/>
<path d="M40.0464 14.5943C40.0464 16.8375 39.4295 18.674 38.1958 20.104C36.934 21.534 35.1816 22.249 32.9384 22.249C30.6392 22.249 28.8728 21.4499 27.639 19.8517C26.4053 18.2534 25.7884 16.0804 25.7884 13.3326C25.7884 11.3418 26.0829 9.51922 26.6717 7.8649L26.2932 7.8649C23.8257 7.8649 22.592 9.37903 22.592 12.4073C22.592 14.4541 23.0126 16.543 23.8537 18.674L18.2179 20.3143C17.0402 17.4543 16.4514 14.384 16.4514 11.1034C16.4514 7.17795 17.3767 4.28991 19.2273 2.43932C20.8255 0.813045 23.2369 -9.94787e-05 26.4614 -9.96197e-05L39.5417 -0.000100191L39.5417 7.90697L37.1864 7.90697C39.0931 9.61736 40.0464 11.8465 40.0464 14.5943ZM35.0414 11.7343C35.0414 10.5567 34.7049 9.60333 34.032 8.87431C33.331 8.14529 32.4197 7.78079 31.2982 7.78079L30.2467 7.78079C29.8541 8.70608 29.6579 9.74353 29.6579 10.8931C29.6579 12.0427 29.9242 12.94 30.457 13.5849C30.9617 14.2298 31.6627 14.5523 32.5599 14.5523C33.317 14.5523 33.9198 14.2999 34.3684 13.7952C34.8171 13.2625 35.0414 12.5755 35.0414 11.7343Z" fill="#185A35"/>
<path d="M40.1305 38.4617C40.1305 42.7237 38.6865 46.3267 35.7985 49.2708C32.8824 52.1869 29.2233 53.645 24.8211 53.645C20.5031 53.645 16.872 52.1729 13.9279 49.2288C10.9837 46.2566 9.51169 42.5554 9.51169 38.1253C9.51169 32.8819 11.5866 28.7602 15.7364 25.76L20.3629 31.7323C18.0917 33.5549 16.9561 35.7139 16.9561 38.2094C16.9561 40.2562 17.7132 41.9386 19.2273 43.2564C20.7414 44.5743 22.606 45.2332 24.8211 45.2332C27.0642 45.2332 28.9429 44.5743 30.457 43.2564C31.9431 41.9386 32.6861 40.2562 32.6861 38.2094C32.6861 36.7794 32.3917 35.5597 31.8029 34.5502C31.186 33.5408 30.2888 32.5454 29.1111 31.5641L33.4852 25.4235C35.5882 26.9656 37.2285 28.7601 38.4061 30.807C39.5557 32.8539 40.1305 35.4054 40.1305 38.4617Z" fill="#185A35"/>
<path d="M40.0884 68.5534C40.0884 72.1424 38.9949 75.0725 36.8079 77.3437C34.6208 79.6148 31.7468 80.7504 28.1858 80.7504C24.8211 80.7504 22.0031 79.6709 19.732 77.5119C17.4328 75.3529 16.2831 72.605 16.2831 69.2684C16.2831 65.5392 17.4608 62.6932 19.8161 60.7304C22.1714 58.7677 25.1435 57.7863 28.7326 57.7863C29.4616 57.7863 30.0083 57.8003 30.3728 57.8284L30.3729 73.0537C32.8683 72.4088 34.1161 70.7685 34.1161 68.1328C34.1161 66.3383 33.345 64.6559 31.8028 63.0857L35.462 58.6695C38.5463 61.109 40.0884 64.4036 40.0884 68.5534ZM26.2931 73.1798L26.2931 65.2728C25.0314 65.413 24.036 65.8336 23.307 66.5345C22.5499 67.2355 22.1714 68.1328 22.1714 69.2263C22.1714 70.2638 22.5499 71.133 23.307 71.834C24.036 72.5069 25.0314 72.9555 26.2931 73.1798Z" fill="#185A35"/>
<path d="M39.5417 110.443L10.1005 110.443L10.1005 96.5218C10.1005 92.2318 11.152 89.0353 13.2549 86.9324C14.9933 85.1939 17.3206 84.3247 20.2367 84.3247C24.5547 84.3247 27.5689 86.3435 29.2793 90.3812L39.5417 83.3573L39.5417 92.7785L30.6252 98.7088L30.6252 102.284L39.5417 102.284L39.5417 110.443ZM24.2323 102.284L24.2323 96.9003C24.2323 95.5264 23.9238 94.4609 23.307 93.7038C22.6621 92.9187 21.7788 92.5262 20.6573 92.5262C19.5077 92.5262 18.6384 92.9187 18.0496 93.7038C17.4608 94.4609 17.1664 95.5404 17.1664 96.9424L17.1664 102.284L24.2323 102.284Z" fill="#185A35"/>
<path d="M40.0884 128.161C40.0884 131.75 38.9388 134.736 36.6396 137.119C34.3124 139.503 31.4944 140.694 28.1858 140.694C24.9052 140.694 22.1013 139.503 19.774 137.119C17.4468 134.708 16.2831 131.694 16.2831 128.077C16.2831 124.488 17.4468 121.501 19.774 119.118C22.0732 116.735 24.8772 115.543 28.1858 115.543C31.4664 115.543 34.2703 116.749 36.5976 119.16C38.9248 121.543 40.0884 124.544 40.0884 128.161ZM33.317 128.077C33.317 126.647 32.8263 125.497 31.8449 124.628C30.8635 123.759 29.6438 123.324 28.1858 123.324C26.7838 123.324 25.5781 123.787 24.5687 124.712C23.5593 125.637 23.0546 126.787 23.0546 128.161C23.0546 129.591 23.5453 130.74 24.5267 131.61C25.508 132.479 26.7278 132.913 28.1858 132.913C29.5878 132.913 30.7934 132.451 31.8029 131.525C32.8123 130.6 33.317 129.45 33.317 128.077Z" fill="#185A35"/>
<path d="M39.5417 172.564L10.1005 172.564L10.1005 164.404L21.1199 164.404L21.1199 153.932L10.1005 153.932L10.1005 145.772L39.5417 145.772L39.5417 153.932L28.354 153.932L28.354 164.404L39.5417 164.404L39.5417 172.564Z" fill="#185A35"/>
</svg>
