<svg width="228" height="46" viewBox="0 0 228 46" fill="none" xmlns="http://www.w3.org/2000/svg">
<path d="M45 45V0L0 0V45H45Z" fill="#092327"/>
<path d="M44 1H1V44H44V1Z" fill="#173236"/>
<path d="M20.7395 14.4291C21.2044 14.0608 21.6148 13.8471 21.909 14.0166C22.2032 14.186 21.7601 13.3941 20.9247 13.0921C20.79 13.0348 20.6458 13.0036 20.4998 13C19.7734 13 18.4949 14.3923 18.0881 14.86C15.4876 17.7587 12.0008 23.1031 12.0008 24.4365C11.9969 24.5084 12.0074 24.5804 12.0316 24.6482C12.0558 24.7159 12.0934 24.778 12.1419 24.8307C12.1904 24.8833 12.2489 24.9254 12.314 24.9546C12.379 24.9837 12.4491 24.9991 12.5202 25C12.8834 25 13.726 24.4365 13.8023 24.1713C13.4688 24.3584 13.0938 24.456 12.7127 24.4549C12.7236 23.6483 16.6571 18.6832 19.3521 15.8361C19.7879 15.3409 20.2512 14.8711 20.7395 14.4291Z" fill="#092327"/>
<path d="M39.5442 32.1174C38.5462 32.8999 37.3171 33.33 36.0487 33.3407C32.465 33.3407 29.1494 29.9211 27.6715 27.76C27.4761 27.4811 27.3005 27.189 27.1459 26.8857C27.4986 26.9209 27.869 26.9421 28.2464 26.9421C33.4915 26.9421 40.1933 23.0324 39.9957 19.6445C39.7982 16.3693 35.6889 15.4845 33.2551 15.4845C31.5284 15.4401 29.803 15.613 28.1194 15.9992C27.9783 12.8721 24.9449 10.9825 20.2924 11.0001C15.3543 11.0213 9.87642 13.5843 9.87642 16.3094C9.87096 16.7196 10.0229 17.1163 10.3011 17.4179C10.5793 17.7195 10.9625 17.9032 11.372 17.9311C11.189 17.8173 11.0392 17.6574 10.9376 17.4674C10.8361 17.2774 10.7864 17.0641 10.7935 16.8488C10.7935 15.0861 16.2925 11.5184 21.6081 11.5924C24.2571 11.6276 27.0507 12.925 27.0507 15.2306C27.0479 15.6137 26.9981 15.9949 26.9025 16.3658C26.7501 16.9754 26.5126 17.5604 26.1971 18.1039C25.2615 19.6269 24.0554 20.9662 22.6381 22.0559C22.2853 22.3097 21.9326 22.5706 21.6257 22.835C17.3542 25.9444 11.379 28.2959 6.77596 28.2959C6.05287 28.2959 4.81127 28.1689 4.81127 27.3934C4.81127 25.5214 8.61366 22.8561 11.5342 21.5059C11.6048 21.4495 11.6401 21.4319 11.6401 21.4142C7.80239 22.7645 4 25.5742 4 27.5731C4 29.1948 6.09167 29.4663 7.17454 29.4663C11.2238 29.4663 15.6894 28.1407 19.4565 26.1418C20.2783 25.7047 21.0684 25.2358 21.8127 24.7317C23.0174 23.942 24.1399 23.0338 25.1636 22.0206C25.8247 21.3631 26.4157 20.6389 26.9272 19.8595C27.4555 19.0663 27.8311 18.1816 28.0348 17.2507C29.9196 16.46 31.9379 16.0353 33.9817 15.9992C36.0522 15.9992 38.7929 16.9369 38.9199 18.9535C39.0998 22.1969 31.2763 25.9232 27.1706 26.1242C29.0965 23.6917 33.9641 17.91 35.0787 18.4317C34.8785 18.2237 34.6379 18.0589 34.3716 17.9473C34.1053 17.8358 33.819 17.7799 33.5303 17.783C31.9077 17.783 28.3946 21.9607 26.3029 24.7352C26.2544 24.6221 26.2189 24.5038 26.1971 24.3826C26.1684 24.2673 26.163 24.1475 26.1812 24.03C26.1994 23.9126 26.2407 23.8 26.3029 23.6987C26.5921 23.3462 25.2236 23.8785 24.9872 25.0489C24.9898 25.3606 25.0584 25.6681 25.1883 25.9515L25.2588 26.1489C23.7985 28.2359 22.0314 31.155 22.0314 32.3995C22.0314 32.7026 22.1054 33.1539 22.6451 33.1539C23.2765 33.1539 23.9961 32.6321 24.4088 32.2197C23.9913 32.476 23.5089 32.607 23.019 32.5969C22.8568 32.5969 22.8391 32.5228 22.8391 32.4171C22.8391 31.9835 24.317 29.84 25.9925 27.626C26.1371 27.8587 26.2817 28.0738 26.3911 28.2183C27.9748 30.5803 31.5091 34 35.2586 34C36.9066 33.9811 38.4826 33.3224 39.6536 32.1633C39.7629 32.0645 39.7277 31.9729 39.5442 32.1174Z" fill="#092327"/>
<path d="M60 0C66.0355 0 69 2.86671 69 7.4048C69 11.8406 66.1349 15 60.5929 15H56.0592V2.71862C56.0592 1.35402 55.832 0.444288 54.458 0.444288H54V0H60ZM58.1894 13.921C58.9554 14.1011 59.7384 14.2004 60.5254 14.2172C63.916 14.2172 66.5041 11.622 66.5041 7.51763C66.5041 3.49083 63.9834 0.818054 60.4686 0.818054C59.6922 0.82487 58.9208 0.943646 58.1787 1.17066L58.1894 13.921Z" fill="#092327"/>
<path d="M83 14.8844C82.716 14.9644 82.4226 15.0033 82.1282 14.9998C81.141 14.9998 79.3702 14.6501 78.3967 12.0663L77.8505 10.6012H71.7342L69.9804 14.8844H69L75.1231 0H75.7846L80.5949 12.0663C81.2733 13.7585 81.7991 14.3215 83 14.4334V14.8844ZM72.0531 9.68867H77.4163L74.7906 3.14681L72.0531 9.68867Z" fill="#092327"/>
<path d="M88.22 16C85.736 16 83 14.9312 83 13.1962V10.7379H83.4116C83.9155 13.8161 85.4485 15.0808 88.0248 15.0808C89.604 15.0808 91.0234 14.2543 91.0234 12.7366C91.0234 11.4041 90.1753 10.5527 88.5039 9.5658L85.6899 7.88777C83.7275 6.73703 83.0177 5.62191 83.0177 3.91895C83.0177 1.55333 84.792 0 87.4571 0C89.7246 0 92.4038 1.03318 92.4038 2.75751V5.21576H91.9886C91.4883 2.13761 90.0227 0.919172 87.4571 0.919172C86.1086 0.919172 84.8027 1.8134 84.8027 3.23848C84.8027 4.57448 85.6721 5.26208 87.3435 6.24894L90.1611 7.92696C92.1057 9.07771 93 10.0183 93 11.7212C92.9787 14.3077 91.1796 16 88.22 16Z" fill="#092327"/>
<path d="M106.955 12.2727C106.955 13.6364 107.181 14.5455 108.549 14.5455H109V15H106.955C105.361 15 104.906 14.5455 104.906 12.2727V7.72727H98.0832V15H96.0381V2.7167C96.0381 1.35307 95.8089 0.443975 94.4443 0.443975H94V0H96.0487C97.6389 0 98.0938 0.454545 98.0938 2.72727V6.81818H104.917V0H106.965L106.955 12.2727Z" fill="#092327"/>
<path d="M111.012 0C112.58 0 113.028 0.447677 113.028 2.68606V7.05179L117.721 2.34944C118.842 1.23198 119.737 0 121.537 0H122.654V0.558729C121.426 0.558729 120.642 0.905766 119.41 2.12733L115.036 6.49306L120.184 11.8652C121.391 13.1423 122.869 14.2146 124 14.35V14.7734C123.533 14.9338 123.04 15.0101 122.546 14.9989C121.315 14.9989 119.861 14.5512 117.735 12.3129L113.024 7.38841V14.7734H111.012V2.67565C111.012 1.33262 110.79 0.437266 109.447 0.437266H109V0H111.012Z" fill="#092327"/>
<path d="M130 0C134.287 0 137 3.51894 137 8.00177C137 12.4846 134.291 16 130 16C125.709 16 123 12.4811 123 8.00177C123 3.52248 125.709 0 130 0ZM130 0.914286C127.063 0.914286 125.257 3.65714 125.257 8.00177C125.257 12.3464 127.063 15.0893 130 15.0893C132.936 15.0893 134.739 12.3464 134.739 8.00177C134.739 3.65714 132.933 0.914286 130 0.914286Z" fill="#092327"/>
<path d="M145.799 11.6902C148.9 4.89629 147.163 8.64714 150.891 0.222248H152L145.347 15H144.931L139.548 2.80374C138.83 1.14885 138.274 0.598359 137 0.485525V0.0444495C137.115 0.0444495 137.578 0 137.786 0C138.92 0 140.725 0.287212 141.816 2.80374L145.799 11.6902Z" fill="#092327"/>
<path d="M163 14.8844C162.715 14.9642 162.421 15.003 162.125 14.9998C161.139 14.9998 159.369 14.6502 158.395 12.0663L157.85 10.6013H151.736L149.983 14.8844H149L155.124 0H155.781L160.593 12.0663C161.271 13.7586 161.796 14.3215 163 14.4334V14.8844ZM152.062 9.68869H157.422L154.798 3.14681L152.062 9.68869Z" fill="#092327"/>
<path d="M62.8838 34.7111H60.3915V45.6465H57.1905V26.2863C57.1905 24.1379 56.8414 22.7032 54.6981 22.7032H54V22H63.2538C66.2803 22 72.1516 22.7032 72.1516 28.4522C72.1516 32.5768 68.9506 34.0114 66.4583 34.5493L70.1933 40.8223C72.0085 43.8708 73.2197 44.7639 75 44.9433V45.6465C74.316 45.8974 73.5914 46.0167 72.8637 45.9981C70.3713 45.9981 68.7691 44.7428 66.4583 40.8012L62.8838 34.7111ZM68.5771 28.4382C68.5771 24.6723 65.0201 23.2412 63.0618 23.2412C62.1615 23.2581 61.2658 23.376 60.3915 23.5928V33.0866C61.2658 33.3034 62.1615 33.4214 63.0618 33.4382C65.0201 33.4593 68.5771 32.0247 68.5771 28.4382Z" fill="#092327"/>
<path d="M89.8603 22C92.3051 22 92.8256 23.3946 92.8256 24.7891V27.3937H92.1407C92.1407 24.6045 90.5725 23.3877 87.7785 23.3877H81.2694V32.4558H90.6992V33.8504H81.2694V43.6089H87.3813C90.5212 43.6089 92.2674 42.5629 93.3152 39.7738L94 39.9481L92.7776 43.2602C92.3941 44.2856 91.5552 45 90.1617 45H78.1296V26.1803C78.1296 24.0918 77.7872 22.6973 75.6848 22.6973H75V22.0137L89.8603 22Z" fill="#092327"/>
<path d="M103.844 46C100.096 46 96 44.3103 96 41.6117V37.7631H96.6208C97.3765 42.5818 99.6808 44.5607 103.534 44.5607C105.895 44.5607 108.041 43.2661 108.041 40.8921C108.041 38.8073 106.769 37.4738 104.256 35.9287L100.025 33.3007C97.0999 31.5051 96 29.7731 96 27.1168C96 23.4093 98.6484 21 102.673 21C106.081 21 110.096 22.6192 110.096 25.3178V29.1664H109.485C108.729 24.3442 106.526 22.4393 102.673 22.4393C100.649 22.4393 98.6822 23.8503 98.6822 26.0727C98.6822 28.1575 99.9912 29.2475 102.501 30.7855L106.732 33.41C109.657 35.2091 111 36.6836 111 39.3434C111 43.3719 108.281 46 103.844 46Z" fill="#092327"/>
<path d="M115 22H118.008V40.8309C118.008 42.924 118.336 44.316 120.345 44.316H121V45H118.008C115.668 45 115 44.316 115 40.8172V22Z" fill="#092327"/>
<path d="M131.191 22C140.468 22 145 26.3922 145 33.3616C145 40.1566 140.61 45 132.104 45H125.146V26.1803C125.146 24.0918 124.802 22.6973 122.689 22.6973H122V22.0137L131.191 22ZM128.417 43.3286C129.592 43.6043 130.793 43.7555 132.001 43.7798C137.201 43.7798 141.171 39.808 141.171 33.5017C141.171 27.3321 137.305 23.2202 131.929 23.2202C130.737 23.2368 129.554 23.4245 128.417 23.7774V43.3286Z" fill="#092327"/>
<path d="M159.857 22C162.302 22 162.826 23.3946 162.826 24.7891V27.3937H162.141C162.141 24.6045 160.569 23.3877 157.779 23.3877H151.273V32.4558H160.699V33.8504H151.269V43.6089H157.381C160.521 43.6089 162.267 42.5629 163.315 39.7738L164 39.9481L162.778 43.2602C162.394 44.2856 161.555 45 160.158 45H148.13V26.1803C148.13 24.0918 147.787 22.6973 145.685 22.6973H145V22.0137L159.857 22Z" fill="#092327"/>
<path d="M168.553 26.2969C168.553 24.1502 167.855 22.7167 165.349 22.7167H165V22.0141H167.314C169.628 22.0141 171.048 22.8362 172.116 24.1642L184.576 39.7321V22H186V46H185.302L169.977 26.8415V45.6487H168.553V26.2969Z" fill="#092327"/>
<path d="M208.577 29.2142C207.678 24.5729 205.163 22.4292 201.214 22.4292C196.543 22.4292 192.59 25.284 192.59 33.859C192.59 39.2149 195.105 44.5708 201.214 44.5708C204.804 44.5708 207.319 42.7879 209.295 39.5722L210 40.1082C207.664 44.5708 204.43 46 200.136 46C193.309 46 189 40.6441 189 33.859C189 26.7132 194.027 21 200.136 21C204.085 21 207.104 22.2856 208.397 23.8583C209.295 24.9092 209.295 27.0705 209.295 29.2142H208.577Z" fill="#092327"/>
<path d="M223.873 22C226.318 22 226.839 23.3946 226.839 24.7891V27.3937H226.154C226.154 24.6045 224.585 23.3877 221.79 23.3877H215.282V32.4558H224.712V33.8504H215.279V43.6089H221.379C224.52 43.6089 226.267 42.5629 227.315 39.7738L228 39.9481L226.777 43.2602C226.394 44.2856 225.554 45 224.16 45H212.131V26.1803C212.131 24.0918 211.788 22.6973 209.685 22.6973H209V22.0137L223.873 22Z" fill="#092327"/>
<path d="M220 0L221.89 6.11296H228L223.056 9.89059L224.944 16L220 12.2224L215.056 16L216.947 9.89059L212 6.11296H218.113L220 0Z" fill="#092327"/>
<path d="M199 0L200.89 6.11296H207L202.056 9.89059L203.944 16L199 12.2224L194.056 16L195.944 9.89059L191 6.11296H197.113L199 0Z" fill="#092327"/>
<path d="M178 0L179.89 6.11296H186L181.056 9.89059L182.944 16L178 12.2224L173.056 16L174.944 9.89059L170 6.11296H176.113L178 0Z" fill="#092327"/>
</svg>
