<svg width="368" height="509" viewBox="0 0 368 509" fill="none" xmlns="http://www.w3.org/2000/svg">
<path d="M361.723 285.554L340.921 279.833C333.258 277.728 328.755 269.786 330.851 262.089L364.536 138.563C365.543 134.888 362.788 131.26 358.991 131.26H303.127V80.7126H367.881C383.52 80.7126 398.673 87.6198 408.014 100.225C416.916 112.248 419.764 127.388 415.816 141.865L379.388 275.438C377.292 283.135 369.386 287.659 361.723 285.554Z" fill="#185A35"/>
<path d="M315.778 80.7126H338.399L350.124 115.356L332.951 131.797H306.192L315.778 80.7126Z" fill="#2CA662"/>
<path d="M328.669 112.385C331.49 112.385 333.777 110.098 333.777 107.276C333.777 104.455 331.49 102.168 328.669 102.168C325.847 102.168 323.56 104.455 323.56 107.276C323.56 110.098 325.847 112.385 328.669 112.385Z" fill="#36CA77"/>
<path d="M198.425 0H170.798C165.475 0 161.407 4.68555 162.244 9.85109L166.428 35.7588H202.795L206.979 9.85109C207.816 4.67412 203.748 0 198.425 0Z" fill="#1D6D40"/>
<path d="M198.449 0H177.46C182.513 11.771 187.172 23.7135 191.518 35.7588H202.807L206.979 9.85109C207.814 4.67412 203.757 0 198.449 0Z" fill="#185A35"/>
<path d="M54.3911 80.7243L18.167 86.176C14.8739 86.6758 11.9571 88.5241 10.1341 91.279L3.5597 101.241C-0.909508 108.006 -0.0509466 116.922 5.62965 122.734L76.3137 195.141L54.4028 80.7126L54.3911 80.7243Z" fill="#30B369"/>
<path d="M202.739 35.7588H166.485L53.8368 81.7343H315.387L202.739 35.7588Z" fill="#39D67E"/>
<path d="M202.819 35.7588L245.912 81.7343H123.311L166.346 35.7588H202.819Z" fill="#268E54"/>
<path d="M191.763 35.7588C197.023 50.9109 201.81 66.2282 205.998 81.7343H315.386L203.056 35.7588H191.763Z" fill="#32BD70"/>
<path d="M191.763 35.7588C197.049 50.9109 201.86 66.2282 206.068 81.7343H245.912L203.054 35.7588H191.763Z" fill="#299B5B"/>
<path d="M261.862 262.572H107.361C96.3141 262.572 86.8284 254.73 84.7809 243.886L53.8368 80.7126H315.387L284.443 243.886C282.383 254.718 272.898 262.572 261.862 262.572Z" fill="#36CA77"/>
<path d="M211.165 262.572L245.912 80.7126H123.311L158.058 262.572H211.165Z" fill="#30B369"/>
<path d="M230.049 247.916C230.107 252.801 230.026 257.686 229.967 262.572H262.571C273.683 262.572 283.224 254.73 285.283 243.886L316.409 80.7126H206.068C221.241 135.119 229.409 191.466 230.049 247.916Z" fill="#32BD70"/>
<path d="M226.135 184.924L245.913 80.7126H206.068C215.539 114.841 222.275 149.721 226.135 184.924Z" fill="#2CA662"/>
<path d="M109.007 263.593H261.237V273.356C261.237 274.169 260.579 274.832 259.771 274.832H110.474C109.665 274.832 109.007 274.169 109.007 273.356V263.593Z" fill="#39D67E"/>
<path d="M230.587 274.832H256.504C259.677 274.832 262.259 272.252 262.259 269.055V263.593H230.807C230.761 267.335 230.703 271.089 230.599 274.832H230.587Z" fill="#2CA662"/>
<path d="M251.021 274.832H120.246V303.439H251.021V274.832Z" fill="#268E54"/>
<path d="M228.544 303.439H251.021V274.832H229.976C229.706 284.375 229.213 293.919 228.555 303.439H228.544Z" fill="#299B5B"/>
<path d="M107.039 303.439H262.196C273.29 303.439 282.816 311.268 284.873 322.096L313.172 521.91C314.635 532.253 306.55 541.49 296.025 541.49H73.1986C62.6736 541.49 54.5881 532.253 56.0519 521.91L84.351 322.096C86.4188 311.28 95.9448 303.439 107.027 303.439H107.039Z" fill="#36CA77"/>
<path d="M157.314 303.439L124.333 541.49H243.869L210.888 303.439H157.314Z" fill="#30B369"/>
<path d="M285.033 322.097C282.978 311.28 273.509 303.439 262.494 303.439H228.523C222.634 385.822 201.064 467.075 165.2 541.49H296.13C306.591 541.49 314.628 532.253 313.173 521.909L285.045 322.086L285.033 322.097Z" fill="#32BD70"/>
<path d="M221.089 363.718C210.884 425.24 192.062 485.302 165.2 541.49H245.913L221.089 363.718Z" fill="#2CA662"/>
<path d="M101 243.16C99.6354 243.16 98.4304 242.039 98.1715 240.434L94.7556 219.534C94.4568 217.721 95.4925 215.966 97.0561 215.631C98.6296 215.296 100.133 216.485 100.432 218.298L103.848 239.199C104.147 241.012 103.111 242.767 101.547 243.102C101.368 243.136 101.189 243.16 101.01 243.16H101Z" fill="#CDFFD8"/>
<path d="M95.2088 205.357C93.5236 205.357 92.0351 204.224 91.7153 202.6L74.3336 115.373C73.9645 113.538 75.2439 111.762 77.1752 111.423C79.1188 111.073 80.9763 112.288 81.3453 114.122L98.727 201.35C99.096 203.184 97.8167 204.96 95.8854 205.299C95.664 205.334 95.4426 205.357 95.2211 205.357H95.2088Z" fill="#CDFFD8"/>
</svg>
