<svg width="1600" height="816" viewBox="0 0 1600 816" fill="none" xmlns="http://www.w3.org/2000/svg">
<g clip-path="url(#clip0_117_1615)">
<rect width="1600" height="816" fill="#092327"/>
<g filter="url(#filter0_f_117_1615)">
<path d="M1677.14 261.883L1625.6 275.328C1606.62 280.288 1587.19 268.866 1582.17 249.821L1501.71 -55.8663C1499.32 -64.9657 1488.96 -69.3217 1480.84 -64.6349L1361.4 4.32474L1299 -103.749L1437.45 -183.683C1470.89 -202.987 1511.81 -206.924 1547.34 -191.505C1581.22 -176.787 1605.99 -147.932 1615.42 -112.107L1702.42 218.448C1707.44 237.492 1696.12 256.923 1677.14 261.883Z" fill="#185A35"/>
<path d="M1299 146.38L1299 111.881L1352.58 94L1378 120.19L1378 161L1299 146.38Z" fill="#2CA662"/>
<path d="M1348 127C1348 122.582 1344.42 119 1340 119C1335.58 119 1332 122.582 1332 127C1332 131.418 1335.58 135 1340 135C1344.42 135 1348 131.418 1348 127Z" fill="#36CA77"/>
<path d="M489.176 11.384L458.433 -19.3591C452.51 -25.2827 442.769 -24.5953 437.952 -17.9158L413.778 15.5705L454.247 56.0396L487.733 31.8655C494.425 27.0357 495.1 17.3076 489.176 11.384Z" fill="#1D6D40"/>
<path d="M1458.54 59H1438C1442.95 70.5213 1447.51 82.2103 1451.76 94H1462.81L1466.89 68.6421C1467.71 63.5749 1463.74 59 1458.54 59Z" fill="#185A35"/>
<path d="M229.456 204.501L178.209 86.9706C173.536 76.2899 164.645 68.1031 153.68 64.4356L114.044 51.2327C87.1231 42.2516 57.7581 53.231 43.2544 77.7015L-137.51 382.268L229.506 204.53L229.456 204.501Z" fill="#30B369"/>
<path d="M339.89 107.181L321.656 112.067L271.196 150.371L402.742 115.123L339.89 107.181Z" fill="#39D67E"/>
<path d="M1142.72 544.857L1143.78 511.109L1190.28 557.611L1156.56 558.691L1142.72 544.857Z" fill="#268E54"/>
<path d="M1202.46 288.01C1208.04 281.75 1213.81 275.663 1219.82 269.801L1191.98 220L1199.59 282.868L1202.46 288.01Z" fill="#32BD70"/>
<path d="M596.032 69C572.819 93.637 548.835 117.548 523.911 140.516L562.657 214.915L607.012 90.0835L596.032 69Z" fill="#299B5B"/>
<path d="M1016.1 25.3697L822.491 149.128C808.647 157.977 790.489 155.766 779.252 143.84L610 -35.4932L937.762 -245L1029.46 -16.0928C1035.54 -0.89227 1029.93 16.5298 1016.1 25.3697Z" fill="#36CA77"/>
<path d="M979.228 567.734L991.505 701.53L1077.24 676.795L1016.37 557.019L979.228 567.734Z" fill="#30B369"/>
<path d="M1661.66 394.957C1667.63 388.842 1673.78 382.9 1679.89 376.929L1639.56 336.599C1625.81 322.853 1604.31 320.75 1588.35 331.617L1348 494.961L1484.49 631.454C1533.03 545.384 1592.62 465.578 1661.66 394.957Z" fill="#32BD70"/>
<path d="M1094.64 209.685L1204.44 50.4488L1137.65 21C1128.42 84.9357 1114.06 148.103 1094.64 209.685Z" fill="#2CA662"/>
<path d="M849.276 248.942L918.033 209.246L920.594 213.681C920.807 214.05 920.684 214.523 920.319 214.734L852.886 253.666C852.521 253.876 852.05 253.747 851.837 253.378L849.276 248.942Z" fill="#39D67E"/>
<path d="M58 591H83.3667C86.4724 591 89 588.475 89 585.346V580H58.2154C58.17 583.663 58.1133 587.337 58.0113 591H58Z" fill="#2CA662"/>
<path d="M314.641 652.885L224.641 497L190 517L280 672.885L314.641 652.885Z" fill="#268E54"/>
<path d="M554 673L554 713L604 713L604 675.55C587.319 675.069 570.639 674.191 554 673.021L554 673Z" fill="#299B5B"/>
<path d="M263.469 869.379L114.62 1127.19C103.977 1145.63 81.8281 1153.94 61.8636 1146.97L-297.301 1002.31C-315.892 994.816 -323.483 972.52 -313.386 955.031L-99.6193 584.777C-89.5222 567.288 -66.4178 562.714 -50.6349 575.069L254.232 813.781C270.221 827.594 274.112 850.945 263.48 869.36L263.469 869.379Z" fill="#36CA77"/>
<path d="M1560.7 651.521L1332 945.563L1492.21 1038.06L1632.51 692.979L1560.7 651.521Z" fill="#30B369"/>
<path d="M956.902 901.985C946.23 914.038 945.631 932.002 955.484 944.742L985.87 984.031C1086.42 917.151 1199.68 869.417 1317.83 844.333L1200.71 692.908C1191.35 680.809 1173.48 679.777 1162.82 690.712L956.878 901.982L956.902 901.985Z" fill="#32BD70"/>
<path d="M674.044 577.436C711.201 683.36 733.52 794.418 739.822 906.305L866.971 836.605L674.044 577.436Z" fill="#2CA662"/>
<path d="M798.693 129.921C797.068 130.96 794.736 130.474 793.143 128.661L772.343 105.088C770.536 103.045 770.365 100.058 771.959 98.4486C773.565 96.8311 776.309 97.1755 778.116 99.2184L798.916 122.792C800.723 124.835 800.894 127.821 799.3 129.431C799.114 129.611 798.919 129.777 798.705 129.913L798.693 129.921Z" fill="#CDFFD8"/>
<path d="M761.535 87.2093C759.393 88.5789 756.591 88.3661 754.881 86.5877L662.81 -8.75408C660.869 -10.7564 661.071 -14.0251 663.255 -16.0199C665.444 -18.0394 668.781 -18.0239 670.722 -16.0215L762.793 79.3203C764.734 81.3227 764.532 84.5914 762.349 86.5862C762.095 86.8101 761.832 87.0194 761.551 87.1993L761.535 87.2093Z" fill="#CDFFD8"/>
</g>
</g>
<defs>
<filter id="filter0_f_117_1615" x="-367.878" y="-295" width="2121.49" height="1494.42" filterUnits="userSpaceOnUse" color-interpolation-filters="sRGB">
<feFlood flood-opacity="0" result="BackgroundImageFix"/>
<feBlend mode="normal" in="SourceGraphic" in2="BackgroundImageFix" result="shape"/>
<feGaussianBlur stdDeviation="25" result="effect1_foregroundBlur_117_1615"/>
</filter>
<clipPath id="clip0_117_1615">
<rect width="1600" height="816" fill="white"/>
</clipPath>
</defs>
</svg>
