<svg width="73" height="76" viewBox="0 0 73 76" fill="none" xmlns="http://www.w3.org/2000/svg">
<mask id="mask0_103_1336" style="mask-type:luminance" maskUnits="userSpaceOnUse" x="0" y="0" width="73" height="76">
<path d="M73 0H0V76H73V0Z" fill="white"/>
</mask>
<g mask="url(#mask0_103_1336)">
<path d="M70.4982 51.6293L69.58 51.2608C69.6535 51.0812 69.7224 50.8969 69.7866 50.7173L70.7049 51.0627C70.6451 51.2516 70.5763 51.4404 70.4982 51.6293ZM2.48886 51.1272L2.29603 50.5607L3.21427 50.206L3.41169 50.7587L2.48886 51.1272ZM71.3571 49.1604L70.411 48.8656L70.5763 48.3083L71.5265 48.5847L71.3571 49.1604ZM1.66704 48.6538L1.50176 48.078L2.45213 47.8108L2.61742 48.3636L1.66704 48.6538ZM72.0453 46.6455L71.0814 46.4198C71.1275 46.231 71.1686 46.0421 71.2097 45.8487L72.1786 46.0606C72.1375 46.254 72.0822 46.4521 72.0453 46.6455ZM1.01968 46.1297L0.91867 45.5401L1.89201 45.3466C1.92874 45.5401 1.97005 45.7289 2.01137 45.9177L1.01968 46.1297ZM72.5414 44.0892L71.5634 43.9326L71.6505 43.3522L72.6286 43.495L72.5414 44.0892ZM0.555969 43.5641L0.459554 42.9699L1.46044 42.8363L1.53848 43.4121L0.555969 43.5641ZM72.8625 41.5006L71.8759 41.4177L71.9213 40.8327L72.9086 40.9018L72.8625 41.5006ZM0.280497 40.9938L0.239176 40.3721L1.22628 40.3168L1.2676 40.9018L0.280497 40.9938ZM73.0007 38.9027H72.0085C72.0085 38.7093 72.0085 38.5112 72.0085 38.3178V38.1749H73.0007V38.3132C73.0007 38.502 73.0007 38.6908 73.0007 38.9027ZM0.184082 38.3684V37.7697H1.17578V38.2855L0.184082 38.3684ZM71.9489 36.2082L71.9121 35.6232L72.8993 35.5541L72.9404 36.1529L71.9489 36.2082ZM1.24465 35.8351L0.266723 35.766C0.266723 35.5679 0.298861 35.3653 0.312635 35.1672L1.29974 35.2501C1.28597 35.4666 1.2676 35.6417 1.25383 35.8351H1.24465ZM71.715 33.6841C71.715 33.4906 71.6647 33.2972 71.6371 33.1037L72.6144 32.9609L72.6973 33.5597L71.715 33.6841ZM1.51553 33.311L0.537604 33.1636L0.624836 32.5694L1.60276 32.726L1.51553 33.311ZM71.3018 31.183C71.26 30.9941 71.2239 30.8007 71.1821 30.6118L72.1467 30.3999L72.2707 30.9895L71.3018 31.183ZM67.9042 21.6761C67.817 21.5057 67.7206 21.3352 67.6287 21.1648L68.4964 20.7042C68.5929 20.8792 68.6893 21.0542 68.7812 21.2339L67.9042 21.6761ZM5.46396 21.326L4.59622 20.8654L4.88547 20.3403L5.74861 20.8286L5.46396 21.326ZM66.6462 19.4836L66.334 18.9907L67.1604 18.4518L67.4864 18.9585L66.6462 19.4836ZM6.75409 19.1427L5.92308 18.6084L6.24905 18.1018L7.07546 18.6499L6.75409 19.1427ZM65.2321 17.3878C65.1173 17.2266 65.0026 17.0746 64.8832 16.9272L65.6729 16.3284L66.031 16.789L65.2321 17.3878ZM8.19575 17.0423L7.40147 16.4482L7.76413 15.9876L8.54927 16.5818L8.19575 17.0423ZM63.6712 15.3796L63.2947 14.919L64.0384 14.2787L64.4286 14.7393L63.6712 15.3796ZM9.77971 15.0802L9.03128 14.4307C9.15985 14.2787 9.29302 14.1267 9.42619 13.9701L10.1653 14.6334C10.0322 14.7854 9.90367 14.9328 9.77971 15.0802ZM61.9816 13.5141L61.5684 13.0996L62.2662 12.3948L62.6886 12.8232L61.9816 13.5141ZM11.4784 13.2193L10.7806 12.5192C10.9183 12.3764 11.0606 12.2382 11.2075 12.0954L11.9375 12.8094L11.4784 13.2193ZM60.1451 11.7638L59.686 11.3769L60.3333 10.6261L60.7925 11.0222L60.1451 11.7638ZM13.3425 11.5151L12.6951 10.7643L13.1542 10.3728L13.774 11.1098L13.3425 11.5151Z" fill="#092327"/>
<path d="M20.5187 8.35534C20.2843 8.77284 19.9457 9.12201 19.5362 9.36862C19.2906 9.54307 19.0104 9.66246 18.7148 9.71872C18.4192 9.77497 18.115 9.7668 17.8227 9.69471C17.5305 9.62262 17.2572 9.48838 17.0213 9.30093C16.7854 9.11356 16.5924 8.87746 16.4554 8.60862C16.283 8.35036 16.1655 8.05922 16.1101 7.75337C16.0549 7.44753 16.063 7.13351 16.1341 6.83095C16.2052 6.5284 16.3377 6.24379 16.5233 5.9949C16.709 5.74601 16.9438 5.53818 17.213 5.3844C17.546 5.17095 17.9198 5.02975 18.3104 4.96985L18.6593 5.52718C18.2631 5.54672 17.8787 5.66891 17.5436 5.88185C17.3532 5.99433 17.1886 6.14586 17.0606 6.32654C16.9325 6.50722 16.8439 6.71297 16.8006 6.93035C16.7573 7.14772 16.7601 7.37181 16.809 7.58802C16.858 7.80416 16.9518 8.00758 17.0845 8.18487C17.5987 9.02776 18.4618 9.30413 19.2745 8.8021C19.6016 8.60081 19.8682 8.31428 20.0458 7.97299L20.5187 8.35534Z" fill="#092327"/>
<path d="M24.8893 4.79026C24.7056 4.88238 24.5266 4.9699 24.3383 5.0436C23.544 5.34299 22.8829 5.40287 22.4146 4.87317C22.2492 4.68257 22.1215 4.46217 22.0381 4.22372L21.6387 3.15051L22.3045 2.89717L22.6855 3.91051C22.7452 4.07823 22.8337 4.23414 22.9472 4.37111C23.2272 4.69353 23.6359 4.62905 24.095 4.45402C24.2889 4.38118 24.4776 4.295 24.6597 4.19608L23.9481 2.30299L24.6184 2.05426L26.1932 6.2596L25.5274 6.51293L24.8893 4.79026Z" fill="#092327"/>
<path d="M29.8652 0.690937L30.4069 0.598816L32.9229 4.74427L32.1608 4.87784L31.5318 3.82767L29.8927 4.10403L29.6632 5.32003L28.924 5.44439L29.8652 0.690937ZM31.2425 3.28415L30.6824 2.3353L30.3243 1.66282C30.3243 1.82403 30.2738 2.04052 30.2049 2.41821L30.0121 3.49142L31.2425 3.28415Z" fill="#092327"/>
<path d="M39.1725 4.37127C38.7478 4.59283 38.2737 4.70221 37.7951 4.6891C37.4948 4.70291 37.1949 4.65193 36.9158 4.5396C36.6368 4.42726 36.385 4.25619 36.1774 4.03791C35.9698 3.81963 35.8113 3.55923 35.7126 3.27427C35.6139 2.98932 35.5772 2.68644 35.6051 2.38606C35.599 2.07565 35.6567 1.76732 35.7746 1.48025C35.8925 1.19319 36.068 0.933545 36.2903 0.717499C36.5125 0.501447 36.7767 0.333618 37.0664 0.224464C37.3562 0.115309 37.6652 0.0671664 37.9742 0.0830339C38.3695 0.0838287 38.7604 0.166956 39.122 0.327155V0.999644C38.7775 0.802875 38.3889 0.696712 37.9926 0.691034C37.7735 0.685407 37.5557 0.72571 37.353 0.809367C37.1503 0.893023 36.9673 1.01819 36.8157 1.17687C36.664 1.33554 36.547 1.52422 36.4721 1.73085C36.3973 1.93748 36.3663 2.15751 36.3811 2.37686C36.3811 3.36716 36.9458 4.06727 37.9007 4.0857C38.2833 4.09046 38.6603 3.99352 38.9935 3.80473L39.1725 4.37127Z" fill="#092327"/>
<path d="M43.6576 1.38182L42.3859 1.12848L42.5052 0.534302L45.8752 1.21139L45.5538 1.76873L44.3601 1.52461L43.6163 5.32921L42.9184 5.19103L43.6576 1.38182Z" fill="#092327"/>
<path d="M49.309 2.25684L49.9748 2.51938L49.3458 4.14532L49.6626 4.26969C50.0476 4.40127 50.3989 4.61678 50.691 4.90072C50.8492 5.07854 50.9518 5.29907 50.9861 5.53492C51.0204 5.77077 50.9848 6.01152 50.8839 6.22726C50.5854 6.99187 49.9197 7.36033 48.7168 6.88592L47.6654 6.44835L49.309 2.25684ZM48.9509 6.31477C49.6075 6.57272 50.0069 6.45296 50.2043 5.9509C50.2607 5.83765 50.2846 5.71087 50.2733 5.58477C50.2619 5.45867 50.2158 5.33823 50.14 5.23696C49.9594 5.03364 49.7256 4.88523 49.4652 4.8086L49.13 4.67502L48.5469 6.15817L48.9509 6.31477Z" fill="#092327"/>
<path d="M55.4439 5.06671L57.4732 6.31035L56.982 6.72029L55.7377 5.98792L55.0674 7.09799L56.3024 7.83034L55.9856 8.34622L54.7506 7.59084L54.0344 8.76997L55.4668 9.64511L55.1546 10.1656L53.1069 8.91281L55.4439 5.06671Z" fill="#092327"/>
<path d="M5.26557 52.4445L5.46758 52.8774L3.12607 53.9921L3.58519 54.9686L3.22249 55.1437L2.55676 53.7342L5.26557 52.4445Z" fill="#092327"/>
<path d="M7.31364 56.2814L7.51109 56.5993L5.57359 59.2109L5.29812 58.7503L5.79856 58.0917L5.21089 57.1428L4.40743 57.304L4.13196 56.894L7.31364 56.2814ZM6.05566 57.7784L6.51478 57.2073L6.84076 56.8157C6.67751 56.8624 6.51202 56.9009 6.34491 56.9309L5.63328 57.0829L6.05566 57.7784Z" fill="#092327"/>
<path d="M10.7984 61.1133L11.0967 61.4311L10.8075 62.8129C10.7616 63.0064 10.7341 63.1399 10.6973 63.2735C10.8259 63.2367 10.982 63.1999 11.1564 63.1584L12.5017 62.8959L12.8093 63.2137L10.6468 65.291L10.3163 64.9455L11.5926 63.7203C11.689 63.6282 11.8084 63.513 11.9094 63.4255C11.8038 63.4578 11.6155 63.4946 11.5145 63.513L10.3484 63.7479L10.1877 63.5821L10.4448 62.3615C10.464 62.2366 10.4932 62.1134 10.532 61.993C10.4399 62.097 10.3418 62.1954 10.2382 62.2879L8.95726 63.5223L8.62671 63.1768L10.7984 61.1133Z" fill="#092327"/>
<path d="M15.1507 65.2217L15.44 65.4521L14.5217 68.5657L14.1177 68.2433L14.361 67.4557L13.4887 66.7648L12.7863 67.1886L12.396 66.8753L15.1507 65.2217ZM14.4713 67.0642L14.7054 66.3733L14.8798 65.9127C14.7926 65.9772 14.6732 66.0555 14.4529 66.1891L13.833 66.576L14.4713 67.0642Z" fill="#092327"/>
<path d="M17.9558 67.2485L18.3598 67.5111L16.7438 70.049L16.3397 69.7911L17.9558 67.2485Z" fill="#092327"/>
<path d="M19.2422 70.8688C19.3569 71.0792 19.5311 71.2503 19.7426 71.3619C19.9905 71.4862 20.2706 71.5089 20.3992 71.2511C20.6884 70.6845 19.481 70.1595 19.8988 69.3534C19.9547 69.2497 20.0318 69.159 20.1249 69.087C20.2181 69.0152 20.3253 68.9636 20.4394 68.9358C20.5537 68.9081 20.6725 68.9046 20.7881 68.9257C20.9037 68.9469 21.0137 68.9922 21.1108 69.0586C21.3303 69.167 21.522 69.3246 21.671 69.5193L21.4735 69.9061C21.3338 69.7117 21.1496 69.5537 20.9363 69.4455C20.7344 69.3396 20.4772 69.3212 20.3716 69.5607C20.1053 70.0904 21.2899 70.6201 20.8675 71.4585C20.6333 71.9187 20.1053 72.016 19.5681 71.744C19.2917 71.6105 19.0627 71.3945 18.9116 71.1268L19.2422 70.8688Z" fill="#092327"/>
<path d="M23.1122 71.7029C23.2177 71.4266 23.402 71.1886 23.642 71.0172C23.8819 70.8461 24.1669 70.7497 24.4612 70.7402C24.7555 70.7306 25.0461 70.8084 25.2965 70.9638C25.547 71.119 25.7462 71.3449 25.8692 71.6134C25.9922 71.8819 26.0336 72.1809 25.9882 72.4728C25.9428 72.7647 25.8125 73.0368 25.6138 73.2541C25.4151 73.4722 25.1567 73.627 24.8709 73.6981C24.5852 73.7691 24.2848 73.7549 24.0074 73.6554C23.8158 73.5936 23.6391 73.4921 23.4885 73.3578C23.3379 73.2236 23.2167 73.0595 23.1325 72.8763C23.0484 72.693 23.0031 72.4934 22.9996 72.2917C22.9961 72.0893 23.0344 71.889 23.1122 71.7029ZM25.4537 72.541C25.4934 72.3535 25.4784 72.1582 25.4106 71.9785C25.3428 71.7995 25.225 71.6432 25.0712 71.5296C24.9174 71.4152 24.7341 71.3484 24.5433 71.3357C24.3525 71.3236 24.1622 71.3662 23.995 71.46C23.8279 71.553 23.691 71.6922 23.6008 71.8613C23.5105 72.0303 23.4707 72.2221 23.486 72.4132C23.5014 72.6049 23.5713 72.7875 23.6873 72.9402C23.8034 73.0922 23.9607 73.208 24.1406 73.2733C24.2745 73.3216 24.4172 73.3408 24.559 73.3294C24.701 73.3181 24.8388 73.2761 24.9632 73.2065C25.0876 73.1376 25.1958 73.0418 25.2804 72.9274C25.365 72.8123 25.4241 72.6809 25.4537 72.541Z" fill="#092327"/>
<path d="M29.9852 75.2172L29.021 73.2043C28.9109 72.9827 28.8328 72.7987 28.7594 72.6424C28.7594 72.776 28.7135 72.928 28.6767 73.1027L28.3186 74.8578L27.8595 74.7612L28.4563 71.8178L28.9154 71.9101L29.8337 73.8492C29.9439 74.0744 30.0265 74.259 30.0908 74.4203C30.1184 74.2633 30.1459 74.0928 30.1872 73.9131L30.527 72.2411L30.9861 72.3384L30.3847 75.2811L29.9852 75.2172Z" fill="#092327"/>
<path d="M35.6917 72.7987H36.5502C37.6154 72.7987 38.18 73.3932 38.1892 74.2683C38.1985 75.1433 37.5924 75.7975 36.541 75.8067H35.7191L35.6917 72.7987ZM36.541 75.3919C36.6908 75.3998 36.8405 75.3763 36.981 75.3238C37.1215 75.2712 37.2497 75.1902 37.3578 75.0858C37.4658 74.9814 37.5514 74.8557 37.6092 74.7172C37.667 74.5787 37.6959 74.4288 37.694 74.2789C37.6921 74.1284 37.6595 73.9799 37.5982 73.8428C37.5369 73.705 37.4483 73.5822 37.3376 73.4806C37.227 73.379 37.0967 73.3009 36.955 73.2519C36.8132 73.2029 36.663 73.1837 36.5134 73.195H36.1737V75.3877L36.541 75.3919Z" fill="#092327"/>
<path d="M40.6681 75.0375C40.574 74.8748 40.5145 74.6944 40.4937 74.5076L40.2319 72.619L40.6911 72.5501L40.9482 74.3926C40.9636 74.5318 41.0074 74.6667 41.0768 74.7889C41.1574 74.8926 41.2641 74.9743 41.3861 75.024C41.508 75.0737 41.6409 75.0901 41.7713 75.0723C41.9017 75.0538 42.025 75.0013 42.1288 74.9203C42.2326 74.8386 42.3131 74.7314 42.3623 74.6092C42.3951 74.4693 42.3951 74.3244 42.3623 74.1852L42.1051 72.3427L42.5642 72.2738L42.826 74.1624C42.8549 74.3507 42.8455 74.5439 42.7984 74.7285C42.7051 74.9267 42.5639 75.0986 42.3876 75.2286C42.2114 75.3586 42.0056 75.4417 41.789 75.4715C41.5723 75.5013 41.3517 75.4765 41.1472 75.399C40.9427 75.3216 40.7606 75.1938 40.6176 75.0283L40.6681 75.0375Z" fill="#092327"/>
<path d="M47.2017 71.1318L47.973 70.8597C48.579 70.6432 48.9693 70.892 49.1024 71.2696C49.1505 71.3911 49.1618 71.5239 49.1349 71.6518C49.1079 71.7796 49.0439 71.8968 48.9509 71.9884C49.1187 71.965 49.289 72.0026 49.4319 72.0936C49.5748 72.1845 49.6809 72.3237 49.7314 72.4856C49.8921 72.9466 49.6855 73.4296 49.0381 73.6604L48.1888 73.9595L47.2017 71.1318ZM48.3403 72.085C48.6571 71.97 48.7673 71.7484 48.6754 71.4955C48.5836 71.2419 48.3862 71.1318 48.0465 71.2512L47.7801 71.3478L48.074 72.1774L48.3403 72.085ZM48.8729 73.3053C49.2264 73.181 49.3917 72.9786 49.2815 72.6604C49.2601 72.595 49.2244 72.5354 49.1768 72.4856C49.1294 72.4352 49.0712 72.3969 49.0069 72.3727C48.9425 72.3486 48.8736 72.3386 48.8051 72.345C48.7366 72.3507 48.6703 72.372 48.6112 72.4075L48.2025 72.5503L48.5147 73.4346L48.8729 73.3053Z" fill="#092327"/>
<path d="M51.4671 71.1083C51.3409 70.8416 51.296 70.5434 51.3378 70.2511C51.3797 69.9589 51.5066 69.6854 51.7025 69.4651C51.8985 69.2448 52.1549 69.0873 52.4396 69.0124C52.7243 68.9374 53.0247 68.9484 53.3032 69.0438C53.5818 69.1393 53.8261 69.315 54.0056 69.549C54.185 69.7831 54.2918 70.0651 54.3124 70.3596C54.333 70.6542 54.2666 70.9483 54.1215 71.2049C53.9763 71.462 53.7589 71.6702 53.4964 71.8037C53.3194 71.901 53.1243 71.9592 52.9233 71.977C52.7225 71.994 52.5202 71.9692 52.3294 71.9038C52.1386 71.8385 51.9634 71.7341 51.815 71.597C51.6666 71.4599 51.5481 71.2937 51.4671 71.1083ZM53.6847 69.9845C53.3771 69.3765 52.8399 69.137 52.3073 69.418C52.087 69.4921 51.8947 69.6319 51.7559 69.8188C51.6172 70.0057 51.5388 70.2307 51.5311 70.4636C51.5234 70.6965 51.587 70.9261 51.7132 71.1218C51.8394 71.3171 52.0223 71.4699 52.2371 71.5579C52.4521 71.6467 52.6888 71.6666 52.9155 71.6162C53.1423 71.5657 53.3483 71.4471 53.5059 71.2759C53.6633 71.1048 53.7649 70.8891 53.7969 70.6583C53.8288 70.4275 53.7897 70.1924 53.6847 69.9845Z" fill="#092327"/>
<path d="M58.767 68.5151L56.6459 67.8333C56.4117 67.7642 56.2281 67.6952 56.0582 67.6399C56.1409 67.7412 56.2327 67.8702 56.3429 68.0268L57.3713 69.4961L56.9811 69.7725L55.2594 67.3082L55.645 67.0411L57.6835 67.6952C57.9269 67.7689 58.1151 67.8333 58.2758 67.8978C58.1809 67.7719 58.0799 67.6338 57.9727 67.4833L56.9948 66.1015L57.3897 65.8297L59.1068 68.2893L58.767 68.5151Z" fill="#092327"/>
<path d="M59.0883 64.4111L59.4372 64.084L60.2957 65.0052L61.3976 63.9827L60.539 63.0614L60.888 62.7344L62.9265 64.9408L62.5776 65.2678L61.6593 64.2867L60.5575 65.3138L61.4756 66.2903L61.1267 66.6173L59.0883 64.4111Z" fill="#092327"/>
<path d="M62.4132 61.0902L63.4371 59.8742L63.6574 60.2427L63.0284 60.9842L63.6896 61.5462L64.314 60.8046L64.6262 61.0672L63.9972 61.8087L64.6996 62.4076L65.4251 61.5416L65.7373 61.8087L64.6996 63.034L62.4132 61.0902Z" fill="#092327"/>
<path d="M66.8014 59.4596C66.6163 59.4259 66.4408 59.352 66.2872 59.2431L64.6986 58.2021L64.9603 57.7968L66.5167 58.8239C66.632 58.9021 66.7615 58.9569 66.8978 58.9852C67.0291 58.9918 67.1599 58.9638 67.2771 58.904C67.3943 58.8442 67.4939 58.7546 67.5658 58.6442C67.6378 58.5338 67.6797 58.4064 67.6874 58.2747C67.695 58.143 67.6682 58.0116 67.6095 57.8935C67.5321 57.7746 67.4284 57.6753 67.3064 57.6033L65.7546 56.5854L66.0163 56.1801L67.6049 57.2257C67.7665 57.3284 67.9056 57.4632 68.0134 57.6218C68.1234 57.8154 68.1722 58.038 68.1533 58.26C68.1345 58.4821 68.0489 58.6932 67.9078 58.8654C67.8083 59.0678 67.648 59.234 67.4496 59.3405C67.2512 59.4471 67.0245 59.4887 66.8014 59.4596Z" fill="#092327"/>
<path d="M67.0864 54.2685L67.4124 53.5914C67.5008 53.3837 67.6417 53.2027 67.821 53.0663C67.935 52.9763 68.073 52.9221 68.2176 52.9106C68.3623 52.8992 68.507 52.9309 68.6337 53.0019C68.8 53.0711 68.9369 53.1964 69.0208 53.3562C69.1046 53.5161 69.1301 53.7003 69.0928 53.877C69.2811 53.7952 69.4845 53.7543 69.6897 53.7573L70.7043 53.6789L70.4656 54.1764L69.5474 54.2409C69.2535 54.2409 69.0883 54.3008 69.0377 54.3699L68.9138 54.6232L69.9927 55.1483L69.7861 55.5766L67.0864 54.2685ZM68.6658 54.2224C68.7237 54.1118 68.7521 53.9881 68.7485 53.8632C68.7394 53.7781 68.7084 53.6967 68.6585 53.6273C68.6086 53.5578 68.5415 53.5026 68.4638 53.467C68.3941 53.4266 68.3149 53.4053 68.2342 53.4053C68.1536 53.4053 68.0745 53.4266 68.0047 53.467C67.8847 53.5345 67.7921 53.6421 67.743 53.771L67.6283 54.006L68.5465 54.4665L68.6658 54.2224Z" fill="#092327"/>
<path d="M29.7837 16.7753C29.7774 16.682 29.7903 16.5884 29.8216 16.5002C29.8529 16.4121 29.902 16.3314 29.9657 16.2632C30.0295 16.1949 30.1065 16.1405 30.1921 16.1034C30.2777 16.0664 30.37 16.0473 30.4632 16.0475C30.5488 16.0464 30.634 16.0588 30.7157 16.0843L30.8396 15.481H31.0233L30.656 17.2175C30.5396 17.2665 30.415 17.293 30.2887 17.2958C30.2194 17.3034 30.1491 17.2951 30.0834 17.2714C30.0177 17.2478 29.9583 17.2094 29.9096 17.1592C29.8609 17.109 29.8242 17.0483 29.8024 16.9819C29.7806 16.9153 29.7742 16.8447 29.7837 16.7753ZM30.4999 17.0977L30.679 16.241C30.6138 16.2187 30.5457 16.2062 30.477 16.2042C30.4062 16.2051 30.3364 16.2208 30.2719 16.25C30.2074 16.2794 30.1496 16.3218 30.1022 16.3745C30.0548 16.4273 30.0187 16.4893 29.9963 16.5567C29.9739 16.624 29.9656 16.6953 29.9719 16.7661C29.9651 16.8133 29.9687 16.8615 29.9827 16.9071C29.9966 16.9527 30.0205 16.9946 30.0525 17.0299C30.0846 17.0652 30.1241 17.0929 30.1681 17.1109C30.2121 17.129 30.2596 17.1371 30.3071 17.1346C30.3731 17.1353 30.4387 17.1228 30.4999 17.0977Z" fill="#092327"/>
<path d="M31.2663 16.789C31.2562 16.7001 31.2639 16.6101 31.289 16.5243C31.3143 16.4385 31.3564 16.3587 31.4129 16.2895C31.4694 16.2203 31.5391 16.1633 31.6181 16.1217C31.697 16.08 31.7835 16.0548 31.8723 16.0474C31.9239 16.0416 31.9762 16.0475 32.0253 16.0646C32.0744 16.0817 32.119 16.1097 32.156 16.1463C32.193 16.183 32.2212 16.2273 32.2389 16.2764C32.2565 16.3254 32.2631 16.3778 32.258 16.4296C32.2565 16.5214 32.2378 16.612 32.2029 16.6968H31.4499C31.4499 16.6968 31.4499 16.7429 31.4499 16.7659C31.444 16.8106 31.4477 16.856 31.4607 16.8992C31.4737 16.9424 31.4957 16.9822 31.5252 17.0163C31.5547 17.0502 31.5911 17.0775 31.632 17.0963C31.6728 17.1151 31.7172 17.1249 31.7621 17.1252C31.8771 17.1206 31.9891 17.0874 32.0881 17.0285L32.1386 17.1666C32.0207 17.2386 31.8862 17.2783 31.7484 17.2818C31.6834 17.2852 31.6184 17.2747 31.5577 17.2511C31.497 17.2274 31.4421 17.1911 31.3966 17.1445C31.3509 17.0978 31.3158 17.042 31.2933 16.9807C31.2708 16.9194 31.2616 16.8541 31.2663 16.789ZM32.056 16.5586C32.0598 16.5142 32.0598 16.4695 32.056 16.4251C32.0595 16.395 32.0563 16.3644 32.0466 16.3357C32.0368 16.307 32.0208 16.2809 31.9997 16.2592C31.9785 16.2376 31.9528 16.221 31.9244 16.2106C31.896 16.2002 31.8657 16.1964 31.8355 16.1994C31.7409 16.208 31.6521 16.2488 31.5836 16.3149C31.5151 16.3811 31.4713 16.4687 31.4591 16.5632L32.056 16.5586Z" fill="#092327"/>
<path d="M32.7445 16.1211C32.8546 16.0873 32.9691 16.0701 33.0843 16.0705C33.1533 16.059 33.2238 16.0635 33.2908 16.0836C33.3578 16.1037 33.4192 16.1388 33.4706 16.1863C33.522 16.2339 33.5618 16.2925 33.5872 16.3579C33.6126 16.4232 33.6227 16.4935 33.6168 16.5633C33.6231 16.6595 33.6098 16.756 33.5776 16.8468C33.5455 16.9376 33.4952 17.0209 33.4299 17.0916C33.3646 17.1623 33.2856 17.2189 33.1978 17.2579C33.1099 17.297 33.015 17.3177 32.919 17.3187C32.8379 17.3199 32.7572 17.3075 32.6802 17.2819L32.5517 17.8899H32.368L32.7445 16.1211ZM32.9052 17.1575C32.9784 17.1565 33.0506 17.1404 33.1173 17.1101C33.1841 17.0799 33.2438 17.0362 33.2929 16.9817C33.3421 16.9272 33.3795 16.8632 33.4028 16.7936C33.4262 16.724 33.435 16.6503 33.4286 16.5771C33.4338 16.5295 33.4282 16.4813 33.4122 16.4362C33.3962 16.391 33.3703 16.35 33.3362 16.3163C33.3022 16.2827 33.2611 16.2572 33.2159 16.2417C33.1706 16.2263 33.1225 16.2212 33.0751 16.2271C33.0157 16.2188 32.9554 16.2188 32.8961 16.2271L32.7124 17.1023C32.7746 17.1231 32.8396 17.1339 32.9052 17.1345V17.1575Z" fill="#092327"/>
<path d="M33.9381 17.0058C33.9413 16.9281 33.9521 16.851 33.9702 16.7754L34.1126 16.0753H34.2962L34.1447 16.7893C34.1325 16.847 34.1249 16.9054 34.1217 16.9643C34.1217 17.0887 34.186 17.1347 34.2687 17.1347C34.4845 17.1347 34.6498 16.909 34.6957 16.6741L34.8242 16.0615H35.0079L34.861 16.757C34.8359 16.8629 34.8205 16.9708 34.815 17.0794C34.8103 17.1316 34.8103 17.184 34.815 17.236L34.6635 17.2683C34.6422 17.1903 34.6329 17.1095 34.6359 17.0288C34.5889 17.1011 34.526 17.1615 34.4519 17.2054C34.3779 17.2494 34.2947 17.2756 34.209 17.2821C34.1726 17.2834 34.1365 17.2772 34.1027 17.2637C34.0689 17.2502 34.0383 17.2298 34.0128 17.2038C33.9874 17.1778 33.9675 17.1468 33.9547 17.1127C33.9418 17.0786 33.9362 17.0421 33.9381 17.0058Z" fill="#092327"/>
<path d="M35.4804 16.0751H35.6595L35.4115 17.2681H35.2279L35.4804 16.0751ZM35.5263 15.702C35.5257 15.6832 35.5288 15.6645 35.5354 15.647C35.5419 15.6294 35.5519 15.6133 35.5647 15.5996C35.5775 15.586 35.5929 15.5749 35.6099 15.5671C35.627 15.5595 35.6454 15.5551 35.6641 15.5546C35.6784 15.5532 35.693 15.555 35.7067 15.5598C35.7203 15.5646 35.7328 15.5723 35.7432 15.5823C35.7537 15.5924 35.7619 15.6045 35.7672 15.618C35.7726 15.6315 35.775 15.646 35.7743 15.6605C35.7748 15.6792 35.7718 15.698 35.7652 15.7155C35.7586 15.7331 35.7486 15.7491 35.7358 15.7628C35.723 15.7765 35.7077 15.7875 35.6906 15.7953C35.6736 15.803 35.6552 15.8073 35.6365 15.8079C35.6221 15.8092 35.6076 15.8074 35.5939 15.8027C35.5802 15.7978 35.5677 15.7902 35.5573 15.7802C35.5468 15.7701 35.5387 15.7579 35.5334 15.7444C35.528 15.7309 35.5256 15.7164 35.5263 15.702Z" fill="#092327"/>
<path d="M35.8887 17.0425C35.9707 17.0917 36.0641 17.1187 36.1596 17.1207C36.2882 17.1207 36.4075 17.0562 36.4075 16.9319C36.4075 16.7062 36.0218 16.6831 36.0218 16.3653C36.0218 16.1765 36.155 16.0291 36.4167 16.0291C36.5106 16.0275 36.6039 16.0431 36.6922 16.0751L36.6646 16.2271C36.5881 16.1986 36.5075 16.183 36.4259 16.1811C36.3065 16.1811 36.2101 16.2317 36.2101 16.3561C36.2101 16.5772 36.5912 16.5956 36.5912 16.9272C36.5912 17.1484 36.4075 17.2773 36.1642 17.2773C36.0445 17.2794 35.9267 17.2475 35.8245 17.1852L35.8887 17.0425Z" fill="#092327"/>
<path d="M38.4507 15.983C38.4507 15.8264 38.3451 15.7527 38.1845 15.7527C38.0473 15.7584 37.9127 15.7929 37.7896 15.854L37.7483 15.7066C37.8918 15.6376 38.0483 15.6 38.2074 15.5961C38.4646 15.5961 38.6666 15.7297 38.6666 15.9692C38.6666 16.4805 37.9136 16.4897 37.7483 17.1115H38.5288L38.4921 17.2681H37.505C37.6473 16.3838 38.4507 16.4114 38.4507 15.983Z" fill="#092327"/>
<path d="M38.9834 16.7384C38.9834 16.181 39.2543 15.5961 39.6996 15.5961C39.9797 15.5961 40.1312 15.7849 40.1312 16.1488C40.1312 16.7108 39.8649 17.2958 39.4196 17.2958C39.1395 17.2958 38.9834 17.1023 38.9834 16.7384ZM39.943 16.1212C39.943 15.8679 39.8649 15.7481 39.695 15.7481C39.4149 15.7481 39.1809 16.2087 39.1809 16.7568C39.1809 17.0055 39.2635 17.1299 39.4333 17.1299C39.7088 17.1345 39.943 16.6555 39.943 16.1212Z" fill="#092327"/>
<path d="M40.4396 16.7384C40.4396 16.181 40.7105 15.5961 41.1558 15.5961C41.4358 15.5961 41.5874 15.7849 41.5874 16.1488C41.5874 16.7108 41.3211 17.2958 40.8757 17.2958C40.5956 17.2958 40.4396 17.1023 40.4396 16.7384ZM41.3945 16.1212C41.3945 15.8679 41.3165 15.7481 41.1466 15.7481C40.8665 15.7481 40.6324 16.2087 40.6324 16.7568C40.6324 17.0055 40.7151 17.1299 40.8849 17.1299C41.165 17.1345 41.3945 16.6555 41.3945 16.1212Z" fill="#092327"/>
<path d="M41.9125 16.8719C41.9189 16.7631 41.9604 16.6592 42.0308 16.5761C42.1012 16.493 42.1967 16.4351 42.3027 16.4113C42.237 16.3771 42.1818 16.3256 42.143 16.2623C42.1041 16.199 42.0832 16.1264 42.0824 16.052C42.0812 15.9839 42.0953 15.9163 42.1233 15.8543C42.1513 15.7922 42.1928 15.7371 42.2446 15.6931C42.2964 15.6491 42.3573 15.6171 42.423 15.5995C42.4886 15.5819 42.5573 15.5792 42.6241 15.5915C42.9134 15.5915 43.1108 15.7435 43.1108 15.9784C43.102 16.0818 43.0608 16.1797 42.9932 16.2583C42.9256 16.3369 42.835 16.392 42.7343 16.4159C42.8193 16.4374 42.8947 16.4866 42.9488 16.5558C43.0028 16.6251 43.0324 16.7103 43.0328 16.7982C43.0258 16.8698 43.0049 16.9391 42.9711 17.0025C42.9373 17.0659 42.8913 17.1218 42.8358 17.1673C42.7803 17.2127 42.7164 17.2466 42.6478 17.267C42.5791 17.2875 42.5071 17.2941 42.4359 17.2865C42.1237 17.2957 41.9125 17.1345 41.9125 16.8719ZM42.8307 16.812C42.8307 16.6462 42.6792 16.5495 42.4542 16.4896C42.243 16.5495 42.0961 16.6785 42.0961 16.8581C42.0961 17.0377 42.2752 17.1391 42.4313 17.1391C42.5874 17.1391 42.8399 17.0424 42.8399 16.812H42.8307ZM42.9087 15.9967C42.9087 15.8217 42.771 15.7435 42.6058 15.7435C42.5639 15.739 42.5216 15.7433 42.4814 15.7558C42.4412 15.7685 42.404 15.7893 42.3722 15.8169C42.3403 15.8445 42.3145 15.8784 42.2962 15.9165C42.2779 15.9546 42.2677 15.996 42.266 16.0382C42.2717 16.1129 42.3019 16.1836 42.3517 16.2393C42.4014 16.2951 42.4681 16.3329 42.5415 16.3468C42.7481 16.2916 42.918 16.1902 42.918 15.9967H42.9087Z" fill="#092327"/>
<path d="M24.4062 12.2013H24.645C24.7381 12.1995 24.831 12.2119 24.9204 12.2381C25.018 12.2678 25.103 12.3291 25.1621 12.4124C25.2211 12.4958 25.2507 12.5965 25.2464 12.6988C25.2488 12.8349 25.2045 12.9678 25.121 13.0751C25.0373 13.1825 24.9195 13.2577 24.7873 13.2884C24.6872 13.3162 24.5836 13.3302 24.4797 13.3298H24.3695L24.2317 13.9885H24.0389L24.4062 12.2013ZM24.4981 13.1594C24.5755 13.1616 24.6529 13.1523 24.7276 13.1317C24.8222 13.1074 24.9054 13.051 24.9631 12.972C25.0208 12.8931 25.0496 12.7966 25.0444 12.6988C25.0489 12.6328 25.0315 12.5673 24.995 12.5122C24.9585 12.4573 24.9048 12.416 24.8424 12.3948C24.777 12.3746 24.7088 12.3653 24.6404 12.3671H24.5669L24.4016 13.1594H24.4981Z" fill="#092327"/>
<path d="M25.3299 13.68C25.3267 13.6141 25.3392 13.5484 25.3663 13.4883C25.3934 13.4282 25.4345 13.3755 25.486 13.3345C25.6335 13.2395 25.8068 13.1928 25.9818 13.201H26.1701C26.1772 13.1506 26.1772 13.0994 26.1701 13.049C26.1701 12.9154 26.1013 12.8418 25.9314 12.8418C25.7972 12.8482 25.6658 12.8827 25.5457 12.943L25.5182 12.7819C25.6614 12.7128 25.8183 12.6765 25.9773 12.6759C26.1793 12.6759 26.3813 12.7588 26.3813 13.0352C26.3776 13.1425 26.3622 13.2491 26.3354 13.353L26.3125 13.4589C26.2848 13.5736 26.2694 13.691 26.2665 13.809C26.2592 13.8625 26.2592 13.9168 26.2665 13.9702L26.0967 14.007C26.0767 13.9335 26.0659 13.8577 26.0645 13.7814C26.0156 13.8506 25.9519 13.908 25.8779 13.9495C25.8041 13.9909 25.722 14.0153 25.6375 14.0209C25.5947 14.0198 25.5526 14.01 25.5137 13.992C25.4747 13.974 25.4398 13.9484 25.411 13.9165C25.3823 13.8847 25.3603 13.8472 25.3463 13.8066C25.3324 13.766 25.3268 13.7229 25.3299 13.68ZM26.1288 13.4544L26.1701 13.3576H26.0599C25.9159 13.3417 25.7706 13.3741 25.6468 13.4498C25.6144 13.4735 25.5884 13.5048 25.5708 13.5409C25.5532 13.577 25.5446 13.6168 25.5457 13.657C25.5421 13.6824 25.5443 13.7084 25.5522 13.7328C25.56 13.7573 25.5733 13.7797 25.5909 13.7983C25.6086 13.8169 25.6302 13.8312 25.6542 13.8403C25.6781 13.8493 25.7039 13.8528 25.7294 13.8505C25.8302 13.8381 25.9242 13.7925 25.9965 13.7208C26.0688 13.6491 26.1153 13.5554 26.1288 13.4544Z" fill="#092327"/>
<path d="M26.8407 12.7035H27.0013L26.9646 12.9614C26.9911 12.8825 27.04 12.8129 27.1052 12.7614C27.1704 12.7099 27.2492 12.6785 27.3319 12.6712C27.3819 12.6696 27.4313 12.6824 27.4743 12.7081L27.3916 12.8877C27.361 12.8695 27.3262 12.86 27.2906 12.8601C27.1299 12.8601 26.96 13.0443 26.8728 13.4496L26.7626 13.9886H26.5652L26.8407 12.7035Z" fill="#092327"/>
<path d="M27.6847 12.7034H27.8775L27.6112 13.9885H27.4138L27.6847 12.7034ZM27.7352 12.3027C27.734 12.2826 27.7368 12.2624 27.7436 12.2434C27.7505 12.2245 27.7611 12.2072 27.7748 12.1924C27.7886 12.1778 27.8053 12.1661 27.8237 12.1581C27.8421 12.1501 27.862 12.1461 27.8821 12.1461C27.8977 12.1448 27.9135 12.1468 27.9282 12.152C27.943 12.1573 27.9565 12.1657 27.9678 12.1765C27.9791 12.1875 27.9879 12.2006 27.9937 12.2152C27.9995 12.2299 28.0022 12.2455 28.0015 12.2613C28.0021 12.2809 27.9987 12.3006 27.9917 12.3191C27.9846 12.3375 27.9738 12.3542 27.9601 12.3685C27.9464 12.3827 27.93 12.3939 27.9118 12.4016C27.8937 12.4093 27.8742 12.4133 27.8546 12.4133C27.8392 12.4153 27.8235 12.4139 27.8088 12.4092C27.794 12.4045 27.7804 12.3967 27.769 12.3861C27.7576 12.3755 27.7487 12.3626 27.7428 12.3481C27.737 12.3337 27.7344 12.3182 27.7352 12.3027Z" fill="#092327"/>
<path d="M28.0058 13.7629C28.0933 13.8156 28.1931 13.8443 28.2951 13.8458C28.4328 13.8458 28.5614 13.7813 28.5614 13.6432C28.5614 13.4037 28.1528 13.3806 28.1528 13.0398C28.1523 12.9868 28.1632 12.9343 28.1847 12.886C28.2062 12.8377 28.2379 12.7945 28.2776 12.7595C28.3172 12.7246 28.3639 12.6986 28.4145 12.6833C28.465 12.6681 28.5182 12.664 28.5706 12.6713C28.6723 12.669 28.7737 12.6862 28.869 12.722L28.8414 12.8878C28.7595 12.8555 28.6724 12.8383 28.5844 12.8371C28.4558 12.8371 28.3502 12.8923 28.3502 13.026C28.3502 13.2655 28.7588 13.2839 28.7588 13.6386C28.7588 13.8781 28.5614 14.0162 28.2997 14.0162C28.1717 14.0177 28.0459 13.9826 27.937 13.9149L28.0058 13.7629Z" fill="#092327"/>
<path d="M30.0033 13.7398C30.1057 13.8067 30.2254 13.8419 30.3476 13.8411C30.5313 13.8411 30.7333 13.7582 30.7333 13.5141C30.7333 13.1134 30.1594 13.1134 30.1594 12.6574C30.162 12.5904 30.1786 12.5248 30.2078 12.4646C30.2371 12.4044 30.2785 12.3509 30.3294 12.3077C30.3803 12.2644 30.4397 12.2322 30.5037 12.2131C30.5677 12.194 30.6349 12.1884 30.7012 12.1967C30.8344 12.194 30.9664 12.2224 31.0868 12.2797L31.0455 12.4547C30.9396 12.3977 30.8213 12.3676 30.7012 12.3672C30.5267 12.3672 30.366 12.4593 30.366 12.639C30.366 12.989 30.9353 13.0028 30.9353 13.5002C30.936 13.5755 30.9205 13.6499 30.89 13.7186C30.8595 13.7872 30.8147 13.8485 30.7585 13.8983C30.7024 13.9481 30.6362 13.9852 30.5645 14.0071C30.4929 14.0291 30.4173 14.0352 30.3431 14.0254C30.1945 14.0258 30.0486 13.986 29.9207 13.9102L30.0033 13.7398Z" fill="#092327"/>
<path d="M31.1787 13.68C31.1762 13.6143 31.189 13.5488 31.2161 13.4888C31.2432 13.4289 31.2838 13.376 31.3348 13.3345C31.4822 13.2395 31.6555 13.1928 31.8306 13.201H32.0281C32.0351 13.1506 32.0351 13.0994 32.0281 13.049C32.0281 12.9154 31.9592 12.8418 31.7893 12.8418C31.6552 12.8482 31.5238 12.8827 31.4036 12.943L31.3761 12.7819C31.5196 12.7133 31.6764 12.6772 31.8353 12.6759C32.0372 12.6759 32.2438 12.7588 32.2438 13.0352C32.2387 13.1426 32.2217 13.2492 32.1934 13.353L32.1704 13.4589C32.1467 13.5772 32.1359 13.6976 32.1382 13.8182C32.1332 13.8718 32.1332 13.9258 32.1382 13.9794L31.9683 14.0163C31.9484 13.9427 31.9376 13.8668 31.9362 13.7905C31.8873 13.8598 31.8236 13.9173 31.7497 13.9587C31.6759 14.0001 31.5937 14.0245 31.5092 14.0301C31.4639 14.0315 31.4187 14.0234 31.3767 14.006C31.3347 13.9887 31.2968 13.9626 31.2656 13.9296C31.2343 13.8965 31.2104 13.8572 31.1955 13.8141C31.1805 13.7712 31.1748 13.7254 31.1787 13.68ZM31.9776 13.4544V13.353H31.8674C31.7233 13.3371 31.578 13.3695 31.4542 13.4451C31.4219 13.4689 31.3958 13.5002 31.3783 13.5363C31.3607 13.5724 31.352 13.6123 31.3532 13.6524C31.3496 13.6778 31.3518 13.7037 31.3596 13.7283C31.3675 13.7527 31.3807 13.7751 31.3984 13.7937C31.416 13.8123 31.4376 13.8266 31.4616 13.8356C31.4856 13.8447 31.5113 13.8482 31.5368 13.8459C31.6444 13.8428 31.7474 13.8018 31.828 13.7303C31.9085 13.6587 31.9615 13.5611 31.9776 13.4544Z" fill="#092327"/>
<path d="M32.6892 12.7034H32.8866L32.5974 13.9885H32.3999L32.6892 12.7034ZM32.7397 12.3027C32.7391 12.2827 32.7424 12.2628 32.7495 12.2442C32.7565 12.2255 32.7672 12.2084 32.7808 12.1939C32.7945 12.1793 32.8108 12.1676 32.829 12.1594C32.8471 12.1512 32.8667 12.1467 32.8866 12.1461C32.9022 12.1448 32.9179 12.1468 32.9327 12.152C32.9475 12.1573 32.9609 12.1657 32.9723 12.1765C32.9835 12.1875 32.9924 12.2006 32.9982 12.2152C33.004 12.2299 33.0067 12.2455 33.0059 12.2613C33.0066 12.2809 33.0032 12.3006 32.9962 12.3191C32.989 12.3375 32.9783 12.3542 32.9646 12.3685C32.9509 12.3827 32.9345 12.3939 32.9164 12.4016C32.8982 12.4093 32.8787 12.4133 32.859 12.4133C32.8437 12.4153 32.828 12.4139 32.8132 12.4092C32.7985 12.4045 32.7849 12.3967 32.7735 12.3861C32.7621 12.3755 32.7532 12.3626 32.7473 12.3481C32.7415 12.3337 32.7389 12.3182 32.7397 12.3027Z" fill="#092327"/>
<path d="M33.2682 12.7034H33.4289L33.3876 12.9613C33.4366 12.8807 33.5036 12.8125 33.5833 12.7622C33.6629 12.7119 33.7531 12.6807 33.8467 12.6711C33.8871 12.6679 33.9277 12.674 33.9655 12.6886C34.0033 12.7033 34.0373 12.7262 34.065 12.7559C34.0928 12.7855 34.1135 12.821 34.1258 12.8597C34.1381 12.8985 34.1415 12.9395 34.1359 12.9797C34.1321 13.0618 34.1214 13.1435 34.1038 13.2239L33.9753 13.9884H33.7824L33.9386 13.2284C33.9552 13.1621 33.9644 13.0942 33.9661 13.0258C33.9661 12.8968 33.9018 12.8461 33.8146 12.8461C33.7436 12.8545 33.6752 12.8782 33.6142 12.9156C33.5532 12.953 33.5009 13.0031 33.4611 13.0626C33.3886 13.1696 33.3386 13.2903 33.3142 13.4173L33.1993 13.9884H33.002L33.2682 12.7034Z" fill="#092327"/>
<path d="M34.4335 13.7721C34.4294 13.7231 34.4294 13.6737 34.4335 13.6247L34.5942 12.8693H34.3876L34.4197 12.7035H34.631L34.709 12.4363L34.9156 12.3765L34.8376 12.7266H35.1865L35.1222 12.8923H34.8054L34.6401 13.6616C34.636 13.6921 34.636 13.7231 34.6401 13.7537C34.6401 13.8274 34.6723 13.8688 34.7594 13.8688C34.8344 13.8635 34.907 13.8398 34.9707 13.7997L35.0212 13.9471C34.9293 14.0061 34.8227 14.038 34.7136 14.0392C34.5161 14.0162 34.4335 13.9149 34.4335 13.7721Z" fill="#092327"/>
<path d="M35.2784 13.2288H35.9487L35.9074 13.4038H35.2417L35.2784 13.2288Z" fill="#092327"/>
<path d="M36.5225 12.2015H36.7567C36.8499 12.1988 36.9429 12.2113 37.0322 12.2383C37.1306 12.2671 37.2167 12.328 37.2766 12.4115C37.3365 12.4949 37.3668 12.5962 37.3628 12.6989C37.3643 12.8349 37.3197 12.9673 37.2362 13.0745C37.1528 13.1817 37.0355 13.2571 36.9036 13.2885C36.8035 13.3164 36.6999 13.3304 36.596 13.3299H36.4858L36.3481 13.9887H36.1553L36.5225 12.2015ZM36.6144 13.1596C36.6918 13.1615 36.7691 13.1522 36.844 13.1319C36.938 13.1068 37.0208 13.0502 37.0784 12.9714C37.136 12.8927 37.1651 12.7965 37.1608 12.6989C37.1649 12.6325 37.1469 12.5664 37.1094 12.5113C37.072 12.4563 37.0174 12.4153 36.9541 12.3949C36.8887 12.3748 36.8205 12.3655 36.7521 12.3673H36.6787L36.5134 13.1596H36.6144Z" fill="#092327"/>
<path d="M37.5233 13.4681C37.5126 13.3726 37.521 13.2759 37.5481 13.1837C37.5753 13.0915 37.6207 13.0057 37.6814 12.9314C37.7422 12.8571 37.8173 12.7958 37.9021 12.7511C37.9869 12.7064 38.0798 12.6792 38.1753 12.6713C38.2312 12.6656 38.2876 12.6724 38.3405 12.6912C38.3935 12.7099 38.4416 12.7402 38.4815 12.7798C38.5215 12.8195 38.5521 12.8674 38.5714 12.9203C38.5907 12.9732 38.5981 13.0297 38.5931 13.0858C38.5897 13.1852 38.5695 13.2833 38.5334 13.376H37.7253C37.7229 13.402 37.7229 13.4282 37.7253 13.4543C37.7187 13.5022 37.7225 13.5509 37.7364 13.5971C37.7503 13.6435 37.7739 13.6861 37.8057 13.7224C37.8375 13.7587 37.8767 13.7877 37.9207 13.8074C37.9647 13.8271 38.0124 13.8371 38.0605 13.8366C38.1837 13.8339 38.3039 13.7989 38.4095 13.7353L38.4645 13.8827C38.3395 13.9624 38.1949 14.0055 38.0467 14.007C37.9757 14.0112 37.9046 14.0001 37.8383 13.9743C37.772 13.9485 37.7119 13.9087 37.6623 13.8576C37.6126 13.8065 37.5745 13.7452 37.5506 13.678C37.5266 13.6108 37.5173 13.5393 37.5233 13.4681ZM38.3727 13.224C38.3783 13.1766 38.3783 13.1286 38.3727 13.0812C38.3762 13.0487 38.3725 13.0158 38.3618 12.9849C38.3511 12.954 38.3338 12.9258 38.311 12.9024C38.2881 12.8791 38.2604 12.8611 38.2298 12.8498C38.1992 12.8385 38.1664 12.8342 38.134 12.8371C38.0321 12.8473 37.9365 12.8913 37.8625 12.9623C37.7885 13.0332 37.7402 13.127 37.7253 13.2286L38.3727 13.224ZM38.313 12.1462H38.5655L38.2855 12.5469H38.1064L38.313 12.1462Z" fill="#092327"/>
<path d="M38.8324 13.772C38.8282 13.723 38.8282 13.6737 38.8324 13.6247L39.0252 12.8692H38.8186L38.8553 12.7034H39.0252L39.0895 12.4132L39.2961 12.3533L39.218 12.7034H39.567L39.5027 12.8692H39.1859L39.0252 13.6384C39.0234 13.6691 39.0234 13.6999 39.0252 13.7306C39.0252 13.8043 39.0619 13.8457 39.1446 13.8457C39.2195 13.8404 39.292 13.8167 39.3558 13.7767L39.4063 13.924C39.3144 13.983 39.2078 14.0149 39.0986 14.0162C38.915 14.0162 38.8324 13.9148 38.8324 13.772Z" fill="#092327"/>
<path d="M39.6496 13.4681C39.6388 13.3726 39.6472 13.2759 39.6744 13.1837C39.7015 13.0915 39.7469 13.0058 39.8076 12.9314C39.8684 12.8571 39.9435 12.7958 40.0283 12.7511C40.1131 12.7065 40.2061 12.6793 40.3015 12.6713C40.357 12.6663 40.4129 12.6737 40.4652 12.6928C40.5176 12.7119 40.5652 12.7423 40.6046 12.7818C40.644 12.8213 40.6743 12.869 40.6933 12.9215C40.7123 12.9741 40.7196 13.0301 40.7147 13.0858C40.7129 13.185 40.6942 13.2831 40.6597 13.376H39.847C39.847 13.3991 39.847 13.4267 39.847 13.4543C39.8404 13.5022 39.8442 13.5509 39.858 13.5972C39.8719 13.6435 39.8955 13.6862 39.9273 13.7224C39.9591 13.7587 39.9983 13.7877 40.0423 13.8074C40.0863 13.8271 40.134 13.8371 40.1822 13.8366C40.3051 13.8333 40.4253 13.7984 40.5311 13.7353L40.5862 13.8827C40.4612 13.9624 40.3165 14.0055 40.1684 14.0071C40.0977 14.0106 40.0272 13.9989 39.9613 13.9728C39.8956 13.9468 39.8361 13.9068 39.787 13.8558C39.7379 13.8048 39.7002 13.7438 39.6764 13.6769C39.6528 13.61 39.6436 13.5388 39.6496 13.4681ZM40.4989 13.224C40.5049 13.1766 40.5049 13.1287 40.4989 13.0812C40.5032 13.049 40.5002 13.0161 40.4901 12.9852C40.48 12.9542 40.463 12.926 40.4405 12.9025C40.418 12.8791 40.3905 12.861 40.3601 12.8497C40.3297 12.8384 40.2971 12.834 40.2648 12.8371C40.1629 12.8473 40.0674 12.8914 39.9934 12.9623C39.9193 13.0333 39.871 13.127 39.8562 13.2286L40.4989 13.224Z" fill="#092327"/>
<path d="M41.1054 12.7036H41.2661L41.2248 12.9615C41.2545 12.8846 41.3042 12.8171 41.3689 12.7661C41.4334 12.715 41.5106 12.6823 41.5921 12.6714C41.6434 12.6704 41.6942 12.6831 41.739 12.7082L41.6563 12.8879C41.6242 12.8695 41.5877 12.86 41.5507 12.8602C41.3947 12.8602 41.2202 13.0445 41.1375 13.4498L41.0228 13.9887H40.83L41.1054 12.7036Z" fill="#092327"/>
<path d="M41.8069 13.7629C41.8944 13.8156 41.9942 13.8443 42.0962 13.8458C42.2339 13.8458 42.3624 13.7813 42.3624 13.6432C42.3624 13.4037 41.9538 13.3806 41.9538 13.0398C41.9534 12.9868 41.9642 12.9343 41.9857 12.886C42.0073 12.8377 42.039 12.7945 42.0786 12.7595C42.1183 12.7246 42.165 12.6986 42.2155 12.6833C42.2661 12.6681 42.3193 12.664 42.3716 12.6713C42.4734 12.669 42.5747 12.6862 42.6701 12.722L42.6425 12.8878C42.5606 12.8555 42.4735 12.8383 42.3854 12.8371C42.2568 12.8371 42.1512 12.8923 42.1512 13.026C42.1512 13.2655 42.5599 13.2839 42.5599 13.6386C42.5599 13.8781 42.3624 14.0162 42.1008 14.0162C41.9727 14.0177 41.8469 13.9826 41.738 13.9149L41.8069 13.7629Z" fill="#092327"/>
<path d="M43.1576 12.0679H43.3504L43.2264 12.6713C43.2264 12.7496 43.1897 12.8279 43.1622 12.9154C43.2062 12.8453 43.2663 12.7865 43.3373 12.7441C43.4083 12.7016 43.4883 12.6767 43.5708 12.6713C43.782 12.6713 43.9427 12.8233 43.9427 13.1319C43.9522 13.2491 43.9374 13.367 43.8993 13.4782C43.8612 13.5894 43.8005 13.6914 43.7212 13.7779C43.6418 13.8644 43.5455 13.9336 43.4382 13.9809C43.331 14.0283 43.2151 14.0529 43.0979 14.0531C42.9825 14.0525 42.8679 14.0338 42.7582 13.9978L43.1576 12.0679ZM43.1576 13.8458C43.2444 13.8395 43.3291 13.8158 43.4065 13.7759C43.4839 13.736 43.5525 13.6809 43.6082 13.6139C43.664 13.5467 43.7056 13.4691 43.7308 13.3855C43.7559 13.3019 43.7639 13.2141 43.7545 13.1273C43.7545 12.9983 43.6994 12.8463 43.5341 12.8463C43.4831 12.8498 43.4333 12.8634 43.3875 12.8863C43.3418 12.9093 43.3011 12.9411 43.2678 12.9799C43.1728 13.0951 43.1094 13.2333 43.0841 13.3806L42.9923 13.8412C43.0471 13.8492 43.1025 13.8507 43.1576 13.8458Z" fill="#092327"/>
<path d="M44.1488 13.5281C44.1373 13.4271 44.1457 13.3248 44.1737 13.227C44.2016 13.1292 44.2484 13.038 44.3116 12.9584C44.3746 12.8789 44.4528 12.8126 44.5414 12.7633C44.6301 12.7141 44.7275 12.6828 44.8282 12.6713C44.891 12.6713 44.953 12.684 45.0105 12.7089C45.0681 12.7337 45.12 12.7701 45.163 12.8159C45.2061 12.8616 45.2393 12.9157 45.2606 12.9748C45.282 13.0339 45.2911 13.0969 45.2874 13.1596C45.2988 13.261 45.2903 13.3636 45.262 13.4617C45.2338 13.5597 45.1866 13.6511 45.123 13.7307C45.0594 13.8103 44.9808 13.8766 44.8915 13.9256C44.8024 13.9746 44.7044 14.0054 44.6033 14.0163C44.541 14.0158 44.4795 14.0026 44.4224 13.9775C44.3654 13.9523 44.3141 13.9158 44.2715 13.8701C44.229 13.8245 44.1962 13.7706 44.1751 13.7117C44.1539 13.6529 44.145 13.5905 44.1488 13.5281ZM45.1037 13.1734C45.1037 12.9753 45.0211 12.8418 44.8236 12.8418C44.5299 12.8418 44.3645 13.1734 44.3645 13.5143C44.3645 13.7123 44.4472 13.8459 44.6446 13.8459C44.9247 13.8459 45.1037 13.5143 45.1037 13.1734Z" fill="#092327"/>
<path d="M45.5122 13.7031C45.5135 13.6192 45.5243 13.5358 45.5444 13.4544L45.7004 12.7036H45.9116L45.7509 13.4682C45.7355 13.5316 45.7263 13.5964 45.7234 13.6616C45.7234 13.7906 45.7969 13.8413 45.8841 13.8413C46.1182 13.8413 46.2927 13.6018 46.3432 13.3807L46.481 12.722H46.6783L46.5177 13.4728C46.4923 13.5864 46.4769 13.702 46.4717 13.8183C46.4644 13.8733 46.4644 13.9291 46.4717 13.984L46.3065 14.0209C46.2808 13.9375 46.2699 13.8501 46.2744 13.763C46.2233 13.8401 46.1554 13.9047 46.0759 13.9518C45.9964 13.9988 45.9072 14.0272 45.8152 14.0347C45.7719 14.0391 45.7282 14.0332 45.6875 14.0176C45.6468 14.0021 45.6103 13.9772 45.581 13.945C45.5516 13.9128 45.53 13.8742 45.5181 13.8322C45.5061 13.7902 45.5041 13.746 45.5122 13.7031Z" fill="#092327"/>
<path d="M47.0273 12.7035H47.1926L47.1513 12.9614C47.1778 12.8825 47.2266 12.8129 47.2918 12.7614C47.3571 12.7099 47.4359 12.6785 47.5186 12.6712C47.5686 12.6696 47.618 12.6824 47.6609 12.7081L47.5783 12.8877C47.5477 12.8695 47.5128 12.86 47.4773 12.8601C47.3166 12.8601 47.1467 13.0443 47.0595 13.4496L46.9493 13.9886H46.7518L47.0273 12.7035Z" fill="#092327"/>
<path d="M47.5835 14.3662C47.6784 14.4262 47.7881 14.4581 47.9003 14.4583C48.1619 14.4583 48.2813 14.311 48.3594 13.9977L48.4052 13.7813C48.3594 13.8468 48.2991 13.9008 48.2291 13.9392C48.159 13.9776 48.081 13.9992 48.0013 14.0023C47.7854 14.0023 47.6385 13.8596 47.6385 13.5694C47.6244 13.4554 47.6342 13.3398 47.6674 13.2299C47.7007 13.12 47.7565 13.0184 47.8314 12.9315C47.9063 12.8447 47.9985 12.7746 48.1021 12.7258C48.2057 12.677 48.3183 12.6505 48.4328 12.6482C48.566 12.6478 48.6981 12.6711 48.823 12.7173L48.5476 14.0346C48.5441 14.1145 48.5247 14.1929 48.4906 14.2652C48.4563 14.3374 48.4081 14.402 48.3486 14.4553C48.2892 14.5085 48.2196 14.5493 48.1442 14.5751C48.0688 14.601 47.9889 14.6113 47.9094 14.6057C47.7763 14.6064 47.6451 14.5732 47.5283 14.5091L47.5835 14.3662ZM48.5017 13.27L48.5843 12.8693C48.5221 12.849 48.4569 12.8397 48.3915 12.8416C48.3081 12.8502 48.2272 12.8753 48.1536 12.9155C48.0799 12.9557 48.0149 13.0102 47.9624 13.0757C47.9099 13.1412 47.8709 13.2166 47.8476 13.2974C47.8243 13.3782 47.8172 13.4628 47.8268 13.5463C47.8268 13.7076 47.8773 13.8457 48.0288 13.8457C48.1803 13.8457 48.4052 13.726 48.5017 13.27Z" fill="#092327"/>
<path d="M29.2867 13.3575C29.2861 13.3353 29.2899 13.3133 29.2979 13.2927C29.3059 13.272 29.318 13.2532 29.3334 13.2373C29.3488 13.2214 29.3673 13.2088 29.3876 13.2002C29.408 13.1915 29.4299 13.1871 29.452 13.1871C29.4691 13.1851 29.4866 13.1868 29.503 13.1922C29.5194 13.1976 29.5345 13.2066 29.5472 13.2184C29.5598 13.2302 29.5698 13.2446 29.5764 13.2608C29.5829 13.2768 29.5858 13.2942 29.5851 13.3115C29.5851 13.3559 29.5678 13.3986 29.5369 13.4304C29.5061 13.4622 29.4641 13.4807 29.4198 13.4819C29.4028 13.4832 29.3856 13.4809 29.3695 13.4752C29.3535 13.4695 29.3386 13.4606 29.3262 13.4489C29.3136 13.4372 29.3037 13.4231 29.2969 13.4074C29.2901 13.3916 29.2866 13.3747 29.2867 13.3575Z" fill="#092327"/>
<path d="M21.7123 58.5892C21.299 58.9347 20.5553 58.9439 20.0411 59.188C20.0411 59.0038 20.0411 58.7781 19.8023 58.8333C19.5131 59.4137 18.4801 59.2525 18.1311 59.7868C18.4342 60.4224 18.9254 59.8743 19.5681 59.9019C19.7932 60.275 19.8345 60.8232 20.2798 60.9798C20.3716 60.5744 20.2247 60.0908 20.6379 59.7868C21.0511 59.9526 21.3955 59.4506 21.5883 59.7868C21.4506 60.4823 21.042 60.0816 20.5232 60.0217C20.4497 60.6113 20.6746 60.9014 21.1154 60.9798C21.5562 61.0581 21.547 60.6204 21.9464 60.6204C22.4055 61.0811 22.5984 61.795 23.3743 61.9286C22.6397 60.9982 22.8601 59.1051 21.7123 58.5892ZM68.3358 32.5419C67.3166 32.7584 66.9585 32.4913 66.6417 33.1729C67.4727 33.9468 67.8078 34.5548 67.762 35.5635C67.7493 35.7338 67.7122 35.9013 67.6518 36.0609C67.754 35.9165 67.8417 35.7623 67.9134 35.6004C68.1798 35.0384 68.8317 33.523 68.4323 32.4959L68.3358 32.5419ZM61.449 43.8084L63.0927 43.2648L63.9191 43.6425C63.402 43.812 62.8701 43.9323 62.3306 44.0018C62.3306 44.0018 61.922 44.6697 61.8714 44.6098C61.6669 44.9431 61.5122 45.3047 61.4123 45.683C61.2746 46.2127 62.202 47.7558 62.1929 48.2947C62.1549 48.6458 62.0683 48.99 61.9357 49.3172C61.5409 50.7221 60.7236 53.1955 59.5529 54.2963C59.2775 54.5589 58.8045 54.8261 58.6025 55.2498C58.2949 55.8947 58.6852 57.1475 57.8817 57.516C57.4868 56.3414 57.62 56.2723 57.4225 55.2129C57.8508 55.147 58.2434 54.9352 58.5343 54.613C58.8253 54.291 58.9969 53.8783 59.0203 53.4443C58.9346 53.3316 58.8426 53.224 58.7448 53.1218C58.6117 54.043 57.7394 54.2549 57.0829 54.6694C56.9543 54.1167 56.4814 53.9233 56.0085 53.7114C55.5494 52.5599 56.5962 52.371 56.9634 51.6893C57.3537 51.7308 57.4823 52.044 57.6751 52.2835C57.4639 52.8684 56.5962 52.7994 56.6099 53.5917C57.1746 53.9693 57.3858 52.5783 58.1525 53.131C58.3224 52.6704 57.9965 52.3664 58.272 51.9334C58.7678 52.1039 59.1902 52.8547 59.9386 52.3941C60.3977 51.6203 59.7044 51.1504 60.3977 50.6069C60.0442 50.3259 60.0533 49.6857 59.6814 49.4139C59.002 49.3172 58.9882 50.1371 58.3776 49.7686C58.4234 49.2389 58.9468 49.1883 59.2682 48.9257L58.4005 48.8244C58.1158 48.7922 57.8266 48.7691 57.542 48.7414C57.7164 49.2666 57.9414 49.6627 58.1342 50.2292C57.597 50.5056 57.721 50.5885 57.9001 51.1827C57.441 51.1827 57.441 51.3439 56.8211 51.4222C56.8211 51.0353 57.0369 50.9155 56.9451 50.4687C56.8533 50.0219 55.9534 50.7497 56.1095 50.2292C56.1095 49.7686 56.6191 49.7686 56.9451 49.6304C56.9408 49.5508 56.9183 49.4733 56.8791 49.4039C56.84 49.3346 56.7853 49.2752 56.7195 49.2306C56.6537 49.186 56.5784 49.1573 56.4997 49.1467C56.4209 49.1362 56.3408 49.1441 56.2656 49.1698L57.1333 46.7608L59.3692 45.7475L60.338 45.3238C60.5263 45.099 60.6952 44.8586 60.843 44.6052L61.449 43.8084ZM59.8834 46.7977C59.7895 46.72 59.6773 46.6678 59.5576 46.646C59.4378 46.6242 59.3145 46.6336 59.1994 46.6733C58.7078 46.948 58.2353 47.2557 57.7853 47.5946C57.4685 47.8433 57.5924 48.0874 57.9459 48.0828C58.2995 48.0782 58.6301 48.0828 58.9744 48.0828C59.5299 48.0828 60.2737 47.9169 60.4757 47.4656C60.5026 47.378 60.5062 47.2849 60.4861 47.1955C60.466 47.1061 60.423 47.0236 60.3613 46.956C60.2995 46.8885 60.2212 46.8384 60.1342 46.8106C60.0471 46.7828 59.9544 46.7784 59.8651 46.7977H59.8834ZM16.4737 58.5892C16.616 58.9439 17.0155 59.0498 16.7079 59.5473C17.0109 59.6486 17.167 59.8743 17.5389 59.9019C17.392 59.3814 17.5113 59.3723 17.6628 58.9485C17.3069 58.7214 16.8954 58.5971 16.4737 58.5892ZM38.8145 33.9145C38.8181 33.9225 38.8248 33.9286 38.8329 33.9317C38.8411 33.9347 38.8501 33.9344 38.8581 33.9307C38.866 33.927 38.8721 33.9203 38.8752 33.9121C38.8781 33.9039 38.8778 33.8949 38.8742 33.8869C38.8381 33.7135 38.7746 33.5472 38.6859 33.3941C38.5436 33.1499 38.7732 32.7262 38.842 32.3899C38.7299 32.3756 38.6161 32.392 38.5126 32.4374C38.4092 32.4828 38.3199 32.5556 38.2543 32.6479C38.1866 32.708 38.1347 32.7841 38.1034 32.8693C38.0722 32.9545 38.0625 33.0462 38.0753 33.1362C38.135 33.5829 38.5666 33.5967 38.8145 33.9145ZM22.0658 58.1148C22.1381 58.3981 22.2719 58.6617 22.4577 58.8871C22.6434 59.1124 22.8764 59.2938 23.1401 59.4183C23.411 59.2939 23.388 58.8656 23.3743 58.4602C22.5616 58.8472 22.2678 57.5759 22.0658 58.1148ZM18.852 56.9218C18.5352 56.8389 18.6224 57.1705 18.4938 57.2811C18.2597 57.0002 17.8648 56.8758 17.6628 56.5625C17.6903 55.7519 18.6086 55.8394 18.7325 55.1301C18.2092 54.8123 17.9062 55.7334 17.447 55.8486C17.344 55.7141 17.2715 55.5586 17.2345 55.3931C17.1976 55.2276 17.1971 55.0559 17.2331 54.8901C17.2691 54.7244 17.3408 54.5685 17.4431 54.4334C17.5454 54.2984 17.6758 54.1873 17.8254 54.108C17.9749 54.0288 18.1398 53.9832 18.3087 53.9746C18.4776 53.966 18.6464 53.9944 18.8031 54.058C18.9599 54.1215 19.1009 54.2186 19.2165 54.3426C19.3319 54.4664 19.4191 54.6142 19.4718 54.7754C19.109 55.8118 20.1742 57.1659 20.3028 58.4602C19.6279 58.5616 19.1412 58.9208 18.3975 59.0637C17.8602 58.6399 17.1027 58.4464 17.0935 57.5068C17.9062 58.2253 19.8942 58.3912 18.852 56.9218ZM18.852 56.0882C18.7302 56.0882 18.6134 56.1367 18.5273 56.223C18.4412 56.3094 18.3928 56.4265 18.3928 56.5487C18.5146 56.5487 18.6314 56.5002 18.7174 56.4138C18.8036 56.3274 18.852 56.2103 18.852 56.0882ZM37.3636 45.4159C37.7493 45.1073 38.8007 44.1308 38.8053 44.1262C39.5077 43.5827 38.8925 40.5427 38.8053 40.3216C37.7998 41.3487 37.3774 44.7158 37.3636 45.4159ZM24.9261 57.516C24.5864 57.3042 24.3201 57.0093 23.9666 56.8021C23.8472 57.4239 24.568 58.1286 24.9261 57.516ZM50.1777 63.7203C49.0896 64.1119 47.9464 63.5868 47.6709 62.7669C46.4955 62.9465 47.0419 64.8397 46.0089 65.1574C46.2111 64.1471 46.4858 63.1527 46.8307 62.1819C46.7526 61.7213 46.2798 62.1819 46.119 61.9424C46.3165 60.3164 45.4992 59.7039 45.1687 58.603C45.9859 58.9393 46.0226 58.7366 46.7159 58.9623C47.0373 58.6906 47.0189 58.0687 47.6663 58.1286C47.6066 58.8656 47.1337 59.1834 46.9501 59.8006C46.6424 59.6717 46.5552 59.34 46.2385 59.2018C46.1282 59.4413 46.5828 60.123 46.8307 60.3948C47.2301 60.0723 47.2164 59.3446 47.9097 59.3216C47.8552 59.2097 47.8269 59.0868 47.8269 58.9623C47.8269 58.8378 47.8552 58.7149 47.9097 58.603C49.3834 57.6818 50.9674 59.7545 50.8801 61.1133C50.8297 61.924 50.2374 62.0345 50.1731 63.0203H49.691C49.5854 63.4993 50.2511 63.2322 50.1639 63.7203H50.1777ZM47.7902 60.1414C48.355 60.0678 48.6029 59.6808 48.9794 59.4275C49.0666 59.5611 49.2319 59.6163 49.3467 59.7223C49.4709 59.6599 49.5998 59.6075 49.7323 59.5657C49.3467 59.0683 48.7085 58.8932 47.8958 59.4275C47.9831 59.7868 47.6938 59.7776 47.7765 60.1414H47.7902ZM49.815 62.1682C50.0325 61.7883 50.1469 61.3579 50.1469 60.9199C50.1469 60.4818 50.0325 60.0514 49.815 59.6717C49.7263 59.8263 49.6953 60.0075 49.7277 60.1829C49.5533 60.252 49.4523 60.3994 49.1585 60.3441C49.1837 60.3237 49.2027 60.2966 49.2135 60.2658C48.8294 60.6016 48.5811 61.067 48.5156 61.5739C47.8545 61.7628 48.4652 60.6527 47.9234 60.7402C47.2944 61.0995 48.0703 61.9839 48.3825 62.1682C48.8692 61.7812 49.1263 62.1819 49.8012 62.1819L49.815 62.1682ZM39.0486 35.628C39.1542 34.9325 38.7961 34.7068 38.2268 34.6607C38.0247 34.9233 37.7264 35.5128 37.9743 35.8537C38.3168 35.7172 38.6803 35.6409 39.0486 35.628ZM37.4188 29.0643C37.4252 28.9098 37.4421 28.756 37.4692 28.6038C37.4692 28.4563 37.506 28.3089 37.5335 28.1662C37.5335 28.1662 37.5335 28.1662 37.5014 28.1385C37.3425 28.227 37.1643 28.2745 36.9825 28.2767C37.3045 27.853 37.55 27.376 37.708 26.8673C37.422 27.3182 37.0451 27.7042 36.6015 28.0004C36.7876 28.4433 37.0332 28.8586 37.3315 29.2348C37.3664 29.1812 37.3957 29.1241 37.4188 29.0643ZM23.6681 23.4449C23.0118 23.5313 22.4112 23.8597 21.9832 24.3662C21.85 24.5504 21.726 24.7393 21.6158 24.9235C21.5221 25.2751 21.5221 25.6452 21.6158 25.9967C22.0015 24.4123 23.007 23.8964 23.6681 23.4449ZM24.0033 51.2333C23.2916 50.091 21.7903 49.0639 21.0511 47.4794C21.0511 47.4794 20.7435 46.5582 20.5507 45.964C20.4772 45.7475 20.3624 45.7475 20.188 45.8443C19.965 45.9869 19.8017 46.2064 19.7289 46.4614V46.4891C19.6958 46.6004 19.6728 46.7145 19.66 46.8299C19.6554 46.8805 19.6554 46.9314 19.66 46.9819C19.6462 47.1475 19.6462 47.3138 19.66 47.4794C19.66 47.4794 19.7243 47.94 19.7747 48.1427C19.7728 48.1626 19.7728 48.1827 19.7747 48.2025C19.7747 48.2025 20.693 49.8377 21.4919 50.2799C21.5664 50.7669 21.7721 51.2244 22.0869 51.6027C22.4016 51.981 22.8135 52.2658 23.2779 52.4263C23.6681 51.9657 23.0758 51.74 23.0345 51.3484C23.2549 51.3669 24.0308 51.74 24.0033 51.2333ZM24.1732 32.8091C23.9666 32.3485 23.2549 32.3853 22.9427 32.7308C23.0345 32.8413 23.2457 32.7308 23.3743 32.7723C23.5763 32.8183 23.8334 32.7723 24.0124 32.9243C24.0312 32.9391 24.0544 32.9471 24.0783 32.9471C24.1022 32.947 24.1253 32.9388 24.1439 32.9238C24.1625 32.9089 24.1757 32.8881 24.1809 32.8647C24.1862 32.8413 24.1835 32.8169 24.1732 32.7953V32.8091ZM70.0851 28.2767C70.4891 29.0598 71.1183 30.3494 69.7637 31.0772C70.0851 30.2021 70.0024 29.1703 69.1898 28.6637C70.108 27.7701 71.2189 25.0387 69.7269 23.8825C68.0971 24.099 66.7978 23.3805 65.5949 23.468C65.1358 23.4957 64.6767 23.5048 64.2176 23.5647C63.5013 23.6661 61.573 24.3247 60.8568 25.3381C61.2792 25.1492 61.8531 25.1124 62.28 24.9282C62.6887 24.8222 63.5564 24.4445 63.5977 24.4307C64.516 24.2096 64.9751 24.5136 65.7648 24.4307C65.6546 24.6932 65.448 24.836 65.5123 25.2689C65.9714 25.2459 65.7326 24.5274 66.2423 24.5597C65.8336 25.5407 65.4939 26.5955 64.5435 26.5771C63.7676 26.5771 63.5564 25.4118 62.7667 25.596C62.6014 26.7153 62.6749 27.268 63.2258 27.899C64.19 27.724 64.7593 27.3785 65.8566 27.6825C65.6596 27.919 65.5241 28.2007 65.4618 28.5024C67.1146 27.7517 68.368 26.8857 68.9741 25.8033C69.0985 26.0706 69.1345 26.3707 69.0767 26.66C69.0188 26.9493 68.8702 27.2123 68.6526 27.4108C68.1935 27.9451 67.84 28.1017 67.3075 28.7005C66.8483 29.2164 65.9025 30.0408 66.4213 30.8054C65.6583 30.9096 64.9268 31.1783 64.2772 31.5931C63.988 31.4825 64.1579 30.9206 63.6896 30.9851C63.7355 31.9063 62.7484 32.3347 63.0743 33.1315C63.763 33.1638 63.9054 32.7492 64.5022 32.7907C65.0119 32.832 65.5029 33.0016 65.9301 33.2835C66.1183 33.4539 65.9576 33.8408 66.1642 34.1264C66.6233 34.7759 67.1054 34.5042 67.2247 34.9739C67.4038 35.6694 66.986 37.019 66.1367 36.8808C65.875 36.8394 65.4985 36.7887 65.6776 36.2774C65.2735 36.2774 65.0807 36.4709 64.5986 36.3834C64.0752 35.8767 63.7768 35.1352 62.8219 35.0477C63.1436 35.8457 63.2573 36.7128 63.1524 37.5672C62.9642 38.2581 61.5592 37.7053 61.4629 38.4884C61.9518 38.7556 62.3583 39.1523 62.6381 39.6353C62.7477 39.8842 62.8322 40.1434 62.8907 40.4091C62.9618 40.6907 62.9988 40.9799 63.0009 41.2704C62.9778 41.4724 62.9087 41.6662 62.7989 41.8369C62.6978 41.9291 62.5647 41.8923 62.4637 41.7633C62.3365 41.59 62.1675 41.4521 61.9724 41.3625C61.8255 41.2934 61.6281 41.4408 61.7337 41.6021C61.8016 41.7258 61.8584 41.8553 61.9036 41.9889C62.0734 42.4864 61.5225 42.5003 61.068 42.5555C60.6089 43.555 60.1222 45.1533 59.0157 44.9277C58.9232 44.8894 58.8404 44.8313 58.7729 44.7572C58.7054 44.6832 58.6551 44.5951 58.6255 44.4993C59.7366 43.8728 58.5199 42.1686 59.4198 41.4593C60.035 41.4178 60.765 41.3809 60.9715 40.6348C60.4528 40.0774 60.3793 39.0825 59.5575 38.8246C59.3738 39.9301 59.4198 41.2566 58.5704 41.6896C57.4364 41.3027 57.3997 39.8472 56.8074 38.9259C57.7256 37.4428 56.3482 36.1623 57.216 34.8588C57.3622 35.0227 57.55 35.144 57.7593 35.2096C57.9686 35.2753 58.1917 35.283 58.4051 35.2319C58.4051 34.6653 58.0286 34.4995 58.0654 33.9145C58.676 33.5507 59.732 34.283 60.2048 33.6981C60.4068 33.0717 59.5804 33.0163 60.1085 32.2563C59.7778 31.9109 59.3233 32.6755 58.9101 32.2563C58.6898 31.2891 59.888 30.9022 59.057 30.3448C58.6806 30.4093 58.8964 30.9805 58.7127 31.2661C57.5787 31.1969 57.3354 34.0297 56.385 34.1725C56.1998 34.1877 56.0137 34.1573 55.8428 34.0842C55.672 34.0109 55.5214 33.897 55.4043 33.7523C55.2872 33.6076 55.207 33.4364 55.1707 33.2536C55.1344 33.0708 55.143 32.8819 55.1958 32.7032C55.655 33.0763 56.0636 32.7953 56.4952 33.196C56.5824 30.8607 57.9873 29.8843 59.4106 28.9169C58.0608 28.5208 56.9497 29.3776 56.2886 30.0823C56.1873 29.9949 56.0669 29.9328 55.9371 29.9012C55.8073 29.8695 55.6719 29.8691 55.5419 29.9002C55.412 29.9312 55.2912 29.9927 55.1896 30.0796C55.088 30.1665 55.0082 30.2764 54.9571 30.4002C54.6449 31.0173 54.8423 32.3393 53.7634 32.3254C53.9166 31.7007 53.9677 31.0552 53.9149 30.4139C53.8558 29.8923 53.668 29.3936 53.3686 28.963C53.6528 29.0015 53.9246 29.1044 54.1633 29.264C54.402 29.4237 54.6012 29.6357 54.7459 29.8843C54.7734 28.5024 55.9672 27.6642 56.8441 27.291C57.6435 27.0249 58.3741 26.5845 58.9836 26.0013C57.7394 26.1027 57.1471 26.4251 55.981 27.0653C55.7192 27.2082 55.4943 27.3463 55.2923 27.4707C56.456 26.5879 57.762 25.9117 59.1534 25.4717C61.9081 24.5274 62.8907 22.9061 65.8887 23.012C67.1789 23.0581 70.9709 21.5657 71.2877 25.2598C71.3663 26.2777 70.7049 27.3878 70.0897 28.2629L70.0851 28.2767ZM61.3619 38.1613C60.9027 37.2033 61.2241 36.9407 61.1414 36.0011C60.361 35.9643 59.5988 35.9458 59.2315 36.3373C59.1351 36.7104 59.5483 36.5723 59.4656 36.9407C59.1204 37.081 58.8165 37.3073 58.5827 37.5983C58.3489 37.8893 58.1929 38.2353 58.1297 38.6035C58.7678 38.7693 58.5061 38.0232 58.8504 37.8896C59.8697 37.6363 60.6502 37.6363 61.3434 38.1475L61.3619 38.1613ZM60.3977 27.4937C60.6961 27.7102 60.6043 28.3136 61.1047 28.3366C61.2608 27.6779 61.7245 26.7153 61.6006 26.1856C61.1598 26.5863 60.6364 26.8949 60.3793 27.4799L60.3977 27.4937ZM24.1732 34.4028C24.1732 34.3291 24.0813 34.1172 23.6681 34.0297C23.3167 33.9191 22.9553 33.8434 22.5892 33.804C22.5892 33.804 22.5616 33.8454 22.5892 33.8593C22.7215 34.0036 22.8765 34.125 23.0483 34.2185C23.2733 34.3522 23.5625 34.4534 23.5625 34.4673C23.469 34.7467 23.2888 34.9888 23.0483 35.1582C22.8369 35.3107 22.6178 35.4522 22.3918 35.5819C22.3306 35.7846 22.3306 36.001 22.3918 36.2038C22.5708 37.2862 23.0208 38.1752 24.0905 38.6404C24.4348 38.2443 23.4523 37.2263 23.6314 36.6367C23.964 35.9353 24.1425 35.1703 24.1547 34.3936L24.1732 34.4028ZM38.1075 37.5257C38.7364 37.4612 38.9614 36.4525 38.5666 36.0978C37.7998 36.7381 37.5381 37.5856 38.1075 37.5257ZM2.53943 23.491C3.91679 23.62 4.9544 23.2976 5.83132 23.1778C3.88465 22.6712 1.54773 22.1092 1.27685 23.1409C1.12341 23.9161 1.20993 24.7197 1.52478 25.444C1.46171 25.0522 1.52641 24.6506 1.70923 24.2987C1.89205 23.9468 2.18322 23.6635 2.53943 23.491ZM19.2284 36.9684C19.1458 37.9955 18.3423 39.0181 19.2009 39.8379C18.7418 39.8748 18.122 39.4787 17.998 39.5892C17.5389 39.428 17.9704 38.4377 17.1808 38.6219C16.864 38.7509 17.3368 39.0825 17.4103 39.2207C17.3736 39.6307 16.7767 39.4557 16.6895 39.8103C16.2303 41.8185 18.5259 42.8088 16.9971 44.1308C16.2396 43.0944 16.1569 41.3948 15.6198 40.1604C14.7015 40.3308 14.5133 41.2888 13.8063 41.6942C13.9807 43.0299 14.1735 44.3381 14.9632 45.0658C14.5041 46.1805 13.168 44.6559 12.4519 45.7567C12.484 46.2957 13.1451 46.2173 13.7144 46.2173C13.8392 46.225 13.9634 46.2404 14.0863 46.2634C14.4352 46.4753 14.1827 47.2767 14.6786 47.3458C15.4407 47.4011 15.7254 46.9727 16.1156 46.6503C16.3727 47.1109 16.74 47.4748 16.8043 48.1288C17.2784 48.1217 17.7338 47.9416 18.0852 47.6222C18.6749 46.9931 19.0946 46.2231 19.3043 45.3856C19.5141 44.548 19.5069 43.6705 19.2835 42.8365C18.9851 42.4957 18.7968 43.2971 18.3286 43.1819C18.4066 42.1364 19.0586 41.6758 19.5452 41.0402C19.2835 38.7878 21.2761 37.7698 20.4359 35.6648C19.458 35.628 19.2192 34.8772 18.4158 34.6838C18.6637 35.4069 19.2835 35.8675 19.2284 36.9684ZM1.42836 28.0971C1.28178 28.4621 1.24717 28.8627 1.32896 29.2476C1.41076 29.6325 1.60524 29.9841 1.88748 30.2573C1.85081 30.0439 1.85081 29.8259 1.88748 29.6125C1.99308 28.9907 2.52107 28.9078 2.97559 28.4287C2.69527 28.1145 2.44617 27.7735 2.23182 27.4108C1.89932 27.5501 1.61845 27.79 1.42836 28.0971ZM36.7301 61.2607C36.473 61.5094 36.8862 61.924 37.1341 61.6661C37.1479 61.3713 36.8999 61.3437 36.7301 61.2607ZM49.3237 57.8983C49.3926 58.0549 49.5763 58.1148 49.7828 58.1332C49.9527 58.0352 50.0962 57.8972 50.2009 57.731C50.3058 57.5649 50.3687 57.3757 50.3843 57.1798C50.2281 57.1798 50.2098 57.0278 50.0216 57.0554C49.9941 57.5068 49.3558 57.3963 49.3283 57.8799L49.3237 57.8983ZM11.9009 41.4547H11.7769C11.0882 41.4547 11.2902 42.3344 10.6934 42.4082C10.4173 42.2784 10.1203 42.1988 9.81648 42.1732C9.81648 42.1732 9.91287 38.9766 10.8587 38.2212C10.835 38.1257 10.785 38.0386 10.7143 37.9702C10.6436 37.9018 10.5553 37.8547 10.4592 37.8343C10.2607 37.8153 10.0609 37.8153 9.86241 37.8343C9.71612 37.834 9.57126 37.8059 9.43539 37.7514C9.34999 37.6426 9.28471 37.5194 9.24254 37.3875C9.14467 36.8958 9.18769 36.3864 9.36657 35.9182C9.57076 35.3755 9.97984 34.9353 10.5052 34.6929C10.675 34.6054 10.6245 34.3567 10.6108 34.2047C10.597 34.0527 10.6108 34.0896 10.4317 33.9837C10.0874 33.7809 9.58231 34.3107 9.36657 34.5409C9.36572 34.5318 9.36572 34.5225 9.36657 34.5133C7.98921 35.02 7.46581 36.3558 5.64308 36.3926C5.83132 35.651 5.2161 35.7017 5.18396 35.1858C5.50993 34.7713 5.96905 34.5456 6.01497 33.827C6.43277 33.4079 7.53009 33.6888 7.92493 33.2513C7.5943 32.7907 6.85515 32.9197 6.26289 32.9979C6.03333 32.4268 5.50076 32.1597 5.32169 31.547C5.4778 31.0864 6.35471 31.395 6.52459 30.9621C6.1527 30.2389 5.28956 29.4237 5.22987 28.7926C6.08843 28.4932 6.31339 29.4421 7.01125 29.6493C7.42449 29.3315 6.35012 29.115 6.78169 28.8064C7.94329 28.9262 8.06264 29.3039 8.92581 29.7922C9.30683 30.0086 9.88076 30.3863 10.1241 30.0962C9.57317 29.5664 9.28847 28.3688 8.57683 27.9912C6.79088 28.6176 4.94522 27.4568 4.06371 26.1487C3.72145 26.208 3.36996 26.1827 3.03959 26.0752C2.70924 25.9676 2.40993 25.7811 2.16755 25.5315C2.241 25.0709 1.9839 24.2925 2.41547 24.2142C3.33371 24.5734 3.55409 25.6283 4.66515 25.7987C4.83503 25.3381 3.97647 24.9235 3.97189 24.2326C4.431 24.2004 4.28409 24.7899 4.67434 24.8406C4.71107 24.6287 4.56874 24.2372 4.92226 24.38C5.18396 24.4767 5.2161 24.8038 5.38138 24.988C4.99113 25.0294 4.78912 25.2643 4.89931 25.8171C5.76245 25.7526 5.81755 25.5177 6.45572 25.3565C6.42358 24.8683 5.9966 24.7623 6.10679 24.1589C6.45572 24.3293 6.36849 24.9282 6.81383 25.0018C7.22704 24.8544 6.35471 24.3569 6.81383 24.1682C7.43363 23.9839 7.13065 24.7163 7.52088 24.7669C7.78042 24.6337 8.05477 24.5317 8.33812 24.4629C8.38859 24.4763 8.44167 24.4765 8.4922 24.4636C8.54281 24.4507 8.58937 24.4251 8.62736 24.3892C8.82255 24.4127 9.01986 24.4127 9.21504 24.3892C9.74532 24.3943 10.2747 24.3434 10.7944 24.2372C10.8266 24.2372 10.8357 24.1682 10.7944 24.1635C10.2802 24.0852 9.78891 23.9793 9.28386 23.8872C9.07486 23.8664 8.86493 23.8573 8.65493 23.8595C8.63629 23.8362 8.61276 23.8173 8.58604 23.8043L8.36562 23.6937C14.527 23.0903 15.1928 26.9594 16.4737 28.3458C16.7549 28.6279 17.1323 28.7926 17.5297 28.8064C17.6122 28.8389 17.6965 28.8666 17.7822 28.8893C17.8235 28.8982 17.8666 28.8913 17.9031 28.87C17.9395 28.8487 17.9669 28.8145 17.9797 28.7742C18.1727 28.7318 18.3534 28.6451 18.5076 28.5208C18.6354 28.4583 18.747 28.3669 18.8336 28.2537C18.8399 28.245 18.8433 28.2345 18.8433 28.2238C18.8433 28.213 18.8399 28.2025 18.8336 28.1938L18.9484 28.1523C18.9575 28.1465 18.9649 28.1383 18.9698 28.1285C18.9746 28.1188 18.9768 28.1079 18.9759 28.0971C19.3098 27.9178 19.669 27.7904 20.0411 27.7194C19.7081 28.2442 19.2627 28.688 18.7372 29.0183C19.1106 28.8754 19.5175 28.845 19.9079 28.9308C19.46 29.256 19.1219 29.7108 18.9392 30.2343C18.8341 30.6061 18.8211 30.998 18.901 31.3761C18.981 31.7541 19.1518 32.1068 19.3983 32.4038C18.425 32.2886 17.9567 31.4825 18.0898 30.2896C17.5343 30.8745 16.8364 30.1099 16.0284 29.3683C15.9001 29.2391 15.7602 29.1219 15.6106 29.0183C14.8898 28.4057 14.0817 27.9543 13.2047 28.5163C12.9358 28.6593 12.7339 28.903 12.6428 29.1944C12.5517 29.4858 12.5787 29.8015 12.7181 30.0731C13.4802 28.9677 15.1239 29.4283 15.1285 30.5107C15.1285 32.0952 13.843 32.5972 12.5803 31.9846C12.6352 32.3313 12.5993 32.6865 12.4761 33.015C12.353 33.3437 12.1468 33.6346 11.8779 33.8593C13.1313 34.4028 13.7833 33.3249 14.6647 33.8593C15.0275 34.0849 15.3719 34.283 15.459 34.7804C15.5188 34.7483 15.5784 34.7804 15.6519 34.8818C15.5371 35.6648 15.785 36.0932 15.8677 36.6828C15.4086 36.7887 15.381 36.2222 15.0367 36.5492C15.1055 37.5442 15.7621 37.9679 15.8401 38.9582C15.4636 39.8794 13.8246 39.3497 13.2047 39.6445C13.1497 39.0457 13.9486 38.8614 13.5812 38.3364C12.3737 38.4284 12.3095 39.6905 11.7723 40.4689C12.4794 41.731 13.315 42.8365 13.4114 44.6789C12.6079 44.8954 11.9376 42.0949 11.9009 41.4547ZM12.2406 31.5194C12.2406 30.7042 11.5428 30.1376 11.6759 29.115C11.809 28.0925 12.5942 27.7056 13.1313 27.0929C12.1855 26.2317 11.5795 25.6559 10.7531 25.4763C10.0323 25.3197 8.64111 25.5638 8.59518 26.5679C9.42164 26.4482 10.5511 26.8673 10.7347 27.3094C9.81648 28.7465 10.5143 30.2389 11.4188 31.1463C11.0745 31.3306 10.4592 31.2246 10.5694 31.8557C11.102 32.132 11.5933 31.4733 12.2406 31.5056V31.5194ZM13.3655 37.0467C13.7052 37.1803 13.4435 37.9264 14.0817 37.7606C14.0184 37.3924 13.8624 37.0463 13.6286 36.7554C13.3948 36.4645 13.0909 36.2381 12.7457 36.0978C12.663 35.7293 13.0808 35.8629 12.9798 35.4944C12.6171 35.1029 11.8503 35.1213 11.0699 35.1536C10.9872 36.0748 11.2902 36.3604 10.8495 37.3138C11.5428 36.7887 12.3279 36.7887 13.3655 37.0283V37.0467ZM4.59169 34.1679C4.81207 33.5922 5.20691 33.4678 5.56503 32.9887C5.04622 32.6236 4.48307 32.3264 3.88924 32.1043C3.84333 32.5143 3.53113 33.0256 3.43012 33.7948C3.34289 34.3522 4.30704 36.4479 4.86717 36.4387H5.09672C5.03944 36.3553 4.9917 36.2656 4.9544 36.1715C4.72718 35.8971 4.57441 35.5685 4.51087 35.2175C4.44733 34.8665 4.47517 34.5049 4.59169 34.1679ZM55.2923 53.2232C56.1463 52.5507 55.8983 51.7169 55.5586 50.8234C55.0994 51.284 53.5292 52.9514 53.5292 53.0619C53.1001 53.5516 52.64 54.0132 52.1519 54.4438C52.8635 54.0983 53.5614 53.7528 54.2501 53.4627C54.2776 53.9233 53.8185 53.9233 53.892 54.4161C54.3511 54.2963 54.723 54.1352 54.723 53.5732C54.8194 53.0849 54.1536 53.3521 54.2638 52.8593C54.4718 52.6046 54.7692 52.4397 55.0948 52.3987C55.127 52.6612 54.8286 53.3199 55.2739 53.2232H55.2923ZM16.3222 55.1992C16.2603 55.8045 16.1637 56.4059 16.033 57.0002C16.0025 57.1754 15.958 57.3479 15.8998 57.516H15.8768C15.0734 57.1522 15.4636 55.8993 15.1606 55.2544C14.9541 54.8307 14.4811 54.5635 14.2056 54.3009C13.0349 53.2001 13.2277 51.4406 12.8283 50.0404C12.6584 49.5798 13.2232 48.7691 13.2232 48.5757C13.2232 48.244 11.8917 47.2675 12.1304 46.6503C12.4813 46.8966 12.8479 47.1197 13.2277 47.3182C13.2271 47.3771 13.2396 47.4353 13.2645 47.4886C13.4619 47.9492 14.2057 48.092 14.7612 48.1058H15.1514C15.7656 48.2868 16.3961 48.4056 17.0338 48.4604C18.6912 48.5941 18.5398 47.4472 20.2477 50.3766C20.4221 51.4728 21.1659 52.8132 20.0594 51.2978H19.9768L20.3257 53.8358C20.0548 53.7068 19.784 53.5824 19.5177 53.4719C19.4901 53.9324 19.9446 53.9324 19.8712 54.4253C19.4121 54.3056 19.0402 54.1444 19.0402 53.5824C18.9437 53.0942 19.6095 53.3613 19.4993 52.8684C19.2898 52.6157 18.9931 52.4512 18.6683 52.4079C18.5765 52.6797 18.8795 53.3291 18.4296 53.2416C17.3598 52.3987 18.021 51.2978 18.4296 50.1371C18.402 49.5522 16.9742 48.5618 16.7584 49.6765C17.0843 49.8331 17.5986 49.7917 17.594 50.2753C17.7501 50.7958 16.8869 50.0588 16.7584 50.5148C16.6298 50.9708 16.9053 51.0813 16.8823 51.4683C16.2809 51.3899 16.2855 51.2472 15.8034 51.2287C15.987 50.6345 16.1064 50.5517 15.5692 50.2753C15.7621 49.7133 15.987 49.3126 16.1615 48.7875C15.8768 48.8152 15.5876 48.8382 15.303 48.8704L14.4398 48.9533C14.7612 49.2159 15.2892 49.2666 15.3305 49.7963C14.7199 50.1647 14.7107 49.3357 14.0266 49.4416C13.6731 49.6903 13.6639 50.2799 13.3655 50.5793C13.3655 50.6115 13.3655 50.6392 13.3655 50.6668C14.0082 51.1964 13.3655 51.6663 13.8246 52.4217C14.5546 52.8823 14.9908 52.1131 15.4866 51.9611C15.7621 52.3941 15.4361 52.7164 15.6059 53.1587C16.3727 52.6152 16.5839 54.0062 17.1486 53.6193C17.1486 52.827 16.2946 52.8962 16.088 52.3112C16.2809 52.0717 16.4048 51.7584 16.7951 51.7169C17.1624 52.3941 18.1724 52.5875 17.7501 53.739C17.291 53.9509 16.8043 54.1443 16.6757 54.6971C16.0237 54.2825 15.1514 54.0799 15.0137 53.1494C14.9494 53.2278 14.8759 53.2968 14.8117 53.3752C14.7975 53.5499 14.7975 53.7255 14.8117 53.9002C14.9112 54.2369 15.1045 54.538 15.3689 54.7682C15.6332 54.9982 15.9576 55.1478 16.3038 55.1992H16.3222ZM18.4479 49.5244C18.6044 49.8253 18.8685 50.0556 19.1871 50.1693C19.1871 49.5245 19.1275 48.8382 18.6499 48.571C18.5574 48.8841 18.4838 49.2025 18.4296 49.5244H18.4479ZM44.7003 63.4808C44.7003 63.7894 44.9208 63.9 45.0585 64.0797C44.8702 64.9272 43.9199 65.0008 43.0384 65.1574C43.2403 65.6964 44.2183 65.4799 44.2229 66.2261C43.6628 66.4702 42.4875 66.4057 42.1982 65.9865C41.6886 66.4472 40.0633 66.5623 39.5858 65.9865C39.3629 66.1474 39.1003 66.2436 38.8266 66.2647C38.5529 66.2858 38.2787 66.231 38.034 66.1063C38.112 65.7056 38.461 65.5766 38.4931 65.1574C38.2773 64.6968 38.2452 64.052 37.5427 64.0797C37.4738 64.6232 38.0019 64.5817 37.9008 65.1574C37.056 65.1298 36.854 64.4482 36.2297 64.1994C36.28 63.7693 36.438 63.3589 36.6888 63.0064C37.0606 62.9512 37.001 63.3288 37.2856 63.3657C37.2976 63.2525 37.3328 63.1431 37.389 63.0443C37.4452 62.9454 37.5213 62.8593 37.6122 62.7914C37.7032 62.7235 37.8072 62.6752 37.9177 62.6496C38.0283 62.6239 38.1429 62.6216 38.2543 62.6425V63.1032C39.0991 62.6103 39.0211 61.3114 38.4931 60.6021C38.6859 60.6021 38.9522 60.5422 38.9522 60.7218C39.2323 60.4454 38.3232 60.2198 38.7134 59.7683C39.1725 59.6808 39.2231 59.971 39.6638 59.8835C39.9393 59.9249 39.797 59.5427 40.022 59.5288C40.0908 59.1097 39.5996 59.2341 39.6638 58.8149C40.022 58.5293 40.3617 59.1926 40.853 58.8149C39.7511 60.2336 38.9338 63.2183 40.7336 64.5357C41.2662 64.5955 41.032 63.8769 41.6886 64.075C41.6886 64.4482 41.6059 64.9548 41.8079 65.1528C42.0972 65.0792 42.0742 64.6923 42.1614 64.4343C42.5379 64.4067 43.0384 64.5126 43.2312 64.3145C43.2312 63.8769 43.0705 63.8539 43.2312 63.4762C44.1219 63.2782 45.0677 62.555 44.5443 61.3298C44.2504 62.3892 43.4102 62.8959 42.6435 63.4762C41.0917 63.4486 39.6638 61.2008 41.3304 60.3763C41.3304 60.0402 40.8713 59.8697 41.2111 59.5427C41.5003 59.5427 42.8042 59.4275 42.6435 60.2566C42.4066 60.2109 42.1613 60.2448 41.9455 60.353C41.7297 60.4613 41.5555 60.6378 41.4498 60.8554C42.0451 60.9474 42.6534 60.9065 43.2312 60.7357C43.3546 61.0696 43.3496 61.4376 43.2172 61.768C43.0848 62.0984 42.8345 62.3675 42.515 62.5228C43.2679 62.6748 43.8234 61.8227 43.7179 61.0949C43.6123 60.3672 42.8318 60.5698 42.8777 59.8973C43.3368 59.6762 43.6352 60.123 44.0714 60.2566C44.4157 60.0862 43.8097 59.5473 44.1862 59.3032C44.8932 59.4689 45.1044 60.1323 45.5038 60.6159C44.9483 61.3483 45.6416 62.9696 44.682 63.4808H44.7003ZM42.3221 61.4542C42.0926 61.4648 41.8733 61.5529 41.7 61.7043C41.5266 61.8556 41.4094 62.0613 41.3672 62.2879C41.5646 62.5274 41.6886 62.8452 42.0834 62.8867C41.7161 62.2924 42.189 61.9378 42.3037 61.4542H42.3221ZM41.4866 65.5121C41.0275 65.595 40.807 65.3969 40.4168 65.3923C40.2929 66.0971 41.3901 65.9174 41.4681 65.5121H41.4866ZM35.518 64.9133C36.2505 65.2244 36.9621 65.5829 37.6483 65.9865C37.3682 66.6498 35.9266 65.9543 35.6236 65.5259C34.8064 66.1938 33.0571 66.5715 32.4098 65.5259C32.047 65.7286 31.2436 65.9865 30.8533 65.7608C31.0141 65.1252 32.1251 65.443 32.2812 64.8074C30.7936 64.9272 29.0995 64.4988 29.4255 62.4261C30.2886 62.5089 31.3859 62.8867 31.8083 63.7342C31.4226 63.8033 31.2528 63.6513 30.9727 63.6144C31.1012 64.2132 31.891 64.204 32.4098 64.075C32.6531 64.1994 32.5154 64.7153 32.924 64.6784C32.8845 64.6415 32.8534 64.5965 32.8328 64.5464C32.8122 64.4963 32.8026 64.4424 32.8046 64.3882L32.9561 64.4159C32.924 63.7065 33.7275 63.2966 33.7136 62.1635C33.227 62.5136 32.9332 63.0525 32.2812 63.2413C31.6017 62.8498 30.9957 62.3892 30.2611 62.0438C29.9947 61.3206 30.0866 60.2382 29.3107 60.0217C29.5954 59.5979 29.8708 58.6399 30.3804 58.8287C30.4585 59.2893 30.0636 59.2893 30.1417 59.7822C30.6008 60.1046 31.1518 58.7919 31.6935 59.5427C31.9736 59.9757 31.1104 60.1046 30.9727 60.4961C31.262 60.6435 30.9085 61.4173 31.216 61.5693C31.3354 61.4772 31.216 60.708 31.4548 60.3763C31.9874 60.5514 32.8321 60.4501 33.2408 60.7357C33.3464 59.8144 32.2032 60.1783 31.9277 59.6578C32.1113 59.1327 32.8459 59.1696 33.4749 59.0683C33.507 59.3078 33.8009 59.2985 33.833 59.5288C33.9524 59.8835 33.5667 59.7407 33.3739 59.7683C34.3702 60.9107 35.8072 63.1308 33.4933 63.8217C33.53 63.9783 33.7045 64.0105 33.732 64.1809C36.0276 63.4578 34.9762 59.8973 33.9708 58.5754C34.889 58.5754 34.5814 59.7914 35.7521 59.5288C35.8024 59.5934 35.8394 59.6674 35.8607 59.7465C35.8819 59.8256 35.8872 59.9083 35.8761 59.9894C36.3628 59.9894 36.5143 59.1926 36.9458 59.5288C36.7828 59.7805 36.6444 60.0473 36.5326 60.3257C36.6813 60.2741 36.8431 60.2741 36.9918 60.3257C36.9458 60.6849 36.4776 60.6251 36.5051 61.0534L36.2985 61.0212C35.7246 62.8268 35.4491 64.9318 33.2729 65.1344C33.7733 65.9727 35.0037 65.1851 35.5134 64.9133H35.518ZM32.1894 62.2879C32.1894 61.9517 31.9828 61.7812 31.5925 61.8273C31.6109 62.1497 31.7991 62.3202 32.1847 62.2879H32.1894ZM33.3785 61.9286C33.3186 61.6893 33.1799 61.4772 32.9849 61.3268C32.7899 61.1763 32.5501 61.0962 32.3042 61.0995C32.4556 61.5602 33.0296 61.8872 32.6623 62.5274C33.0985 62.5274 33.1168 62.1128 33.3739 61.9286H33.3785ZM20.4037 55.0195C20.7573 55.8578 20.4359 57.364 21.12 57.8845C21.5102 57.2074 21.12 56.4152 21.3542 55.4939C21.0052 55.3603 20.9042 54.9873 20.3992 55.0149L20.4037 55.0195ZM29.0949 58.4741C28.6358 58.3543 28.7552 58.7734 28.3787 58.7136C28.4292 58.5478 28.521 58.5202 28.3787 58.3543C28.2919 58.3611 28.2072 58.3855 28.1301 58.4259C28.0528 58.4663 27.9845 58.5219 27.9292 58.5895C27.8739 58.657 27.8327 58.735 27.8082 58.8188C27.7837 58.9027 27.7763 58.9906 27.7864 59.0774C28.0894 59.2018 28.1997 58.5569 28.3787 58.9531C27.9746 59.1419 28.0068 59.7729 27.667 60.0309C27.1108 59.4572 26.6294 58.8149 26.2346 58.1194C25.0776 57.7141 23.3559 58.9715 24.2099 59.7914C24.4211 58.6767 25.4633 58.7274 26.4779 58.9531C26.4045 59.4137 26.8452 59.644 26.5973 59.9066C26.1381 59.7131 25.8857 59.2663 25.2797 59.1926C24.9766 59.2847 24.871 59.5749 24.9307 60.0309C25.8489 59.8973 25.5413 61.0074 26.0004 61.339C26.3219 61.2239 26.1198 60.5883 26.354 60.3856H26.7167C26.7901 61.2147 26.4458 61.6292 25.8811 61.8134C25.6515 61.7674 25.6653 61.4726 25.2797 61.5785C25.1714 61.6259 25.0747 61.6966 24.9966 61.7855C24.9185 61.8745 24.8607 61.9796 24.8275 62.0933C24.7942 62.207 24.7862 62.3267 24.804 62.4439C24.8219 62.5611 24.8651 62.6729 24.9307 62.7715C25.422 62.8314 25.4541 62.4261 26.0004 62.532C25.803 62.9926 25.1511 63.0341 24.4532 62.9926C24.7746 64.2869 26.5468 62.9926 26.836 62.3984C28.0435 63.0525 27.7037 65.2588 29.3336 65.4983C27.6211 64.0842 27.9012 60.3763 29.0903 58.4694L29.0949 58.4741ZM51.9223 42.7213C53.3686 44.2413 55.0398 46.2403 55.5953 47.5992C55.7835 47.3643 55.9855 47.1385 56.2013 46.9083C56.7455 45.4141 56.7794 43.7809 56.2977 42.2653C55.8386 40.2847 54.2317 39.1378 54.0434 40.0913C53.9516 40.5519 55.0122 43.1451 55.2188 44.2782C54.8699 43.6563 52.7029 42.7259 51.9177 42.7167L51.9223 42.7213ZM41.6977 33.2605C41.1698 33.3296 40.7795 33.5092 40.6142 33.9606C40.838 33.9414 41.0537 33.8675 41.2426 33.7455C41.4315 33.6235 41.5877 33.457 41.6977 33.2605ZM20.5415 40.2802C20.8216 39.6444 21.2715 39.1747 21.827 39.1517C23.1125 39.0964 23.8288 41.1 24.8986 41.9153C25.3577 42.2699 25.8168 42.1225 25.8719 42.4035C25.8958 42.5336 25.8764 42.6679 25.8168 42.7858C25.4816 43.6702 25.1556 42.5832 24.5358 42.9194C24.5358 43.4952 24.8802 43.2924 24.9215 43.7762C24.9291 43.8542 24.9291 43.9329 24.9215 44.011C24.4589 44.3778 24.1219 44.8801 23.9574 45.4482C24.0443 45.4996 24.1258 45.5599 24.2007 45.6278C24.4552 45.1986 24.7537 44.7972 25.0914 44.4302C26.3757 42.9588 27.8343 41.6503 29.4346 40.5334C29.9756 40.1782 30.4746 39.7625 30.9222 39.2944C30.2619 39.5786 29.5697 39.7812 28.8608 39.8978C28.5256 39.9439 28.1216 39.8287 27.8323 40.0452C27.7451 40.1097 27.5707 40.4598 27.2538 40.6209C26.9499 40.7979 26.5979 40.8737 26.2484 40.8374C25.8581 40.7868 25.7525 40.5564 25.7571 40.3768C25.751 40.3243 25.7556 40.2711 25.7707 40.2205C25.7857 40.1698 25.8107 40.1228 25.8443 40.0821C26.1795 39.7827 26.6983 39.7827 26.9279 39.3405C26.951 39.2676 26.9604 39.1911 26.9554 39.1148C26.9453 39.067 26.9232 39.0226 26.8911 38.9858L26.8131 38.9352C26.5101 38.8016 25.8581 39.0365 25.7846 38.6634C25.7724 38.601 25.7724 38.5369 25.7846 38.4745C26.1853 38.4482 26.5815 38.374 26.9646 38.2534C27.2575 38.2272 27.5418 38.1409 27.8002 38.0002C28.0114 37.8665 28.0756 37.7514 28.0298 37.6317C28.0022 37.5801 27.9629 37.5359 27.915 37.5027C26.8865 37.7007 25.1327 38.0462 25.0822 36.9177C25.0731 36.835 25.0731 36.7516 25.0822 36.6689C25.4679 36.6689 25.1602 37.3875 25.6699 37.2724C25.7202 37.0876 25.748 36.8973 25.7525 36.7058C25.7525 35.7846 24.8986 35.7846 24.9169 35.324C24.9209 35.227 24.9477 35.1323 24.995 35.0477C25.2781 34.5853 25.4742 34.0748 25.5734 33.5414C25.5797 33.0455 25.4612 32.5561 25.2291 32.1182C24.7149 30.9298 24.2053 30.9252 22.9978 31.6207H23.0208C23.7599 30.6627 25.3164 30.6581 26.2116 31.0864C26.2116 30.1283 25.2934 29.9625 24.8021 29.4006C25.8994 29.4651 26.5606 30.3494 27.038 30.2988C26.825 30.1093 26.6664 29.8659 26.5789 29.5941C26.5376 29.419 26.6202 29.3315 26.8268 29.4144C27.6716 29.7553 28.7276 30.2251 29.5816 30.0454C28.1629 29.4559 26.533 28.7696 25.6699 27.4845C25.6748 27.4542 25.6897 27.4264 25.7122 27.4056C25.7347 27.3847 25.7634 27.372 25.7938 27.3693H26.0325C26.0004 26.7567 25.1373 26.3514 25.321 25.9184L25.4036 25.9737L25.4908 26.0289L25.624 26.1395C25.634 26.1526 25.6464 26.1635 25.6607 26.1718C26.005 26.4665 26.3815 26.8074 26.8728 26.5357C26.4871 26.0981 25.7296 25.6144 25.1832 25.0248C24.6368 24.4353 24.2971 23.8319 24.7563 23.1548C24.7555 23.43 24.8285 23.7004 24.9675 23.9378C25.0373 24.0427 25.1272 24.1326 25.232 24.2022C25.3369 24.2718 25.4545 24.3197 25.578 24.3432C25.4734 23.8582 25.2668 23.4012 24.972 23.0028C24.9453 22.9684 24.9162 22.9361 24.8848 22.9061C25.1465 22.2797 25.9867 22.0908 26.5743 21.8467L26.6799 21.7822L26.882 21.6717C26.7167 21.6717 26.5606 21.6717 26.3999 21.6993C28.4521 21.0084 30.8166 21.6394 32.6806 22.7357C33.1773 23.0315 33.6392 23.3822 34.058 23.7812C34.2631 23.848 34.4501 23.9612 34.6046 24.1123C34.759 24.2632 34.8767 24.4478 34.9487 24.6518L34.99 24.7853C34.6353 24.3853 34.1436 24.1337 33.6126 24.0806C34.8631 25.2611 35.6841 26.8274 35.945 28.5301H35.9036C35.8475 28.5347 35.7911 28.5269 35.7384 28.507C35.5493 28.3249 35.3088 28.2059 35.0497 28.1662C34.9721 28.1591 34.8939 28.1685 34.8201 28.1938C34.8152 28.1959 34.811 28.1995 34.8081 28.204C34.8052 28.2085 34.8036 28.2138 34.8036 28.2192C34.8036 28.2246 34.8052 28.2298 34.8081 28.2343C34.811 28.2388 34.8152 28.2423 34.8201 28.2445C35.0077 28.3209 35.1678 28.4526 35.2792 28.6222C35.2971 28.6656 35.3237 28.7047 35.3573 28.7373C35.4578 28.8963 35.5148 29.079 35.5225 29.267C35.5203 29.3008 35.5203 29.3346 35.5225 29.3683L35.4904 29.3453C35.2043 29.0621 34.8332 28.8808 34.4345 28.8294C34.3257 28.828 34.2185 28.8564 34.1247 28.9116C34.0308 28.9668 33.9538 29.0467 33.9019 29.1427C35.169 29.3822 35.7016 30.8745 35.9496 31.9938C36.0191 32.4843 36.002 32.9832 35.899 33.4678C35.899 33.4678 35.899 33.4678 35.899 33.4954C35.899 33.523 35.899 33.4954 35.9312 33.4954C36.2177 33.047 36.3955 32.5375 36.45 32.0077C36.4526 32.0429 36.4526 32.0783 36.45 32.1136C36.4522 32.0814 36.4522 32.0491 36.45 32.0168C36.528 32.3673 36.5817 32.7229 36.6107 33.0808C36.4915 33.284 36.3856 33.4948 36.2939 33.7119C36.0556 34.2885 35.757 34.8381 35.4032 35.3517C35.4055 35.3272 35.4055 35.3024 35.4032 35.2779C35.3953 35.2965 35.3844 35.3135 35.3711 35.3286C35.4039 35.2225 35.3974 35.1079 35.3527 35.0062C34.8018 34.8082 34.4345 35.9827 34.1498 35.6096C34.1498 35.6096 34.1498 35.6096 34.1177 35.6096C34.1177 35.1489 34.8936 34.891 34.7558 34.3014C34.5033 34.1955 34.2692 34.4719 34.2049 34.3659C34.1774 34.3659 34.1636 34.3383 34.159 34.283C34.6641 33.9974 35.619 32.4728 34.5676 32.0261C34.3013 32.2794 34.6411 33.1453 34.081 33.0993C33.7825 32.6847 33.7871 31.5931 33.2683 31.4319C33.0159 32.9927 32.8915 34.5718 32.8964 36.1531C32.8689 37.3507 32.4924 37.6178 31.9781 38.2397C32.7437 37.5569 33.5884 36.9693 34.4942 36.4893C34.5176 36.4746 34.5446 36.4668 34.5722 36.4668C34.5998 36.4668 34.6268 36.4746 34.6502 36.4893C34.6962 36.4893 34.7237 36.5492 34.6502 36.6275C34.2187 37.1434 33.8514 37.1848 33.4566 37.8482C33.9156 37.9863 35.0176 36.4985 35.293 36.7611L35.3252 36.7887C35.3787 36.8511 35.4146 36.9267 35.4291 37.0077C35.4437 37.0887 35.4363 37.1722 35.4078 37.2493C35.2792 37.9126 34.9946 38.7233 33.8743 39.8564C33.553 40.188 32.4281 40.6532 31.9828 41.0632C31.5375 41.4731 30.4034 43.5044 30.2841 43.859C29.7836 44.8263 29.5632 45.8212 28.9067 46.7056C29.1179 46.8069 30.2519 46.9313 30.7064 46.5766C30.816 46.5038 30.8948 46.3931 30.9279 46.2655C30.9609 46.138 30.9458 46.0027 30.8855 45.8857C30.7982 45.6738 30.6513 45.4573 30.5778 45.2408C30.522 45.1265 30.5022 44.9978 30.5211 44.872C30.5399 44.746 30.5965 44.6289 30.6834 44.5361C31.2481 43.9235 32.0608 43.6149 32.5199 42.8733C32.7954 42.5048 33.3739 41.0539 33.7642 40.4598C34.0442 39.9992 35.0819 39.1701 35.6006 38.5574C35.7292 38.4008 36.1608 36.8901 36.3674 37.1757C36.4133 37.1757 36.45 37.2585 36.4776 37.4059C36.5923 38.0738 36.0185 39.6307 35.3848 40.492C34.7512 41.3533 34.4253 42.3344 33.9799 44.2736C33.6999 45.4804 32.4373 47.6452 32.4235 47.6913C31.9368 49.2482 32.6025 49.5014 32.8184 51.1965C32.9332 51.5558 33.6677 51.2978 33.654 51.7953C32.7357 51.8229 32.621 53.6054 31.5007 53.8265C29.8984 53.1909 29.2051 51.0629 29.5908 48.8059C28.3465 49.1192 27.1528 50.5009 26.836 52.1545C27.0105 52.3388 27.4512 52.2605 27.791 52.2743C28.8332 54.0614 31.2023 54.5174 33.3004 55.259C30.633 55.0287 28.7689 53.9878 26.7397 53.1126C27.263 54.4207 29.0811 54.4299 30.0775 55.259C29.7285 55.2959 29.3566 54.9274 29.2464 55.3834C30.6678 55.861 32.1664 56.0642 33.6632 55.9822C35.192 55.8072 37.3361 56.2539 38.4334 55.3834C37.6637 55.4769 36.8829 55.3843 36.1561 55.1135C35.4293 54.8427 34.7777 54.4014 34.2554 53.8265C34.5309 53.6239 34.1452 52.7579 34.7145 52.8731C34.9395 53.0482 34.7145 53.6562 34.9533 53.8265C35.4675 53.9832 35.1002 53.26 35.5501 53.3659C35.3986 53.9693 35.2196 54.2872 35.6695 54.6833C37.0744 54.2779 38.842 54.6833 39.9668 53.8449C39.3792 53.5409 38.5252 53.8818 37.9376 53.9693C37.832 53.7528 37.6024 53.6607 37.6988 53.2462C38.034 53.1872 38.3501 53.0479 38.6202 52.8403C38.8904 52.6326 39.1066 52.3626 39.2506 52.0532C39.0027 51.7999 38.2865 52.2882 37.9376 51.9334C38.0668 51.8077 38.153 51.6441 38.1835 51.4661C38.214 51.2881 38.1874 51.105 38.1075 50.9432H37.258C37.2035 50.5409 37.0694 50.1535 36.8636 49.8039C36.6578 49.4543 36.3845 49.1495 36.0598 48.9073C35.9036 48.1288 36.5923 47.2168 36.9275 46.9359C37.2121 46.7701 37.506 46.5858 37.7814 46.4062C39.2781 45.4159 40.2745 44.923 40.9953 43.9004C41.1468 43.6242 41.2983 43.3202 41.4544 42.9793C41.6747 43.0299 41.8676 43.2741 42.0512 43.228C41.863 41.1967 38.6951 41.2059 39.6042 37.5672L39.6455 37.627C39.6429 37.6165 39.6429 37.6054 39.6455 37.5948C40.3061 38.6027 41.1617 39.4672 42.1614 40.1373C42.254 40.1872 42.3529 40.2244 42.4553 40.2479C39.7006 37.0835 40.302 36.2683 41.0779 35.3977C41.3625 35.0707 40.5454 34.8772 41.0779 34.8312C41.7666 34.7759 41.9962 34.3199 42.8731 34.4949H42.9328C43.3919 35.4162 42.8731 37.3 43.7684 37.7837C43.8135 37.8075 43.8613 37.8261 43.9107 37.8389C44.1001 37.667 44.2448 37.4512 44.332 37.2104C44.4193 36.9695 44.4464 36.7109 44.4111 36.4571C44.4111 36.4203 44.3468 36.3972 44.2872 36.3742L44.076 36.2959C43.8234 36.2268 43.5525 36.1024 43.8005 35.5543C44.5305 33.9192 43.9153 32.4406 42.5746 32.0998C41.5587 32.3983 40.6189 32.9137 39.8199 33.6105C39.8199 33.5829 39.8475 33.5461 39.8658 33.5184C39.8842 33.4908 39.8016 33.5691 39.7741 33.6013C40.3264 32.5915 40.6406 31.468 40.6923 30.3172C40.4897 30.547 40.2321 30.7213 39.9439 30.8239C39.8319 30.8547 39.7154 30.8656 39.5996 30.8562C39.4495 30.8548 39.3025 30.8136 39.1735 30.7368C39.0444 30.6599 38.938 30.5501 38.865 30.4185C38.865 30.3909 38.865 30.3541 38.8971 30.3633H38.9292C39.0302 30.3633 39.1267 30.4047 39.2231 30.4139C39.3264 30.4318 39.4319 30.4318 39.5353 30.4139C39.6911 30.3881 39.8375 30.3223 39.9606 30.2231C40.0836 30.1239 40.1791 29.9944 40.2377 29.8474L40.3066 29.7H40.3525C41.335 27.6134 42.6481 27.6134 43.3827 26.0843C42.7544 26.4143 42.0261 26.4981 41.3397 26.3192C41.5049 26.1856 41.661 26.052 41.7988 25.9461C42.6353 25.404 43.3474 24.6896 43.8877 23.8503C43.8964 23.8323 43.8991 23.8119 43.8958 23.7923C43.8924 23.7725 43.883 23.7543 43.8689 23.7402C43.8548 23.7261 43.8367 23.7167 43.817 23.7133C43.7974 23.7099 43.7771 23.7127 43.7592 23.7213L43.2312 24.0299C43.0683 24.1064 42.9144 24.2007 42.7721 24.3109C42.6527 24.3846 42.5333 24.4629 42.4186 24.5458C42.3361 24.6041 42.241 24.6416 42.1411 24.6552C42.0412 24.6688 41.9396 24.6582 41.8446 24.6242C42.3267 23.9102 43.0246 23.468 43.7363 22.8554C42.189 22.5744 41.8446 24.2741 40.8989 24.9649C40.4398 25.6052 39.8245 26.0934 39.1404 25.8862C39.1357 25.8833 39.1317 25.8793 39.129 25.8744C39.1263 25.8696 39.1249 25.8641 39.1249 25.8585C39.1249 25.853 39.1263 25.8475 39.129 25.8426C39.1317 25.8378 39.1357 25.8338 39.1404 25.8309C39.5261 25.4025 39.9668 25.0387 40.3801 24.6333C40.4581 24.555 40.5316 24.4722 40.6097 24.3892C40.6889 24.2688 40.7865 24.1615 40.8989 24.0714C41.0733 23.8779 41.2524 23.6891 41.436 23.5094C41.4737 23.4432 41.5015 23.3719 41.5187 23.2976C40.403 23.4588 40.1413 25.0847 39.1083 24.9512C39.2368 23.7997 40.7474 23.0673 41.661 22.7218C42.0099 22.5928 43.1256 21.9388 43.4562 22.1829L43.3781 22.1414C44.6865 22.0347 46.0032 22.1625 47.2668 22.5192C48.1875 22.9651 49.0652 23.4955 49.8885 24.1037C50.4743 24.6474 50.9431 25.3058 51.2658 26.0382C51.5183 26.5541 51.4586 26.7383 51.0821 26.8765C51.3472 27.0743 51.5453 27.349 51.6496 27.6635C51.7539 27.978 51.7593 28.3171 51.6651 28.6348C51.5709 28.9525 51.3817 29.2334 51.123 29.4396C50.8643 29.6458 50.5488 29.7672 50.219 29.7875C50.0656 29.8013 49.9111 29.7936 49.7599 29.7645C49.835 30.0335 49.9971 30.27 50.2206 30.4367C50.4441 30.6034 50.7165 30.6909 50.9949 30.6857C51.2921 30.6895 51.5818 30.5921 51.8167 30.4093H51.8489C51.8667 30.4002 51.8836 30.3894 51.8994 30.3771C52.2102 30.6617 52.4305 31.0321 52.5325 31.4418C52.6347 31.8514 52.614 32.2822 52.4733 32.6802L52.3401 32.7032C51.6331 32.5419 51.3943 32.5005 51.0867 31.7037C50.9399 32.1102 50.8942 32.5466 50.9536 32.9749C51.0638 33.6566 51.3852 34.3245 52.0692 34.435C52.1625 34.4419 52.2561 34.4419 52.3493 34.435C53.1574 34.3429 53.4833 32.9288 53.4879 33.0532V33.348C53.4879 33.4816 53.5384 33.6152 53.5614 33.7533C53.5155 34.4673 53.3456 35.3102 52.7946 35.6603C52.6622 35.7524 52.5128 35.8174 52.3553 35.8513C52.1977 35.8854 52.0349 35.8877 51.8764 35.8583C51.6335 35.8246 51.4013 35.7364 51.1969 35.6004C51.0976 35.973 51.1368 36.3692 51.3071 36.715C51.6514 37.4428 52.0876 37.3368 52.1565 38.1522C52.2116 38.4377 52.2391 38.6634 52.2391 38.6634C52.1557 39.2481 51.9642 39.812 51.6744 40.3262C50.9386 40.9935 50.1578 41.6091 49.3375 42.1686C50.1501 43.5504 53.5155 46.3141 54.2546 47.3228C54.5626 47.6 54.8129 47.9357 54.9909 48.3104C55.169 48.6851 55.2715 49.0915 55.2923 49.5061C54.8928 50.2983 53.8001 50.4273 52.9048 50.2246C51.9287 49.6394 51.0294 48.9338 50.2282 48.1243H50.1547C50.0537 47.9999 49.9619 47.8663 49.8609 47.7373C49.8609 47.7373 49.8609 47.7373 49.8609 47.7097C49.2324 46.8698 48.6793 45.9759 48.208 45.0382C48.0107 44.5776 47.8408 44.1723 47.6984 43.7577C47.1429 42.1594 47.4964 41.5744 48.355 40.9065C49.2135 40.2387 50.9536 39.2529 50.949 38.2627C50.949 37.8297 50.8067 37.6869 50.7194 37.6363C50.6001 37.8832 50.4454 38.1112 50.2603 38.3133C49.2594 39.5524 47.0741 41.6435 45.8941 41.7264C45.2192 41.7725 44.3423 41.3211 43.8097 41.0079L43.3506 40.7453L43.3001 40.7177C43.3414 40.9019 43.5893 41.1138 43.6444 41.4685C43.7078 41.8813 43.7324 42.2993 43.7179 42.7167C43.5871 44.3069 43.1472 45.8561 42.4232 47.2767C42.3451 47.4702 42.2716 47.659 42.1936 47.8433C42.0245 48.4143 41.8127 48.9716 41.56 49.5107C41.1009 50.3582 40.1138 50.9662 40.1321 51.9012C42.0421 51.9427 43.0521 50.0127 43.2358 47.9078C43.2633 47.6314 43.2863 47.3504 43.2955 47.0648C43.333 46.7205 43.3929 46.3789 43.4745 46.0423C44.3928 45.7705 44.8519 44.8816 44.581 43.7117C44.8656 43.3984 45.1779 42.7628 45.6645 43.0023L45.715 43.0392C45.8193 43.0961 45.9151 43.1674 45.9997 43.251C46.0946 43.3496 46.1792 43.4576 46.2522 43.5734C46.3309 43.7041 46.4015 43.8394 46.4634 43.9788C46.5506 44.163 46.6424 44.3657 46.7526 44.6052C46.8629 44.8447 46.8996 45.0198 46.996 45.2454C47.4551 46.2772 48.0887 47.0603 48.4055 48.0091H48.3274C48.4278 48.287 48.5016 48.5739 48.5478 48.8658C47.6296 49.6995 46.8675 50.6852 45.5681 51.1366C45.3064 50.1048 46.4312 48.9718 46.5736 47.9492H46.4634C46.4961 47.7253 46.4687 47.4967 46.384 47.287C46.2993 47.0772 46.1602 46.8941 45.9813 46.7563C45.816 46.9635 45.6462 47.1247 45.4717 47.3734C45.4182 47.4487 45.375 47.5308 45.3432 47.6176C44.9529 48.115 44.581 48.6033 44.2504 49.1099C43.8694 49.6995 43.7638 50.3305 43.4148 50.9063C42.5655 52.3112 40.8254 51.9703 39.5996 53.0573C40.1276 53.4074 40.4856 52.7164 41.032 52.6981C42.6802 53.4304 43.3276 51.5419 45.3294 51.8598C45.3294 52.2467 44.6132 51.9427 44.7325 52.4632C46.6884 54.2733 49.4431 51.2886 50.9352 50.7865C49.8746 53.8265 45.2421 53.2923 42.7032 54.8491C44.2964 55.0932 45.4212 54.2319 46.6379 54.4898C46.142 55.1899 44.9299 55.1669 44.0117 55.4479C43.9658 56.2908 42.9833 56.1987 42.5242 56.627C42.2074 56.9172 41.0688 56.9587 40.6464 57.0323C40.0265 57.1337 39.4021 57.1982 38.7777 57.2534C36.3628 57.4515 33.9386 57.4008 31.6522 56.5349C31.1747 56.3208 30.6665 56.184 30.1463 56.1296C28.9985 56.0927 28.4889 55.7795 27.488 55.2544C26.7887 54.9627 26.1273 54.5869 25.5184 54.1352C25.0238 53.6527 24.5961 53.1059 24.2466 52.5092C24.5634 52.5092 24.9261 52.5507 25.0822 52.3848C25.0088 51.7953 25.2612 51.4637 25.5413 50.9524C23.9803 50.699 25.5138 48.7461 24.265 48.2163H24.2145C23.9711 48.5941 23.8977 49.1376 23.512 49.3955C23.2136 48.9349 22.8601 48.5204 22.5066 48.0689C22.5341 48.0689 20.6103 46.1483 20.9134 43.7577C20.1375 43.0392 20.0457 41.6849 20.3854 40.6394L20.4176 40.5564C20.468 40.4552 20.5047 40.3677 20.5415 40.2802ZM43.9566 25.8493C43.7133 26.3974 43.2955 26.7705 43.121 27.4016C43.75 27.3878 44.5764 26.3652 43.9382 25.8493H43.9566ZM48.0474 32.8459C47.951 32.8459 47.8591 32.8183 47.7673 32.8091C46.468 32.74 45.7472 33.8777 46.6287 34.0988C46.9355 34.1394 47.2472 34.1207 47.5469 34.0435C47.7719 33.8317 47.501 33.6934 47.4367 33.4447C47.6755 33.2927 48.0336 33.2559 48.029 32.8459H48.0474ZM48.3688 28.1202C48.5496 28.0363 48.7022 27.9015 48.8082 27.7323C48.9142 27.563 48.9689 27.3665 48.9656 27.1667C47.8912 27.4016 47.7765 26.7061 47.0556 26.5679C46.9363 27.6365 47.4551 28.0603 48.3503 28.1202H48.3688ZM48.6488 32.2242C48.5927 32.2291 48.5373 32.2398 48.4835 32.2563C49.0436 32.9243 48.1897 32.9058 48.2264 33.6843C49.0253 33.6243 49.2869 32.2656 48.6304 32.2425L48.6488 32.2242ZM49.4431 26.9225C49.2089 25.4025 47.5332 25.3288 47.0556 24.0622C46.2843 26.0934 48.6947 25.9737 49.4247 26.9225H49.4431ZM47.0556 28.2399C46.5965 27.6273 46.7572 26.3974 46.1007 25.9737C45.7931 26.8811 46.2201 28.0464 47.0373 28.2399H47.0556ZM45.9584 32.915C46.4694 32.7301 46.9653 32.5052 47.4413 32.2425C47.4039 32.1639 47.3487 32.0951 47.2802 32.0415C47.2116 31.988 47.1316 31.9511 47.0465 31.9339C46.7821 31.9524 46.5314 32.059 46.3342 32.2367C46.1371 32.4145 46.0048 32.6532 45.9584 32.915ZM45.3156 36.0748C45.2974 36.1349 45.3013 36.1995 45.3266 36.257C45.3519 36.3145 45.3968 36.361 45.4533 36.388C45.4961 36.3983 45.5408 36.397 45.5829 36.3842C45.625 36.3714 45.663 36.3476 45.6929 36.3153C45.7228 36.2829 45.7435 36.2432 45.7531 36.2001C45.7627 36.157 45.7606 36.1122 45.7472 36.0702L45.3156 36.0748ZM43.6444 38.5298C43.7085 38.5805 43.7759 38.6267 43.8464 38.668C43.9304 38.711 44.0201 38.742 44.1127 38.7602C44.1403 38.7687 44.1666 38.7811 44.1908 38.7969C44.2136 38.8029 44.2348 38.8141 44.2526 38.8297C44.2703 38.8452 44.2842 38.8648 44.2931 38.8867C44.302 38.9086 44.3057 38.9323 44.3039 38.9559C44.3021 38.9796 44.2947 39.0024 44.2825 39.0227C44.3378 39.1416 44.4273 39.2411 44.5397 39.3083C44.9082 39.4182 45.2988 39.4308 45.6737 39.3451H45.8023H45.8711C45.9228 39.3326 45.9693 39.3044 46.0044 39.2643C46.0394 39.2242 46.0612 39.1742 46.0667 39.1212C46.0723 39.0681 46.0613 39.0147 46.0353 38.9682C46.0093 38.9217 45.9696 38.8844 45.9216 38.8614C45.9034 38.8588 45.8848 38.8588 45.8666 38.8614C45.6186 38.8614 45.3753 38.8614 45.1274 38.8614C45.0167 38.8605 44.9062 38.8512 44.7968 38.8338C44.7963 38.8261 44.7963 38.8185 44.7968 38.8108H44.7371C44.735 38.7801 44.735 38.7494 44.7371 38.7187C45.1963 37.9679 47.1108 38.6634 47.2668 37.5764C46.0364 37.8573 44.5351 37.7053 43.6444 38.5298ZM33.8698 38.5298C33.8837 38.5469 33.9032 38.5583 33.9248 38.5621C34.1406 38.5621 34.283 38.4285 34.439 38.2903C34.6125 38.1316 34.7517 37.9387 34.8477 37.7238C34.6916 37.8435 34.5217 37.931 34.3886 38.0508C34.2554 38.1705 33.9983 38.2673 33.9294 38.4745C33.9056 38.4815 33.8847 38.4961 33.8698 38.516V38.5298ZM26.5238 36.3419C26.5312 36.2854 26.5312 36.2281 26.5238 36.1715C26.5214 36.1391 26.5116 36.1078 26.4951 36.0798C26.4788 36.0518 26.4561 36.028 26.429 36.0102C26.402 35.9924 26.3712 35.981 26.3391 35.9771C26.307 35.9731 26.2744 35.9766 26.2437 35.9873C26.0142 36.0425 25.9545 36.0886 25.9821 36.236C25.9821 36.2959 26.0234 36.3649 26.0555 36.4571C26.2192 36.4724 26.3827 36.4265 26.5146 36.3282L26.5238 36.3419ZM33.4611 28.3089C33.1744 28.4137 32.8747 28.4788 32.5704 28.5024C32.1526 28.5024 31.9966 28.1524 31.6522 28.0833C31.3584 28.5439 32.2445 28.9584 32.5704 29.0045C32.86 29.0265 33.1471 28.9376 33.3739 28.7558C33.5989 28.6038 33.9019 28.3228 34.2049 28.3182C34.246 28.3113 34.2879 28.3113 34.3289 28.3182C34.3564 28.3182 34.384 28.3182 34.3747 28.2675C34.3487 28.2168 34.3066 28.1762 34.2552 28.152C34.2037 28.1278 34.1456 28.1215 34.0901 28.1339C33.8754 28.1721 33.6648 28.2307 33.4611 28.3089ZM27.6487 21.7315C28.0333 22.345 28.5085 22.8963 29.0581 23.3667C29.3659 23.6109 29.7261 23.7798 30.1103 23.8597C30.4945 23.9397 30.892 23.9286 31.2711 23.8273C31.2807 23.8222 31.2888 23.8146 31.2944 23.8052C31.3 23.7959 31.303 23.7852 31.303 23.7743C31.303 23.7634 31.3 23.7527 31.2944 23.7434C31.2888 23.734 31.2807 23.7264 31.2711 23.7213C31.138 23.6753 31.0094 23.6477 30.8855 23.6154C30.615 23.4734 30.4071 23.2352 30.3024 22.9475C30.2427 22.7266 30.1398 22.5199 29.9994 22.3395C29.9434 22.2659 29.8821 22.1966 29.8157 22.1323H29.8524L29.8433 22.1092C30.1142 22.1967 30.3988 22.2612 30.6513 22.3579C31.0048 22.4915 31.3676 22.6205 31.7211 22.7725L31.9368 22.8968C32.231 23.0259 32.5137 23.1799 32.7816 23.3574C31.7899 22.3487 30.5411 22.0724 29.2556 21.7223C29.0841 21.6324 28.8936 21.585 28.7001 21.5842C28.7001 21.5842 28.6725 21.5842 28.7001 21.6118L28.8608 21.7499H28.8929C29.0669 21.8809 29.2215 22.036 29.352 22.2105C29.4867 22.4805 29.6401 22.7406 29.8111 22.9889L29.8524 23.035L29.7836 23.0304L29.8249 23.0811C29.6183 22.9291 29.4071 22.7955 29.1959 22.6527C28.7283 22.2828 28.2162 21.9732 27.6716 21.7315H27.6487ZM27.1482 22.4501C27.4145 23.0074 28.1262 23.6845 28.645 23.6477C27.9655 23.4265 27.8507 22.6527 27.1482 22.4501ZM29.476 26.2915C29.0765 25.8309 28.8286 25.2091 28.0711 25.0939C28.3281 25.6513 29.0352 26.2915 29.476 26.2915ZM29.5954 25.7941C29.1637 24.8728 27.7819 23.9056 27.0243 22.9245C27.4237 24.3385 28.6082 24.9742 29.5954 25.7941ZM28.218 33.2052C28.2868 32.7169 29.7974 32.8413 30.2565 32.9288C29.7974 32.4683 28.42 31.9017 27.6946 32.2287C27.5136 32.3201 27.3692 32.471 27.2857 32.6563C27.2022 32.8415 27.1845 33.0499 27.2355 33.2467C27.2588 33.3356 27.2943 33.4209 27.3411 33.5C27.6533 33.1269 27.9746 33.1453 28.0389 33.4447C27.9655 33.7164 27.6624 33.7809 27.6716 34.1587C27.7982 34.1202 27.927 34.0894 28.0573 34.0665C28.2731 34.0435 28.3236 34.0204 28.3741 34.1172C28.3935 34.1697 28.424 34.2173 28.4635 34.2568C28.503 34.2963 28.5506 34.3268 28.6029 34.346C28.6553 34.3653 28.7112 34.373 28.7669 34.3684C28.8225 34.3639 28.8764 34.3473 28.925 34.3199C29.026 33.7349 29.3842 33.9422 29.7147 33.8869C29.7163 33.8027 29.6991 33.7194 29.6642 33.6428C29.4209 33.1822 28.5026 33.4033 28.218 33.2098V33.2052ZM31.0141 30.0224C31.0046 29.9231 30.969 29.8281 30.911 29.7472C30.8529 29.6662 30.7744 29.6022 30.6834 29.5618C30.491 29.4825 30.2887 29.4298 30.082 29.4052C30.0819 29.5039 30.1111 29.6004 30.1659 29.6825C30.2207 29.7645 30.2986 29.8283 30.3897 29.8658C30.5837 29.9469 30.7874 30.0027 30.9957 30.0317L31.0141 30.0224ZM64.4196 39.4464C65.7969 38.3917 63.9604 35.347 64.4609 36.8256C64.9613 38.3042 63.662 39.3635 63.662 39.3635C64.3415 40.5334 64.213 42.3759 64.213 42.3759C65.4755 41.8232 64.3829 39.4557 64.3829 39.4557L64.4196 39.4464ZM8.95331 39.2023C7.90197 38.9904 8.11317 37.5533 8.11317 37.5533C8.11317 37.5533 9.03141 37.1342 8.70078 36.5814C8.37023 36.0287 7.3556 36.7933 7.3556 36.7933C7.26835 39.9208 8.95331 39.2023 8.95331 39.2023ZM10.9321 44.0203L12.282 44.9414C11.9009 44.1814 11.3637 43.2925 11.2306 43.5043C11.0975 43.7163 10.3445 43.5043 10.3445 43.5043C8.50801 43.251 8.99463 39.9945 8.99463 39.9945C7.34639 45.075 10.9321 44.0203 10.9321 44.0203Z" fill="#092327"/>
<path d="M55.6137 59.4182C55.2675 59.4191 54.9289 59.3169 54.6406 59.1246C54.3523 58.9323 54.1274 58.6586 53.9943 58.338C53.8612 58.0174 53.8259 57.6644 53.8929 57.3237C53.9599 56.983 54.1261 56.6699 54.3705 56.424C54.615 56.1781 54.9267 56.0104 55.2662 55.9424C55.6056 55.8743 55.9575 55.9088 56.2775 56.0415C56.5973 56.1742 56.8708 56.3991 57.0632 56.6878C57.2556 56.9765 57.3584 57.3159 57.3584 57.6633C57.3572 58.1275 57.1731 58.5725 56.8463 58.9012C56.5195 59.2299 56.0765 59.4157 55.6137 59.4182ZM55.6137 56.1294C55.3113 56.1294 55.0157 56.2193 54.7643 56.3879C54.5129 56.5564 54.3169 56.796 54.2012 57.0763C54.0855 57.3566 54.0552 57.665 54.1142 57.9624C54.1731 58.26 54.3188 58.5333 54.5326 58.7478C54.7464 58.9623 55.0188 59.1084 55.3154 59.1676C55.612 59.2267 55.9194 59.1964 56.1987 59.0803C56.4781 58.9642 56.7169 58.7676 56.8849 58.5154C57.0529 58.2632 57.1426 57.9666 57.1426 57.6633C57.1444 57.4604 57.1062 57.2593 57.0302 57.0713C56.9542 56.8834 56.842 56.7123 56.6999 56.5681C56.5578 56.4238 56.3887 56.3092 56.2023 56.2307C56.0159 56.1523 55.8159 56.1116 55.6137 56.111V56.1294Z" fill="#092327"/>
<path d="M55.1773 56.7881H55.5538C55.686 56.7792 55.8181 56.8078 55.9349 56.8711C56.0033 56.91 56.0597 56.9672 56.0977 57.0363C56.1358 57.1054 56.1542 57.1837 56.1506 57.2626C56.1542 57.3666 56.1226 57.4687 56.0608 57.5523C55.9992 57.636 55.9111 57.6962 55.8109 57.7232C55.8958 57.8021 55.9657 57.8957 56.0175 57.9995L56.3205 58.5108H56.0496L55.7696 58.0502C55.69 57.9059 55.6257 57.8275 55.5767 57.8152H55.3976V58.497H55.1681L55.1773 56.7881ZM55.5629 57.6034C55.6401 57.606 55.7164 57.5868 55.7833 57.5481C55.8281 57.5213 55.8646 57.4825 55.8889 57.4362C55.9131 57.3899 55.9243 57.3378 55.9211 57.2856C55.923 57.2402 55.9145 57.195 55.8963 57.1534C55.878 57.1118 55.8503 57.0751 55.8155 57.0461C55.7398 56.9989 55.652 56.9749 55.5629 56.977H55.4069V57.6034H55.5629Z" fill="#092327"/>
<path fill-rule="evenodd" clip-rule="evenodd" d="M52.601 55.5305C52.601 56.0234 53.1887 56.7972 52.601 57.1012C52.4952 56.8124 52.374 56.5295 52.2383 56.2537C51.8572 56.1984 51.9628 56.6267 51.5083 56.5024C51.4582 57.1675 51.3032 57.8205 51.0492 58.437C51.7746 58.3586 51.6047 57.3776 52.0179 56.9814C52.9361 58.9621 51.4073 60.7262 50.8104 62.435C51.7976 62.435 51.7287 61.3572 52.5046 61.1038C52.6377 61.4954 53.3172 61.4171 53.4688 61.4677C53.4412 61.8731 52.7617 62.0343 53.1106 62.435C54.1988 62.3613 54.3273 61.3203 54.6762 60.4958C55.0298 60.2011 55.3098 60.7584 55.6495 60.8643C55.7802 60.7614 55.8883 60.6327 55.9673 60.4861C56.0463 60.3395 56.0944 60.1782 56.1087 60.0122C54.6854 59.5194 54.1849 59.524 53.7304 58.5014C53.5376 58.0408 53.2713 57.1749 54.2355 56.0464C54.5972 55.7385 55.0546 55.5669 55.529 55.561C56.0033 55.5551 56.4649 55.7154 56.8341 56.0141C57.1968 55.443 56.5908 54.9271 56.3749 54.5586C54.4604 54.2455 53.7763 55.1298 52.601 55.5305ZM53.6845 60.2517C53.5238 60.5373 53.1473 60.6018 52.8444 60.74C52.7892 60.5097 52.4954 60.5189 52.601 60.1366C52.9958 60.1412 53.1979 60.3392 53.6845 60.2517Z" fill="#092327"/>
</g>
</svg>
