<svg width="161" height="55" viewBox="0 0 161 55" fill="none" xmlns="http://www.w3.org/2000/svg">
<path d="M36.145 28.9472L33.9635 28.3622C33.1599 28.147 32.6877 27.3348 32.9074 26.5476L36.4399 13.9158C36.5456 13.54 36.2566 13.169 35.8585 13.169H30V8H36.7908C38.4308 8 40.0199 8.70633 40.9995 9.99531C41.933 11.2248 42.2316 12.7731 41.8177 14.2535L37.9974 27.9127C37.7777 28.6999 36.9486 29.1625 36.145 28.9472Z" fill="#185A35"/>
<path d="M31.8728 8H33.9325L35 11.3909L33.4364 13H31L31.8728 8Z" fill="#2CA662"/>
<path d="M32.5 11C32.7761 11 33 10.7761 33 10.5C33 10.2239 32.7761 10 32.5 10C32.2239 10 32 10.2239 32 10.5C32 10.7761 32.2239 11 32.5 11Z" fill="#36CA77"/>
<path d="M20.0364 0H16.9636C16.3715 0 15.9191 0.524129 16.0122 1.10195L16.4776 4H20.5224L20.9878 1.10195C21.0809 0.522851 20.6285 0 20.0364 0Z" fill="#1D6D40"/>
<path d="M20.1252 0H18C18.5117 1.31671 18.9834 2.6526 19.4235 4H20.5665L20.9889 1.10195C21.0734 0.522851 20.6627 0 20.1252 0Z" fill="#185A35"/>
<path d="M5.68027 8.00122L1.84725 8.57294C1.49879 8.62536 1.19016 8.81918 0.997264 9.10809L0.301595 10.1528C-0.171311 10.8623 -0.0804631 11.7972 0.520625 12.4067L8 20L5.68152 8L5.68027 8.00122Z" fill="#30B369"/>
<path d="M19.8019 4H16.1981L5 9H31L19.8019 4Z" fill="#39D67E"/>
<path d="M19.7821 4L24 9H12L16.2122 4H19.7821Z" fill="#268E54"/>
<path d="M19 4C19.5531 5.64784 20.0565 7.31366 20.4969 9H32L20.1876 4H19Z" fill="#32BD70"/>
<path d="M19 4C19.4881 5.64784 19.9323 7.31366 20.3209 9H24L20.0426 4H19Z" fill="#299B5B"/>
<path d="M25.6793 26H10.3207C9.22256 26 8.27961 25.2239 8.07607 24.1505L5 8H31L27.9239 24.1505C27.7192 25.2227 26.7763 26 25.6793 26Z" fill="#36CA77"/>
<path d="M20.599 26L24 8H12L15.401 26H20.599Z" fill="#30B369"/>
<path d="M23.3907 24.5494C23.3965 25.033 23.3884 25.5165 23.3826 26H26.6328C27.7406 26 28.6918 25.2239 28.8971 24.1505L32 8H21C22.5126 13.385 23.3269 18.9621 23.3907 24.5494Z" fill="#32BD70"/>
<path d="M23.0145 19L25 8H21C21.9508 11.6024 22.627 15.2841 23.0145 19Z" fill="#2CA662"/>
<path d="M11 27H26V27.8687C26 27.9411 25.9352 28 25.8555 28H11.1445C11.0648 28 11 27.9411 11 27.8687V27Z" fill="#39D67E"/>
<path d="M23 28H25.4548C25.7554 28 26 27.7704 26 27.486V27H23.0208C23.0165 27.333 23.011 27.667 23.0011 28H23Z" fill="#2CA662"/>
<path d="M25 28H12V31H25V28Z" fill="#268E54"/>
<path d="M23 31H25V28H23.1275C23.1034 29.0008 23.0596 30.0017 23.001 31H23Z" fill="#299B5B"/>
<path d="M11.1663 31H26.8349C27.9552 31 28.9172 31.7894 29.1249 32.881L31.9827 53.026C32.1305 54.0688 31.314 55 30.2511 55H7.7489C6.68603 55 5.86951 54.0688 6.01733 53.026L8.87513 32.881C9.08395 31.7905 10.0459 31 11.1651 31H11.1663Z" fill="#36CA77"/>
<path d="M15.3109 31L12 55H24L20.6891 31H15.3109Z" fill="#30B369"/>
<path d="M28.1335 32.8811C27.9254 31.7906 26.9667 31 25.8513 31H22.4116C21.8154 39.3058 19.6314 47.4976 16 55H29.2571C30.3163 55 31.13 54.0687 30.9827 53.0259L28.1347 32.88L28.1335 32.8811Z" fill="#32BD70"/>
<path d="M21.5396 37C20.528 43.2294 18.6625 49.3108 16 55H24L21.5396 37Z" fill="#2CA662"/>
<path d="M10.6847 25C10.5363 25 10.4052 24.8782 10.3771 24.7036L10.0056 22.4306C9.97309 22.2334 10.0857 22.0426 10.2558 22.0061C10.4269 21.9697 10.5904 22.0991 10.6229 22.2962L10.9944 24.5693C11.0269 24.7664 10.9143 24.9573 10.7442 24.9937C10.7247 24.9975 10.7052 25 10.6857 25H10.6847Z" fill="#CDFFD8"/>
<path d="M8.70787 21C8.57041 21 8.449 20.8794 8.42291 20.7066L7.00517 11.4266C6.97507 11.2314 7.07942 11.0425 7.23695 11.0064C7.39548 10.9691 7.54699 11.0984 7.57709 11.2936L8.99483 20.5736C9.02493 20.7688 8.92058 20.9577 8.76305 20.9938C8.74499 20.9975 8.72693 21 8.70887 21H8.70787Z" fill="#CDFFD8"/>
<path d="M153.44 51C151.008 51 148.862 50.3381 147 49.0142L148.786 46.1596C150.363 47.1856 151.922 47.6986 153.465 47.6986C154.27 47.6986 154.673 47.4421 154.673 46.9291C154.673 46.6809 154.505 46.4823 154.17 46.3333C153.851 46.1844 153.289 46.0024 152.484 45.7872C150.891 45.357 149.683 44.844 148.862 44.2482C148.057 43.6359 147.654 42.7009 147.654 41.4433C147.654 40.0532 148.157 38.9693 149.164 38.1915C150.187 37.3972 151.503 37 153.113 37C155.21 37 157.08 37.5213 158.723 38.5638L157.088 41.5426C155.579 40.7151 154.237 40.3014 153.063 40.3014C152.325 40.3014 151.956 40.5331 151.956 40.9965C151.956 41.2281 152.115 41.4267 152.434 41.5922C152.753 41.7411 153.331 41.9397 154.17 42.1879C154.941 42.4031 155.579 42.6182 156.082 42.8333C156.585 43.0319 157.08 43.2967 157.566 43.6277C158.052 43.9586 158.413 44.3641 158.648 44.844C158.883 45.3073 159 45.8617 159 46.5071C159 47.9468 158.497 49.0556 157.491 49.8333C156.484 50.6111 155.134 51 153.44 51Z" fill="#F1E0C5"/>
<path d="M141.474 51C138.281 51 136.684 49.5278 136.684 46.5835V41.1553H135V37.3803H136.684V34H141.684V37.3803H145V41.1553H141.684V45.6705C141.684 46.5588 142.14 47.0029 143.053 47.0029C143.649 47.0029 144.281 46.8549 144.947 46.5588V50.2351C143.982 50.745 142.825 51 141.474 51Z" fill="#F1E0C5"/>
<path d="M125 51V37.234H129.737V40.0075C130.601 37.921 132.022 36.9202 134 37.005V42.0941H133.601C131.025 42.0941 129.737 43.6378 129.737 46.7252V51H125Z" fill="#F1E0C5"/>
<path d="M115.436 51C113.248 51 111.462 50.3569 110.077 49.0707C108.692 47.7845 108 46.0942 108 44C108 42.0212 108.658 40.364 109.974 39.0283C111.291 37.6761 112.966 37 115 37C117.274 37 119.009 37.6926 120.205 39.0777C121.402 40.4629 122 42.2108 122 44.3216C122 44.7503 121.991 45.0719 121.974 45.2862H112.692C113.085 46.7538 114.085 47.4876 115.692 47.4876C116.786 47.4876 117.812 47.0342 118.769 46.1272L121.462 48.2792C119.974 50.0931 117.966 51 115.436 51ZM112.615 42.8869H117.436C117.35 42.1449 117.094 41.5595 116.667 41.1307C116.239 40.6855 115.692 40.4629 115.026 40.4629C114.393 40.4629 113.863 40.6855 113.436 41.1307C113.026 41.5595 112.752 42.1449 112.615 42.8869Z" fill="#F1E0C5"/>
<path d="M91 55V37.3029H95.798V39.1206C96.9596 37.7069 98.3401 37 99.9394 37C101.623 37 103.054 37.6564 104.232 38.9691C105.411 40.2651 106 41.9818 106 44.1192C106 46.2735 105.411 48.007 104.232 49.3198C103.071 50.6157 101.648 51.2637 99.9646 51.2637C98.3148 51.2637 96.9259 50.6073 95.798 49.2945V55H91ZM98.4747 47.2497C99.266 47.2497 99.931 46.9551 100.47 46.3661C101.008 45.777 101.278 45.0196 101.278 44.094C101.278 43.202 101.008 42.4699 100.47 41.8976C99.931 41.3086 99.266 41.014 98.4747 41.014C97.7003 41.014 97.0438 41.3086 96.5051 41.8976C95.9663 42.4867 95.697 43.2356 95.697 44.1445C95.697 45.0365 95.9663 45.777 96.5051 46.3661C97.0438 46.9551 97.7003 47.2497 98.4747 47.2497Z" fill="#F1E0C5"/>
<path d="M74 51L78.4468 43.9353L74.0733 37H79.082L81.0366 40.4418L82.9913 37H87.9023L83.5532 43.9094L88 51H83.0157L80.9634 47.403L78.8866 51H74Z" fill="#F1E0C5"/>
<path d="M58 51V33H71.8768V37.2429H62.7324V39.9686H71.0141V43.9029H62.7324V46.7571H72V51H58Z" fill="#F1E0C5"/>
<path d="M152.473 25C151.162 25 150.089 24.634 149.253 23.902C148.418 23.1533 148 22.1135 148 20.7825C148 19.4183 148.467 18.3702 149.401 17.6382C150.335 16.9061 151.604 16.5401 153.21 16.5401C154.373 16.5401 155.438 16.7148 156.405 17.0642V16.8396C156.405 15.3755 155.52 14.6435 153.75 14.6435C152.555 14.6435 151.334 14.8931 150.089 15.3922L149.13 12.0481C150.802 11.3494 152.595 11 154.512 11C156.806 11 158.493 11.549 159.575 12.6471C160.525 13.5954 161 15.0262 161 16.9394V24.7005H156.38V23.303C155.381 24.4344 154.078 25 152.473 25ZM154.144 22.0303C154.832 22.0303 155.389 21.8307 155.815 21.4314C156.241 21.0155 156.454 20.4748 156.454 19.8093V19.1854C155.913 18.9525 155.307 18.836 154.635 18.836C153.963 18.836 153.439 18.9941 153.062 19.3102C152.686 19.6096 152.497 20.0256 152.497 20.5579C152.497 21.0071 152.645 21.3648 152.94 21.631C153.251 21.8972 153.652 22.0303 154.144 22.0303Z" fill="#F1E0C5"/>
<path d="M138.146 25C135.579 25 133.408 24.1511 131.635 22.4533C129.878 20.739 129 18.5879 129 16C129 13.4615 129.887 11.3269 131.66 9.59616C133.451 7.86539 135.68 7.00001 138.349 7.00001C141.507 7.00001 143.99 8.21979 145.797 10.6593L142.2 13.3791C141.102 12.044 139.801 11.3764 138.298 11.3764C137.065 11.3764 136.052 11.8214 135.258 12.7115C134.464 13.6017 134.067 14.6978 134.067 16C134.067 17.3187 134.464 18.4231 135.258 19.3132C136.052 20.1868 137.065 20.6236 138.298 20.6236C139.159 20.6236 139.894 20.4506 140.502 20.1044C141.11 19.7418 141.71 19.2143 142.301 18.522L146 21.0934C145.071 22.3297 143.99 23.294 142.757 23.9863C141.524 24.6621 139.987 25 138.146 25Z" fill="#F1E0C5"/>
<path d="M120.436 25C118.248 25 116.462 24.3569 115.077 23.0707C113.692 21.7845 113 20.0942 113 18C113 16.0212 113.658 14.364 114.974 13.0283C116.291 11.6761 117.966 11 120 11C122.274 11 124.009 11.6926 125.205 13.0777C126.402 14.4629 127 16.2108 127 18.3216C127 18.7503 126.991 19.0719 126.974 19.2862H117.692C118.085 20.7538 119.085 21.4876 120.692 21.4876C121.786 21.4876 122.812 21.0342 123.769 20.1272L126.462 22.2792C124.974 24.0931 122.966 25 120.436 25ZM117.615 16.8869H122.436C122.35 16.1449 122.094 15.5595 121.667 15.1308C121.239 14.6855 120.692 14.4629 120.026 14.4629C119.393 14.4629 118.863 14.6855 118.436 15.1308C118.026 15.5595 117.752 16.1449 117.615 16.8869Z" fill="#F1E0C5"/>
<path d="M95 25V7.00001H103.224C105.758 7.00001 107.646 7.64287 108.888 8.92858C109.915 9.99144 110.429 11.4143 110.429 13.1972C110.429 15.8372 109.236 17.68 106.851 18.7257L111 25H105.435L101.932 19.5486H99.8199V25H95ZM99.8199 15.64H103C103.812 15.64 104.441 15.4514 104.888 15.0743C105.352 14.68 105.584 14.14 105.584 13.4543C105.584 12.7514 105.352 12.22 104.888 11.86C104.441 11.5 103.803 11.32 102.975 11.32H99.8199V15.64Z" fill="#F1E0C5"/>
<path d="M84.4749 25C82.3344 25 80.5535 24.3239 79.1321 22.9717C77.7107 21.6031 77 19.9458 77 18C77 16.0707 77.7107 14.4217 79.1321 13.053C80.5702 11.6843 82.3679 11 84.5251 11C86.6656 11 88.4465 11.6843 89.8679 13.053C91.2893 14.4052 92 16.0542 92 18C92 19.9293 91.2809 21.5783 89.8428 22.947C88.4214 24.3157 86.6321 25 84.4749 25ZM84.5251 21.0177C85.3779 21.0177 86.0635 20.7291 86.5819 20.152C87.1003 19.5748 87.3595 18.8575 87.3595 18C87.3595 17.1755 87.0836 16.4664 86.5318 15.8728C85.9799 15.2792 85.2943 14.9823 84.4749 14.9823C83.6221 14.9823 82.9365 15.2709 82.4181 15.8481C81.8997 16.4252 81.6405 17.1425 81.6405 18C81.6405 18.8245 81.9164 19.5336 82.4682 20.1272C83.0201 20.7209 83.7057 21.0177 84.5251 21.0177Z" fill="#F1E0C5"/>
<path d="M58 25V7.00001H62.8728V13.7372H69.1272V7.00001H74V25H69.1272V18.16H62.8728V25H58Z" fill="#F1E0C5"/>
</svg>
