<svg width="1600" height="816" viewBox="0 0 1600 816" fill="none" xmlns="http://www.w3.org/2000/svg">
<g clip-path="url(#clip0_117_1616)">
<rect width="1600" height="816" fill="#092327"/>
<path d="M583.353 423.495L562.993 417.895C555.492 415.835 551.085 408.062 553.136 400.527L586.106 279.623C587.092 276.026 584.395 272.475 580.679 272.475H526V223H589.381C604.688 223 619.519 229.761 628.662 242.098C637.375 253.866 640.162 268.685 636.298 282.855L600.643 413.593C598.592 421.128 590.853 425.555 583.353 423.495Z" fill="#185A35"/>
<path d="M538.383 223H560.524L572 256.909L555.192 273H529L538.383 223Z" fill="#2CA662"/>
<path d="M551 254C553.761 254 556 251.761 556 249C556 246.239 553.761 244 551 244C548.239 244 546 246.239 546 249C546 251.761 548.239 254 551 254Z" fill="#36CA77"/>
<path d="M423.52 144H396.48C391.27 144 387.288 148.586 388.107 153.642L392.202 179H427.798L431.893 153.642C432.712 148.575 428.73 144 423.52 144Z" fill="#1D6D40"/>
<path d="M423.544 144H403C407.946 155.521 412.506 167.21 416.76 179H427.809L431.893 153.642C432.71 148.575 428.74 144 423.544 144Z" fill="#185A35"/>
<path d="M282.543 223.011L247.087 228.347C243.864 228.837 241.009 230.646 239.225 233.342L232.79 243.093C228.415 249.714 229.256 258.441 234.816 264.13L304 335L282.554 223L282.543 223.011Z" fill="#30B369"/>
<path d="M427.742 179H392.258L282 224H538L427.742 179Z" fill="#39D67E"/>
<path d="M427.821 179L470 224H350L392.122 179H427.821Z" fill="#268E54"/>
<path d="M417 179C422.148 193.831 426.834 208.823 430.932 224H538L428.053 179H417Z" fill="#32BD70"/>
<path d="M417 179C422.174 193.831 426.883 208.823 431.002 224H470L428.052 179H417Z" fill="#299B5B"/>
<path d="M485.611 401H334.389C323.576 401 314.292 393.325 312.287 382.711L282 223H538L507.713 382.711C505.697 393.313 496.413 401 485.611 401Z" fill="#36CA77"/>
<path d="M435.99 401L470 223H350L384.01 401H435.99Z" fill="#30B369"/>
<path d="M454.472 386.656C454.529 391.437 454.45 396.219 454.393 401H486.304C497.18 401 506.519 393.325 508.535 382.711L539 223H431C445.851 276.252 453.846 331.403 454.472 386.656Z" fill="#32BD70"/>
<path d="M450.642 325L470 223H431C440.271 256.404 446.863 290.544 450.642 325Z" fill="#2CA662"/>
<path d="M336 401H485V410.555C485 411.352 484.356 412 483.565 412H337.435C336.644 412 336 411.352 336 410.555V401Z" fill="#39D67E"/>
<path d="M455 412H480.367C483.472 412 486 409.475 486 406.346V401H455.215C455.17 404.663 455.113 408.337 455.011 412H455Z" fill="#2CA662"/>
<path d="M475 412H347V440H475V412Z" fill="#268E54"/>
<path d="M453 440H475V412H454.402C454.138 421.341 453.655 430.682 453.012 440H453Z" fill="#299B5B"/>
<path d="M334.073 440H485.938C496.797 440 506.121 447.664 508.133 458.262L535.832 653.835C537.265 663.959 529.351 673 519.049 673H300.951C290.649 673 282.735 663.959 284.168 653.835L311.867 458.262C313.891 447.675 323.214 440 334.062 440H334.073Z" fill="#36CA77"/>
<path d="M383.281 440L351 673H468L435.719 440H383.281Z" fill="#30B369"/>
<path d="M508.29 458.263C506.279 447.675 497.011 440 486.229 440H452.979C447.215 520.635 426.104 600.164 391 673H519.152C529.391 673 537.257 663.959 535.833 653.834L508.302 458.251L508.29 458.263Z" fill="#32BD70"/>
<path d="M445.704 499C435.714 559.217 417.292 618.004 391 673H470L445.704 499Z" fill="#2CA662"/>
<path d="M328.162 382C326.827 382 325.647 380.904 325.394 379.333L322.05 358.875C321.758 357.101 322.772 355.383 324.302 355.055C325.842 354.727 327.314 355.892 327.606 357.666L330.95 378.123C331.242 379.898 330.228 381.616 328.698 381.944C328.523 381.977 328.347 382 328.172 382H328.162Z" fill="#CDFFD8"/>
<path d="M322.494 345C320.845 345 319.388 343.891 319.075 342.301L302.062 256.925C301.701 255.129 302.953 253.391 304.843 253.059C306.746 252.716 308.564 253.905 308.925 255.701L325.938 341.077C326.299 342.873 325.047 344.611 323.157 344.943C322.94 344.977 322.723 345 322.506 345H322.494Z" fill="#CDFFD8"/>
<path d="M707.96 379V323H723.48V343.96H743.4V323H758.92V379H743.4V357.72H723.48V379H707.96ZM790.019 380.04C783.193 380.04 777.513 377.853 772.979 373.48C768.446 369.053 766.179 363.693 766.179 357.4C766.179 351.16 768.446 345.827 772.979 341.4C777.566 336.973 783.299 334.76 790.179 334.76C797.006 334.76 802.686 336.973 807.219 341.4C811.753 345.773 814.019 351.107 814.019 357.4C814.019 363.64 811.726 368.973 807.139 373.4C802.606 377.827 796.899 380.04 790.019 380.04ZM790.179 367.16C792.899 367.16 795.086 366.227 796.739 364.36C798.393 362.493 799.219 360.173 799.219 357.4C799.219 354.733 798.339 352.44 796.579 350.52C794.819 348.6 792.633 347.64 790.019 347.64C787.299 347.64 785.113 348.573 783.459 350.44C781.806 352.307 780.979 354.627 780.979 357.4C780.979 360.067 781.859 362.36 783.619 364.28C785.379 366.2 787.566 367.16 790.179 367.16ZM821.319 379V323H847.799C855.959 323 862.039 325 866.039 329C869.346 332.307 870.999 336.733 870.999 342.28C870.999 350.493 867.159 356.227 859.479 359.48L872.839 379H854.919L843.639 362.04H836.839V379H821.319ZM836.839 349.88H847.079C849.693 349.88 851.719 349.293 853.159 348.12C854.653 346.893 855.399 345.213 855.399 343.08C855.399 340.893 854.653 339.24 853.159 338.12C851.719 337 849.666 336.44 846.999 336.44H836.839V349.88ZM898.598 380.04C891.771 380.04 886.198 377.96 881.878 373.8C877.558 369.64 875.398 364.173 875.398 357.4C875.398 351 877.451 345.64 881.558 341.32C885.665 336.947 890.891 334.76 897.238 334.76C904.331 334.76 909.745 337 913.478 341.48C917.211 345.96 919.078 351.613 919.078 358.44C919.078 359.827 919.051 360.867 918.998 361.56H890.038C891.265 366.307 894.385 368.68 899.398 368.68C902.811 368.68 906.011 367.213 908.998 364.28L917.398 371.24C912.758 377.107 906.491 380.04 898.598 380.04ZM889.798 353.8H904.838C904.571 351.4 903.771 349.507 902.438 348.12C901.105 346.68 899.398 345.96 897.318 345.96C895.345 345.96 893.691 346.68 892.358 348.12C891.078 349.507 890.225 351.4 889.798 353.8ZM953.436 380.12C945.329 380.12 938.476 377.373 932.876 371.88C927.329 366.333 924.556 359.373 924.556 351C924.556 342.787 927.356 335.88 932.956 330.28C938.609 324.68 945.649 321.88 954.076 321.88C964.049 321.88 971.889 325.827 977.596 333.72L966.236 342.52C962.769 338.2 958.662 336.04 953.916 336.04C950.022 336.04 946.822 337.48 944.316 340.36C941.809 343.24 940.556 346.787 940.556 351C940.556 355.267 941.809 358.84 944.316 361.72C946.822 364.547 950.022 365.96 953.916 365.96C956.636 365.96 958.956 365.4 960.876 364.28C962.796 363.107 964.689 361.4 966.556 359.16L978.236 367.48C975.302 371.48 971.889 374.6 967.996 376.84C964.102 379.027 959.249 380.12 953.436 380.12ZM996.433 379.96C992.166 379.96 988.673 378.787 985.953 376.44C983.233 374.04 981.873 370.707 981.873 366.44C981.873 362.067 983.393 358.707 986.433 356.36C989.473 354.013 993.606 352.84 998.833 352.84C1002.62 352.84 1006.09 353.4 1009.23 354.52V353.8C1009.23 349.107 1006.35 346.76 1000.59 346.76C996.7 346.76 992.726 347.56 988.673 349.16L985.553 338.44C990.993 336.2 996.833 335.08 1003.07 335.08C1010.54 335.08 1016.03 336.84 1019.55 340.36C1022.65 343.4 1024.19 347.987 1024.19 354.12V379H1009.15V374.52C1005.9 378.147 1001.66 379.96 996.433 379.96ZM1001.87 370.44C1004.11 370.44 1005.93 369.8 1007.31 368.52C1008.7 367.187 1009.39 365.453 1009.39 363.32V361.32C1007.63 360.573 1005.66 360.2 1003.47 360.2C1001.29 360.2 999.58 360.707 998.353 361.72C997.126 362.68 996.513 364.013 996.513 365.72C996.513 367.16 996.993 368.307 997.953 369.16C998.966 370.013 1000.27 370.44 1001.87 370.44ZM1054.99 379V323H1100.03V336.2H1070.35V344.68H1097.23V356.92H1070.35V365.8H1100.43V379H1054.99ZM1104.03 379L1118.59 357.16L1104.27 335.72H1120.67L1127.07 346.36L1133.47 335.72H1149.55L1135.31 357.08L1149.87 379H1133.55L1126.83 367.88L1120.03 379H1104.03ZM1154.58 391.8V335.72H1169.78V341.48C1173.46 337 1177.83 334.76 1182.9 334.76C1188.23 334.76 1192.77 336.84 1196.5 341C1200.23 345.107 1202.1 350.547 1202.1 357.32C1202.1 364.147 1200.23 369.64 1196.5 373.8C1192.82 377.907 1188.31 379.96 1182.98 379.96C1177.75 379.96 1173.35 377.88 1169.78 373.72V391.8H1154.58ZM1178.26 367.24C1180.77 367.24 1182.87 366.307 1184.58 364.44C1186.29 362.573 1187.14 360.173 1187.14 357.24C1187.14 354.413 1186.29 352.093 1184.58 350.28C1182.87 348.413 1180.77 347.48 1178.26 347.48C1175.81 347.48 1173.73 348.413 1172.02 350.28C1170.31 352.147 1169.46 354.52 1169.46 357.4C1169.46 360.227 1170.31 362.573 1172.02 364.44C1173.73 366.307 1175.81 367.24 1178.26 367.24ZM1230.08 380.04C1223.26 380.04 1217.68 377.96 1213.36 373.8C1209.04 369.64 1206.88 364.173 1206.88 357.4C1206.88 351 1208.94 345.64 1213.04 341.32C1217.15 336.947 1222.38 334.76 1228.72 334.76C1235.82 334.76 1241.23 337 1244.96 341.48C1248.7 345.96 1250.56 351.613 1250.56 358.44C1250.56 359.827 1250.54 360.867 1250.48 361.56H1221.52C1222.75 366.307 1225.87 368.68 1230.88 368.68C1234.3 368.68 1237.5 367.213 1240.48 364.28L1248.88 371.24C1244.24 377.107 1237.98 380.04 1230.08 380.04ZM1221.28 353.8H1236.32C1236.06 351.4 1235.26 349.507 1233.92 348.12C1232.59 346.68 1230.88 345.96 1228.8 345.96C1226.83 345.96 1225.18 346.68 1223.84 348.12C1222.56 349.507 1221.71 351.4 1221.28 353.8ZM1257.08 379V335.72H1272.28V344.44C1275.05 337.88 1279.61 334.733 1285.96 335V351H1284.68C1276.41 351 1272.28 355.853 1272.28 365.56V379H1257.08ZM1308.5 379.88C1298.79 379.88 1293.94 375.107 1293.94 365.56V347.96H1288.82V335.72H1293.94V324.76H1309.14V335.72H1319.22V347.96H1309.14V362.6C1309.14 365.48 1310.53 366.92 1313.3 366.92C1315.11 366.92 1317.03 366.44 1319.06 365.48V377.4C1316.13 379.053 1312.61 379.88 1308.5 379.88ZM1342.95 379.96C1335.22 379.96 1328.39 377.827 1322.47 373.56L1328.15 364.36C1333.17 367.667 1338.13 369.32 1343.03 369.32C1345.59 369.32 1346.87 368.493 1346.87 366.84C1346.87 366.04 1346.34 365.4 1345.27 364.92C1344.26 364.44 1342.47 363.853 1339.91 363.16C1334.85 361.773 1331.01 360.12 1328.39 358.2C1325.83 356.227 1324.55 353.213 1324.55 349.16C1324.55 344.68 1326.15 341.187 1329.35 338.68C1332.61 336.12 1336.79 334.84 1341.91 334.84C1348.58 334.84 1354.53 336.52 1359.75 339.88L1354.55 349.48C1349.75 346.813 1345.49 345.48 1341.75 345.48C1339.41 345.48 1338.23 346.227 1338.23 347.72C1338.23 348.467 1338.74 349.107 1339.75 349.64C1340.77 350.12 1342.61 350.76 1345.27 351.56C1347.73 352.253 1349.75 352.947 1351.35 353.64C1352.95 354.28 1354.53 355.133 1356.07 356.2C1357.62 357.267 1358.77 358.573 1359.51 360.12C1360.26 361.613 1360.63 363.4 1360.63 365.48C1360.63 370.12 1359.03 373.693 1355.83 376.2C1352.63 378.707 1348.34 379.96 1342.95 379.96Z" fill="#F1E0C5"/>
<path d="M706.164 475V470.078L712.531 468.984V424.18L706.164 423.086V418.125H712.531H730.695C736.633 418.125 741.268 419.414 744.602 421.992C747.961 424.544 749.641 428.385 749.641 433.516C749.641 436.042 748.833 438.307 747.219 440.312C745.63 442.292 743.521 443.763 740.891 444.727C743.182 445.195 745.148 446.12 746.789 447.5C748.43 448.854 749.693 450.521 750.578 452.5C751.49 454.453 751.945 456.602 751.945 458.945C751.945 464.154 750.253 468.138 746.867 470.898C743.482 473.633 738.898 475 733.117 475H706.164ZM720.227 468.984H733.117C736.633 468.984 739.354 468.125 741.281 466.406C743.234 464.661 744.211 462.201 744.211 459.023C744.211 456.784 743.846 454.87 743.117 453.281C742.414 451.693 741.32 450.469 739.836 449.609C738.378 448.75 736.529 448.32 734.289 448.32H720.227V468.984ZM720.227 442.305H732.688C735.448 442.305 737.674 441.51 739.367 439.922C741.086 438.307 741.945 436.12 741.945 433.359C741.945 430.286 740.982 427.995 739.055 426.484C737.128 424.948 734.341 424.18 730.695 424.18H720.227V442.305ZM777.57 475.82C773.742 475.82 770.409 474.935 767.57 473.164C764.732 471.367 762.531 468.88 760.969 465.703C759.406 462.526 758.625 458.854 758.625 454.688V453.047C758.625 449.036 759.38 445.443 760.891 442.266C762.401 439.089 764.576 436.576 767.414 434.727C770.253 432.878 773.638 431.953 777.57 431.953C780.982 431.953 783.964 432.513 786.516 433.633C789.094 434.753 791.255 436.289 793 438.242L793.195 448.398H787.18L785.852 441.016C784.966 440.104 783.859 439.375 782.531 438.828C781.203 438.281 779.641 438.008 777.844 438.008C775.552 438.008 773.534 438.685 771.789 440.039C770.07 441.393 768.729 443.203 767.766 445.469C766.802 447.734 766.32 450.26 766.32 453.047V454.688C766.32 457.76 766.763 460.43 767.648 462.695C768.56 464.961 769.849 466.719 771.516 467.969C773.208 469.193 775.214 469.805 777.531 469.805C780.135 469.805 782.297 469.089 784.016 467.656C785.734 466.224 786.789 464.258 787.18 461.758H794.094L794.172 461.992C794.042 464.414 793.326 466.68 792.023 468.789C790.721 470.898 788.859 472.604 786.438 473.906C784.042 475.182 781.086 475.82 777.57 475.82ZM821.008 475.82C817.102 475.82 813.703 474.935 810.812 473.164C807.922 471.367 805.682 468.88 804.094 465.703C802.531 462.526 801.75 458.854 801.75 454.688V452.969C801.75 448.958 802.57 445.378 804.211 442.227C805.878 439.049 808.078 436.549 810.812 434.727C813.573 432.878 816.581 431.953 819.836 431.953C823.638 431.953 826.815 432.734 829.367 434.297C831.945 435.859 833.885 438.06 835.188 440.898C836.49 443.711 837.141 447.031 837.141 450.859V455.664H809.719L809.602 455.859C809.654 458.568 810.122 460.977 811.008 463.086C811.919 465.169 813.221 466.81 814.914 468.008C816.607 469.206 818.638 469.805 821.008 469.805C823.612 469.805 825.891 469.44 827.844 468.711C829.823 467.956 831.529 466.927 832.961 465.625L835.969 470.625C834.458 472.083 832.453 473.32 829.953 474.336C827.479 475.326 824.497 475.82 821.008 475.82ZM809.953 449.648H829.445V448.633C829.445 446.602 829.081 444.792 828.352 443.203C827.648 441.589 826.581 440.326 825.148 439.414C823.742 438.477 821.971 438.008 819.836 438.008C818.117 438.008 816.555 438.516 815.148 439.531C813.742 440.521 812.583 441.875 811.672 443.594C810.76 445.312 810.161 447.266 809.875 449.453L809.953 449.648ZM824.016 422.305V414.062H832.102V422.305H824.016ZM807.492 422.305V414.062H815.578V422.305H807.492ZM882.18 475.82C878.352 475.82 875.018 474.935 872.18 473.164C869.341 471.367 867.141 468.88 865.578 465.703C864.016 462.526 863.234 458.854 863.234 454.688V453.047C863.234 449.036 863.99 445.443 865.5 442.266C867.01 439.089 869.185 436.576 872.023 434.727C874.862 432.878 878.247 431.953 882.18 431.953C885.591 431.953 888.573 432.513 891.125 433.633C893.703 434.753 895.865 436.289 897.609 438.242L897.805 448.398H891.789L890.461 441.016C889.576 440.104 888.469 439.375 887.141 438.828C885.812 438.281 884.25 438.008 882.453 438.008C880.161 438.008 878.143 438.685 876.398 440.039C874.68 441.393 873.339 443.203 872.375 445.469C871.411 447.734 870.93 450.26 870.93 453.047V454.688C870.93 457.76 871.372 460.43 872.258 462.695C873.169 464.961 874.458 466.719 876.125 467.969C877.818 469.193 879.823 469.805 882.141 469.805C884.745 469.805 886.906 469.089 888.625 467.656C890.344 466.224 891.398 464.258 891.789 461.758H898.703L898.781 461.992C898.651 464.414 897.935 466.68 896.633 468.789C895.331 470.898 893.469 472.604 891.047 473.906C888.651 475.182 885.695 475.82 882.18 475.82ZM904.602 475L904.719 468.438L906.32 468.398C908.169 468.398 909.628 467.826 910.695 466.68C911.763 465.508 912.531 463.633 913 461.055C913.469 458.451 913.703 455.026 913.703 450.781V438.789L907.336 437.695V432.734H943.43H949.797V437.695L943.43 438.789V468.984L949.797 470.078V475H929.367V470.078L935.734 468.984V438.828H921.398V450.781C921.398 459.115 920.292 465.234 918.078 469.141C915.891 473.047 912.128 475 906.789 475H904.602ZM975.305 475.82C971.398 475.82 968.026 474.909 965.188 473.086C962.375 471.237 960.201 468.698 958.664 465.469C957.128 462.214 956.359 458.503 956.359 454.336V453.477C956.359 449.31 957.128 445.612 958.664 442.383C960.201 439.128 962.375 436.576 965.188 434.727C968.026 432.878 971.372 431.953 975.227 431.953C979.133 431.953 982.492 432.878 985.305 434.727C988.143 436.576 990.331 439.115 991.867 442.344C993.404 445.573 994.172 449.284 994.172 453.477V454.336C994.172 458.529 993.404 462.253 991.867 465.508C990.331 468.737 988.156 471.263 985.344 473.086C982.531 474.909 979.185 475.82 975.305 475.82ZM975.305 469.805C977.753 469.805 979.797 469.141 981.438 467.812C983.104 466.458 984.354 464.622 985.188 462.305C986.047 459.961 986.477 457.305 986.477 454.336V453.477C986.477 450.508 986.047 447.865 985.188 445.547C984.354 443.203 983.104 441.367 981.438 440.039C979.771 438.685 977.701 438.008 975.227 438.008C972.779 438.008 970.721 438.685 969.055 440.039C967.388 441.367 966.138 443.203 965.305 445.547C964.471 447.865 964.055 450.508 964.055 453.477V454.336C964.055 457.305 964.471 459.961 965.305 462.305C966.138 464.622 967.388 466.458 969.055 467.812C970.747 469.141 972.831 469.805 975.305 469.805ZM998.898 475V470.078L1004.91 469.219L1015.89 452.891L1008.82 442.266C1008.07 441.146 1007.26 440.273 1006.4 439.648C1005.57 439.023 1004.61 438.711 1003.55 438.711C1003 438.711 1002.65 438.724 1002.49 438.75C1002.34 438.776 1001.7 438.88 1000.58 439.062L999.484 433.828C1000.45 433.203 1001.32 432.747 1002.1 432.461C1002.88 432.148 1003.89 431.992 1005.11 431.992C1007.06 431.992 1008.85 432.578 1010.46 433.75C1012.1 434.922 1013.57 436.589 1014.88 438.75L1022.18 450.586H1026.83V438.789L1020.46 437.695V432.734H1040.89V437.695L1034.52 438.789V450.586H1039.56L1046.87 438.75C1048.14 436.589 1049.59 434.922 1051.2 433.75C1052.84 432.578 1054.67 431.992 1056.67 431.992C1057.87 431.992 1058.86 432.148 1059.64 432.461C1060.45 432.773 1061.32 433.229 1062.26 433.828L1061.2 439.062C1060.08 438.88 1059.43 438.776 1059.25 438.75C1059.09 438.724 1058.76 438.711 1058.23 438.711C1057.14 438.711 1056.16 439.023 1055.3 439.648C1054.45 440.273 1053.66 441.146 1052.96 442.266L1045.66 453.203L1056.48 469.219L1062.45 470.078V475H1050.66L1039.68 457.07H1034.52V468.984L1040.89 470.078V475H1020.46V470.078L1026.83 468.984V457.07H1021.63L1010.7 475H998.898ZM1068.66 475V470.078L1075.03 468.984V438.789L1068.66 437.695V432.734H1082.69H1089.05V437.695L1082.69 438.789V462.656L1082.92 462.734L1101.55 432.734H1109.25H1115.62V437.695L1109.25 438.789V468.984L1115.62 470.078V475H1095.19V470.078L1101.55 468.984V445.078L1101.32 445L1082.69 475H1068.66ZM1132.14 475V470.078L1138.51 468.984V438.711H1129.6L1129.02 445.312H1122.45V432.734H1162.45V445.312H1155.85L1155.27 438.711H1146.2V468.984L1152.57 470.078V475H1132.14ZM1184.6 475.82C1180.77 475.82 1177.44 474.935 1174.6 473.164C1171.76 471.367 1169.56 468.88 1168 465.703C1166.44 462.526 1165.66 458.854 1165.66 454.688V453.047C1165.66 449.036 1166.41 445.443 1167.92 442.266C1169.43 439.089 1171.61 436.576 1174.45 434.727C1177.28 432.878 1180.67 431.953 1184.6 431.953C1188.01 431.953 1190.99 432.513 1193.55 433.633C1196.12 434.753 1198.29 436.289 1200.03 438.242L1200.23 448.398H1194.21L1192.88 441.016C1192 440.104 1190.89 439.375 1189.56 438.828C1188.23 438.281 1186.67 438.008 1184.88 438.008C1182.58 438.008 1180.57 438.685 1178.82 440.039C1177.1 441.393 1175.76 443.203 1174.8 445.469C1173.83 447.734 1173.35 450.26 1173.35 453.047V454.688C1173.35 457.76 1173.79 460.43 1174.68 462.695C1175.59 464.961 1176.88 466.719 1178.55 467.969C1180.24 469.193 1182.24 469.805 1184.56 469.805C1187.17 469.805 1189.33 469.089 1191.05 467.656C1192.77 466.224 1193.82 464.258 1194.21 461.758H1201.12L1201.2 461.992C1201.07 464.414 1200.36 466.68 1199.05 468.789C1197.75 470.898 1195.89 472.604 1193.47 473.906C1191.07 475.182 1188.12 475.82 1184.6 475.82ZM1206.87 475V470.078L1212.41 469.258L1219.64 457.461C1216.96 456.497 1214.89 454.974 1213.43 452.891C1212 450.807 1211.28 448.398 1211.28 445.664C1211.28 443.138 1211.93 440.898 1213.23 438.945C1214.54 436.992 1216.4 435.469 1218.82 434.375C1221.24 433.281 1224.13 432.734 1227.49 432.734H1251.71V437.695L1245.34 438.789V468.984L1251.71 470.078V475H1231.28V470.078L1237.65 468.984V458.594H1227.22L1217.22 475H1206.87ZM1226.71 452.539H1237.65V438.711H1227.49C1224.71 438.711 1222.6 439.414 1221.16 440.82C1219.73 442.201 1219.02 443.841 1219.02 445.742C1219.02 447.617 1219.65 449.219 1220.93 450.547C1222.23 451.875 1224.16 452.539 1226.71 452.539ZM1260.77 456.328V418.125H1268.47V456.328H1260.77ZM1260.77 475V467.031H1268.47V475H1260.77Z" fill="#3ADA80"/>
</g>
<defs>
<clipPath id="clip0_117_1616">
<rect width="1600" height="816" fill="white"/>
</clipPath>
</defs>
</svg>
