<svg width="76" height="76" viewBox="0 0 76 76" fill="none" xmlns="http://www.w3.org/2000/svg">
<path d="M38 0C17.0468 0 0 17.0468 0 38C0 58.9532 17.0468 76 38 76C58.9532 76 76 58.9532 76 38C76 17.0468 58.9532 0 38 0ZM38 74.2581C17.9755 74.2581 1.74192 58.0245 1.74192 38C1.74192 17.9755 17.9755 1.74192 38 1.74192C58.0245 1.74192 74.2581 17.9755 74.2581 38C74.2581 58.0245 58.0245 74.2581 38 74.2581Z" fill="#092327"/>
<path d="M54.1454 56.5984C54.0603 56.5513 53.9813 56.4814 53.9068 56.3886C53.8338 56.2959 53.7958 56.191 53.7958 56.074V55.6089H52.2241C52.1466 56.1135 52.1071 56.4631 52.1071 56.6562C52.1071 57.0681 52.2105 57.3994 52.4157 57.6518C52.6209 57.9041 52.8869 58.1154 53.2137 58.2871L55.4253 59.4514V60.4987H52.2241V62.5948H60.3729V60.4987H57.0547V59.4514L60.3729 57.6472V55.4341L56.24 57.7034L54.1454 56.5984Z" fill="#092327"/>
<path d="M60.3731 44.1405H55.8328L58.7436 42.511V40.8816L55.8328 39.2506H60.3731V37.1561H52.2243V39.3677L56.532 41.6963L52.2243 44.025V46.2365H60.3731V44.1405Z" fill="#092327"/>
<path d="M60.3731 33.6638H57.0549V30.753H60.3731V28.6569H52.2243V30.753H55.4255V33.6638H52.2243V35.7584H60.3731V33.6638Z" fill="#092327"/>
<path d="M60.3731 25.8052L58.9184 25.2808V22.37L60.3731 21.8456V19.5747L52.2243 22.6603V24.9889L60.3731 28.0745V25.8052ZM57.4045 24.7579L54.6685 23.8261L57.4045 22.8944V24.7579Z" fill="#092327"/>
<path d="M53.8538 17.9461H60.3731V15.85H53.8538V13.4059H52.2243V20.3903H53.8538V17.9461Z" fill="#092327"/>
<path d="M58.1613 47.4013H54.4357C53.621 47.4013 53.0297 47.5867 52.6604 47.9546C52.291 48.3239 52.1071 48.9152 52.1071 49.7299V52.6407C52.1071 53.4555 52.291 54.0483 52.6604 54.4161C53.0297 54.7855 53.621 54.9694 54.4357 54.9694H58.1613C58.976 54.9694 59.5688 54.7855 59.9366 54.4161C60.306 54.0483 60.4899 53.4555 60.4899 52.6407V49.7299C60.4899 48.9152 60.306 48.3239 59.9366 47.9546C59.5688 47.5852 58.976 47.4013 58.1613 47.4013ZM58.8589 52.5632L56.8784 52.0297C56.5865 52.5313 56.0485 52.8718 55.4253 52.8718C54.4935 52.8718 53.7381 52.1163 53.7381 51.1846C53.7381 50.2528 54.4935 49.4974 55.4253 49.4974C56.0485 49.4974 56.5865 49.8379 56.8784 50.341L58.8589 49.8075V52.5632Z" fill="#092327"/>
<path d="M38.0455 15.8941C36.413 15.8941 34.855 16.2164 33.4292 16.7955V15.1478V13.4059H31.6873H21.5033H20.3481L19.8982 14.4699L10.5183 36.6999L9.87231 38.232L11.3725 38.948L13.7437 40.0804L14.9081 40.6367L15.779 39.6836L19.7599 35.3319V60.8512V62.5931H21.5018H31.6858H33.4277V60.8512V58.8615H48.6232H50.3651V57.1196V46.6057V44.8638H48.6247H45.647H44.4629L44.0267 45.9658L42.0264 51.0228L33.4277 50.0911V43.3408H48.6232H50.3651V41.5988V28.2152C50.3666 21.4208 44.8384 15.8941 38.0455 15.8941ZM31.6858 60.8512H21.5018V30.8464L14.4946 38.5087L12.1234 37.3763L21.5018 15.1463H31.6858V17.6634C28.1153 19.8233 25.7228 23.7434 25.7228 28.2137V30.9756V33.0884L27.7977 32.6856L31.6858 31.9286V35.9125L27.1319 36.7987L25.7228 37.0723V38.5072V57.1165V58.8584H27.4648H31.6858V60.8512ZM48.6247 28.2152V41.5988H31.6858V51.6536L43.1588 52.897L45.647 46.6057H48.6247V57.1196H31.6858H27.4648V38.5102L44.4021 35.2164V29.4784C44.4021 29.2352 44.3854 28.9965 44.358 28.7594C44.2896 28.1499 44.1361 27.5647 43.9066 27.0205C43.8458 26.8776 43.7804 26.7378 43.7105 26.601C43.5707 26.3274 43.4111 26.0644 43.2332 25.8152C43.1451 25.6905 43.0524 25.5689 42.9551 25.4519C42.6632 25.0992 42.3349 24.777 41.9732 24.4943C41.4928 24.1173 40.9563 23.8072 40.3772 23.5792C39.6536 23.295 38.8663 23.1384 38.0424 23.1384C36.2215 23.1384 34.5844 23.906 33.4262 25.1281C33.3274 25.2315 33.2286 25.3348 33.1359 25.4458C33.0067 25.6024 32.8836 25.765 32.7696 25.9337C32.084 26.946 31.6843 28.1666 31.6843 29.4799V30.1578L29.3465 30.6123L27.4632 30.9786V28.2168C27.4632 26.8472 27.7232 25.5385 28.1974 24.3377C28.4816 23.6172 28.8419 22.9348 29.2705 22.3024C29.6505 21.74 30.0837 21.2156 30.5625 20.7368C30.6826 20.6168 30.8042 20.4997 30.9304 20.3872C31.172 20.1684 31.4244 19.9601 31.6858 19.7625C31.8302 19.6531 31.9776 19.5467 32.1296 19.4448C32.3516 19.2944 32.5811 19.156 32.8137 19.0238C33.0143 18.9098 33.2195 18.7988 33.4277 18.697C33.5919 18.618 33.7576 18.5404 33.9263 18.4705C35.1924 17.9355 36.5832 17.6391 38.044 17.6391C40.783 17.6391 43.2788 18.6803 45.1576 20.3872C45.4084 20.6152 45.647 20.8539 45.875 21.1047C46.103 21.3555 46.3188 21.6169 46.521 21.8875C46.825 22.2948 47.1016 22.725 47.3464 23.1749C48.1611 24.6706 48.6247 26.3897 48.6247 28.2152ZM33.4277 35.5751V31.5912V30.1563V29.4784C33.4277 26.9415 35.4995 24.8788 38.044 24.8788C39.9075 24.8788 41.5795 25.9854 42.303 27.6984C42.5401 28.2624 42.6617 28.8612 42.6617 29.4784V33.78L33.4277 35.5751Z" fill="#092327"/>
</svg>
