<svg width="1600" height="713" viewBox="0 0 1600 713" fill="none" xmlns="http://www.w3.org/2000/svg">
<path d="M290.61 351.18C288.53 353.3 285.9 354.36 282.72 354.36C279.54 354.36 276.92 353.31 274.86 351.21C272.8 349.11 271.77 346.54 271.77 343.5C271.77 340.5 272.81 337.94 274.89 335.82C276.97 333.7 279.6 332.64 282.78 332.64C285.96 332.64 288.58 333.69 290.64 335.79C292.7 337.89 293.73 340.46 293.73 343.5C293.73 346.5 292.69 349.06 290.61 351.18ZM277.65 348.81C279.01 350.25 280.72 350.97 282.78 350.97C284.84 350.97 286.53 350.25 287.85 348.81C289.19 347.37 289.86 345.6 289.86 343.5C289.86 341.42 289.18 339.66 287.82 338.22C286.48 336.76 284.78 336.03 282.72 336.03C280.66 336.03 278.96 336.75 277.62 338.19C276.3 339.63 275.64 341.4 275.64 343.5C275.64 345.58 276.31 347.35 277.65 348.81ZM301.158 354V341.28H296.058V338.16H309.918V341.28H304.818V354H301.158ZM312.798 354V338.16H316.398V345.75L323.298 338.16H327.558L321.408 344.82L328.068 354H323.778L318.978 347.46L316.398 350.19V354H312.798ZM330.581 358.8V338.16H334.211V340.8C335.611 338.82 337.401 337.83 339.581 337.83C341.581 337.83 343.311 338.58 344.771 340.08C346.231 341.56 346.961 343.57 346.961 346.11C346.961 348.61 346.231 350.61 344.771 352.11C343.311 353.59 341.581 354.33 339.581 354.33C337.401 354.33 335.611 353.4 334.211 351.54V358.8H330.581ZM338.741 351.18C340.021 351.18 341.091 350.71 341.951 349.77C342.831 348.83 343.271 347.59 343.271 346.05C343.271 344.55 342.831 343.33 341.951 342.39C341.071 341.45 340.001 340.98 338.741 340.98C337.481 340.98 336.391 341.46 335.471 342.42C334.571 343.38 334.121 344.61 334.121 346.11C334.121 347.59 334.571 348.81 335.471 349.77C336.391 350.71 337.481 351.18 338.741 351.18ZM350.678 354V338.16H354.308V343.71H357.638C359.518 343.71 361.038 344.13 362.198 344.97C363.358 345.81 363.938 347.06 363.938 348.72C363.938 350.36 363.398 351.65 362.318 352.59C361.238 353.53 359.768 354 357.908 354H350.678ZM354.308 351.06H357.428C358.348 351.06 359.058 350.86 359.558 350.46C360.058 350.06 360.308 349.48 360.308 348.72C360.308 348.02 360.048 347.48 359.528 347.1C359.028 346.72 358.308 346.53 357.368 346.53H354.308V351.06ZM366.338 354V338.16H369.968V354H366.338ZM377.916 354V341.28H372.816V338.16H386.676V341.28H381.576V354H377.916ZM389.555 354V338.16H393.185V343.71H396.815C398.695 343.71 400.215 344.13 401.375 344.97C402.535 345.81 403.115 347.06 403.115 348.72C403.115 350.36 402.575 351.65 401.495 352.59C400.415 353.53 398.945 354 397.085 354H389.555ZM393.185 351.06H396.605C397.525 351.06 398.235 350.86 398.735 350.46C399.235 350.06 399.485 349.48 399.485 348.72C399.485 348.02 399.225 347.48 398.705 347.1C398.205 346.72 397.485 346.53 396.545 346.53H393.185V351.06ZM420.678 354.36C417.958 354.36 415.648 353.55 413.748 351.93L415.458 349.53C416.938 350.79 418.598 351.42 420.438 351.42C421.278 351.42 421.988 351.22 422.568 350.82C423.148 350.4 423.438 349.87 423.438 349.23C423.438 348.63 423.158 348.15 422.598 347.79C422.038 347.43 421.248 347.25 420.228 347.25H418.278V344.64H420.228C421.068 344.64 421.738 344.45 422.238 344.07C422.758 343.67 423.018 343.17 423.018 342.57C423.018 342.03 422.768 341.6 422.268 341.28C421.788 340.94 421.168 340.77 420.408 340.77C418.648 340.77 417.148 341.31 415.908 342.39L414.288 340.11C416.028 338.59 418.178 337.83 420.738 337.83C422.478 337.83 423.898 338.23 424.998 339.03C426.098 339.83 426.648 340.85 426.648 342.09C426.648 343.77 425.818 344.97 424.158 345.69C426.078 346.37 427.038 347.65 427.038 349.53C427.038 350.89 426.448 352.04 425.268 352.98C424.088 353.9 422.558 354.36 420.678 354.36ZM444.095 354H440.495V352.05C439.215 353.57 437.505 354.33 435.365 354.33C433.785 354.33 432.445 353.9 431.345 353.04C430.265 352.16 429.725 350.94 429.725 349.38C429.725 347.68 430.315 346.39 431.495 345.51C432.675 344.63 434.225 344.19 436.145 344.19C437.685 344.19 439.145 344.41 440.525 344.85V344.55C440.525 343.45 440.185 342.61 439.505 342.03C438.845 341.45 437.885 341.16 436.625 341.16C435.185 341.16 433.675 341.49 432.095 342.15L431.105 339.24C433.065 338.36 435.075 337.92 437.135 337.92C439.435 337.92 441.165 338.5 442.325 339.66C443.505 340.82 444.095 342.47 444.095 344.61V354ZM440.585 348.27V347.37C439.505 346.95 438.295 346.74 436.955 346.74C435.815 346.74 434.925 346.96 434.285 347.4C433.645 347.84 433.325 348.46 433.325 349.26C433.325 349.98 433.615 350.55 434.195 350.97C434.775 351.39 435.505 351.6 436.385 351.6C437.605 351.6 438.605 351.29 439.385 350.67C440.185 350.05 440.585 349.25 440.585 348.27ZM448.413 354V338.16H456.543C458.123 338.16 459.383 338.52 460.323 339.24C461.283 339.94 461.763 340.9 461.763 342.12C461.763 343.78 460.913 344.99 459.213 345.75C461.393 346.37 462.483 347.69 462.483 349.71C462.483 351.05 461.953 352.1 460.893 352.86C459.853 353.62 458.433 354 456.633 354H448.413ZM451.983 351.12H456.093C456.953 351.12 457.613 350.94 458.073 350.58C458.553 350.2 458.793 349.7 458.793 349.08C458.793 348.48 458.543 348.01 458.043 347.67C457.563 347.33 456.853 347.16 455.913 347.16H451.983V351.12ZM451.983 344.7H455.703C456.443 344.7 457.023 344.52 457.443 344.16C457.863 343.8 458.073 343.33 458.073 342.75C458.073 342.21 457.883 341.78 457.503 341.46C457.123 341.12 456.543 340.95 455.763 340.95H451.983V344.7ZM473.368 354.36C471.048 354.36 469.108 353.59 467.548 352.05C466.008 350.51 465.238 348.52 465.238 346.08C465.238 343.78 465.968 341.83 467.428 340.23C468.888 338.63 470.738 337.83 472.978 337.83C475.378 337.83 477.238 338.65 478.558 340.29C479.898 341.91 480.568 343.93 480.568 346.35C480.568 346.79 480.548 347.13 480.508 347.37H468.868C469.068 348.63 469.578 349.62 470.398 350.34C471.218 351.04 472.228 351.39 473.428 351.39C474.988 351.39 476.418 350.76 477.718 349.5L479.848 351.39C478.208 353.37 476.048 354.36 473.368 354.36ZM468.838 344.97H476.968C476.848 343.75 476.438 342.75 475.738 341.97C475.038 341.19 474.108 340.8 472.948 340.8C471.848 340.8 470.928 341.19 470.188 341.97C469.448 342.73 468.998 343.73 468.838 344.97ZM482.384 357.81V350.88H484.094C485.274 348.52 485.864 344.93 485.864 340.11V338.16H498.134V350.88H500.384L499.904 357.81H496.874V354H485.774L485.414 357.81H482.384ZM487.814 350.88H494.504V341.28H489.284V343.38C489.284 346.32 488.794 348.82 487.814 350.88ZM510.663 354.36C508.343 354.36 506.403 353.59 504.843 352.05C503.303 350.51 502.533 348.52 502.533 346.08C502.533 343.78 503.263 341.83 504.723 340.23C506.183 338.63 508.033 337.83 510.273 337.83C512.673 337.83 514.533 338.65 515.853 340.29C517.193 341.91 517.863 343.93 517.863 346.35C517.863 346.79 517.843 347.13 517.803 347.37H506.163C506.363 348.63 506.873 349.62 507.693 350.34C508.513 351.04 509.523 351.39 510.723 351.39C512.283 351.39 513.713 350.76 515.013 349.5L517.143 351.39C515.503 353.37 513.343 354.36 510.663 354.36ZM506.133 344.97H514.263C514.143 343.75 513.733 342.75 513.033 341.97C512.333 341.19 511.403 340.8 510.243 340.8C509.143 340.8 508.223 341.19 507.483 341.97C506.743 342.73 506.293 343.73 506.133 344.97ZM521.509 354V338.16H525.139V344.58H532.129V338.16H535.759V354H532.129V347.61H525.139V354H521.509ZM540.317 354V338.16H543.857V348.78C547.177 344.06 549.677 340.52 551.357 338.16H554.777V354H551.267V343.44L543.737 354H540.317ZM566.591 354.36C564.271 354.36 562.331 353.59 560.771 352.05C559.231 350.51 558.461 348.52 558.461 346.08C558.461 343.78 559.191 341.83 560.651 340.23C562.111 338.63 563.961 337.83 566.201 337.83C568.601 337.83 570.461 338.65 571.781 340.29C573.121 341.91 573.791 343.93 573.791 346.35C573.791 346.79 573.771 347.13 573.731 347.37H562.091C562.291 348.63 562.801 349.62 563.621 350.34C564.441 351.04 565.451 351.39 566.651 351.39C568.211 351.39 569.641 350.76 570.941 349.5L573.071 351.39C571.431 353.37 569.271 354.36 566.591 354.36ZM562.061 344.97H570.191C570.071 343.75 569.661 342.75 568.961 341.97C568.261 341.19 567.331 340.8 566.171 340.8C565.071 340.8 564.151 341.19 563.411 341.97C562.671 342.73 562.221 343.73 562.061 344.97Z" fill="#F1E0C5"/>
<path d="M690.93 354.36C687.57 354.36 684.65 353.23 682.17 350.97L683.58 349.32C685.7 351.32 688.16 352.32 690.96 352.32C692.3 352.32 693.45 351.95 694.41 351.21C695.37 350.45 695.85 349.47 695.85 348.27C695.85 346.97 695.33 346 694.29 345.36C693.25 344.72 691.88 344.4 690.18 344.4H687.87V342.45H690.18C691.7 342.45 692.93 342.1 693.87 341.4C694.83 340.68 695.31 339.71 695.31 338.49C695.31 337.41 694.86 336.52 693.96 335.82C693.08 335.1 691.95 334.74 690.57 334.74C688.21 334.74 686.15 335.53 684.39 337.11L683.01 335.46C684.11 334.52 685.25 333.82 686.43 333.36C687.63 332.9 689.03 332.67 690.63 332.67C692.71 332.67 694.41 333.2 695.73 334.26C697.05 335.32 697.71 336.66 697.71 338.28C697.71 340.66 696.43 342.31 693.87 343.23C695.21 343.63 696.28 344.26 697.08 345.12C697.88 345.98 698.28 347.07 698.28 348.39C698.28 350.09 697.59 351.51 696.21 352.65C694.85 353.79 693.09 354.36 690.93 354.36ZM707.272 354.33C705.692 354.33 704.332 353.9 703.192 353.04C702.052 352.18 701.482 350.98 701.482 349.44C701.482 347.82 702.082 346.57 703.282 345.69C704.482 344.81 706.092 344.37 708.112 344.37C709.712 344.37 711.292 344.59 712.852 345.03V344.55C712.852 343.19 712.452 342.15 711.652 341.43C710.852 340.71 709.722 340.35 708.262 340.35C706.742 340.35 705.172 340.72 703.552 341.46L702.862 339.57C704.782 338.69 706.662 338.25 708.502 338.25C710.702 338.25 712.372 338.82 713.512 339.96C714.592 341.04 715.132 342.56 715.132 344.52V354H712.852V351.69C711.472 353.45 709.612 354.33 707.272 354.33ZM707.722 352.47C709.162 352.47 710.382 352.08 711.382 351.3C712.382 350.52 712.882 349.52 712.882 348.3V346.86C711.362 346.42 709.852 346.2 708.352 346.2C706.932 346.2 705.822 346.49 705.022 347.07C704.222 347.63 703.822 348.4 703.822 349.38C703.822 350.32 704.192 351.07 704.932 351.63C705.692 352.19 706.622 352.47 707.722 352.47ZM720.025 354V338.49H727.525C729.065 338.49 730.295 338.84 731.215 339.54C732.135 340.24 732.595 341.18 732.595 342.36C732.595 344.02 731.735 345.21 730.015 345.93C732.295 346.55 733.435 347.83 733.435 349.77C733.435 351.07 732.925 352.1 731.905 352.86C730.885 353.62 729.515 354 727.795 354H720.025ZM722.335 352.02H727.495C728.595 352.02 729.465 351.79 730.105 351.33C730.745 350.87 731.065 350.23 731.065 349.41C731.065 348.65 730.725 348.06 730.045 347.64C729.385 347.22 728.435 347.01 727.195 347.01H722.335V352.02ZM722.335 345.15H727.105C728.065 345.15 728.825 344.94 729.385 344.52C729.965 344.08 730.255 343.46 730.255 342.66C730.255 342 729.985 341.47 729.445 341.07C728.905 340.67 728.145 340.47 727.165 340.47H722.335V345.15ZM744.383 354.36C742.203 354.36 740.363 353.61 738.863 352.11C737.383 350.59 736.643 348.64 736.643 346.26C736.643 344 737.353 342.09 738.773 340.53C740.193 338.95 741.963 338.16 744.083 338.16C746.303 338.16 748.063 338.94 749.363 340.5C750.663 342.06 751.313 344.02 751.313 346.38C751.313 346.68 751.303 346.95 751.283 347.19H738.983C739.143 348.77 739.733 350.03 740.753 350.97C741.793 351.89 743.023 352.35 744.443 352.35C746.303 352.35 747.933 351.62 749.333 350.16L750.773 351.45C749.033 353.39 746.903 354.36 744.383 354.36ZM738.983 345.33H748.973C748.833 343.83 748.333 342.59 747.473 341.61C746.633 340.61 745.483 340.11 744.023 340.11C742.703 340.11 741.573 340.6 740.633 341.58C739.693 342.56 739.143 343.81 738.983 345.33ZM753.077 357.87V351.96H754.757C756.137 349.42 756.827 345.83 756.827 341.19V338.49H767.867V351.96H770.207L769.847 357.87H767.927V354H755.387L754.967 357.87H753.077ZM757.217 351.96H765.557V340.53H759.047V342.69C759.047 346.59 758.437 349.68 757.217 351.96ZM780.155 354.36C777.975 354.36 776.135 353.61 774.635 352.11C773.155 350.59 772.415 348.64 772.415 346.26C772.415 344 773.125 342.09 774.545 340.53C775.965 338.95 777.735 338.16 779.855 338.16C782.075 338.16 783.835 338.94 785.135 340.5C786.435 342.06 787.085 344.02 787.085 346.38C787.085 346.68 787.075 346.95 787.055 347.19H774.755C774.915 348.77 775.505 350.03 776.525 350.97C777.565 351.89 778.795 352.35 780.215 352.35C782.075 352.35 783.705 351.62 785.105 350.16L786.545 351.45C784.805 353.39 782.675 354.36 780.155 354.36ZM774.755 345.33H784.745C784.605 343.83 784.105 342.59 783.245 341.61C782.405 340.61 781.255 340.11 779.795 340.11C778.475 340.11 777.345 340.6 776.405 341.58C775.465 342.56 774.915 343.81 774.755 345.33ZM791.129 354V338.49H793.439V345.18H802.379V338.49H804.689V354H802.379V347.22H793.439V354H791.129ZM809.85 354V338.49H812.16V350.76L821.37 338.49H823.62V354H821.31V341.73L812.07 354H809.85ZM835.555 354.36C833.375 354.36 831.535 353.61 830.035 352.11C828.555 350.59 827.815 348.64 827.815 346.26C827.815 344 828.525 342.09 829.945 340.53C831.365 338.95 833.135 338.16 835.255 338.16C837.475 338.16 839.235 338.94 840.535 340.5C841.835 342.06 842.485 344.02 842.485 346.38C842.485 346.68 842.475 346.95 842.455 347.19H830.155C830.315 348.77 830.905 350.03 831.925 350.97C832.965 351.89 834.195 352.35 835.615 352.35C837.475 352.35 839.105 351.62 840.505 350.16L841.945 351.45C840.205 353.39 838.075 354.36 835.555 354.36ZM830.155 345.33H840.145C840.005 343.83 839.505 342.59 838.645 341.61C837.805 340.61 836.655 340.11 835.195 340.11C833.875 340.11 832.745 340.6 831.805 341.58C830.865 342.56 830.315 343.81 830.155 345.33ZM857.923 358.89C856.803 358.89 855.703 358.63 854.623 358.11L855.403 356.28C856.143 356.66 856.953 356.85 857.833 356.85C858.533 356.85 859.123 356.63 859.603 356.19C860.083 355.77 860.553 355.02 861.013 353.94L853.963 338.49H856.513L862.153 351.42L867.133 338.49H869.593L863.083 354.51C862.423 356.09 861.693 357.21 860.893 357.87C860.093 358.55 859.103 358.89 857.923 358.89ZM871.268 354L877.628 345.12L871.598 338.49H874.388L882.278 347.49V338.49H884.588V347.49L892.478 338.49H895.268L889.238 345.12L895.598 354H892.898L887.738 346.77L884.588 350.22V354H882.278V350.22L879.128 346.77L873.968 354H871.268ZM905.546 354.36C903.366 354.36 901.526 353.61 900.026 352.11C898.546 350.59 897.806 348.64 897.806 346.26C897.806 344 898.516 342.09 899.936 340.53C901.356 338.95 903.126 338.16 905.246 338.16C907.466 338.16 909.226 338.94 910.526 340.5C911.826 342.06 912.476 344.02 912.476 346.38C912.476 346.68 912.466 346.95 912.446 347.19H900.146C900.306 348.77 900.896 350.03 901.916 350.97C902.956 351.89 904.186 352.35 905.606 352.35C907.466 352.35 909.096 351.62 910.496 350.16L911.936 351.45C910.196 353.39 908.066 354.36 905.546 354.36ZM900.146 345.33H910.136C909.996 343.83 909.496 342.59 908.636 341.61C907.796 340.61 906.646 340.11 905.186 340.11C903.866 340.11 902.736 340.6 901.796 341.58C900.856 342.56 900.306 343.81 900.146 345.33ZM925.514 358.8V338.49H927.824V341.61C929.384 339.31 931.364 338.16 933.764 338.16C935.744 338.16 937.474 338.9 938.954 340.38C940.434 341.84 941.174 343.8 941.174 346.26C941.174 348.68 940.434 350.63 938.954 352.11C937.474 353.59 935.744 354.33 933.764 354.33C931.324 354.33 929.344 353.23 927.824 351.03V358.8H925.514ZM933.344 352.26C934.904 352.26 936.204 351.72 937.244 350.64C938.284 349.54 938.804 348.07 938.804 346.23C938.804 344.45 938.274 343.01 937.214 341.91C936.154 340.79 934.864 340.23 933.344 340.23C931.844 340.23 930.534 340.8 929.414 341.94C928.294 343.08 927.734 344.52 927.734 346.26C927.734 348 928.294 349.44 929.414 350.58C930.534 351.7 931.844 352.26 933.344 352.26ZM950.055 354.33C948.475 354.33 947.115 353.9 945.975 353.04C944.835 352.18 944.265 350.98 944.265 349.44C944.265 347.82 944.865 346.57 946.065 345.69C947.265 344.81 948.875 344.37 950.895 344.37C952.495 344.37 954.075 344.59 955.635 345.03V344.55C955.635 343.19 955.235 342.15 954.435 341.43C953.635 340.71 952.505 340.35 951.045 340.35C949.525 340.35 947.955 340.72 946.335 341.46L945.645 339.57C947.565 338.69 949.445 338.25 951.285 338.25C953.485 338.25 955.155 338.82 956.295 339.96C957.375 341.04 957.915 342.56 957.915 344.52V354H955.635V351.69C954.255 353.45 952.395 354.33 950.055 354.33ZM950.505 352.47C951.945 352.47 953.165 352.08 954.165 351.3C955.165 350.52 955.665 349.52 955.665 348.3V346.86C954.145 346.42 952.635 346.2 951.135 346.2C949.715 346.2 948.605 346.49 947.805 347.07C947.005 347.63 946.605 348.4 946.605 349.38C946.605 350.32 946.975 351.07 947.715 351.63C948.475 352.19 949.405 352.47 950.505 352.47ZM970.099 354.36C967.719 354.36 965.809 353.58 964.369 352.02C962.949 350.44 962.239 348.31 962.239 345.63C962.239 344.65 962.259 343.82 962.299 343.14C962.339 342.44 962.419 341.67 962.539 340.83C962.659 339.99 962.849 339.27 963.109 338.67C963.369 338.07 963.699 337.48 964.099 336.9C964.519 336.32 965.059 335.83 965.719 335.43C966.379 335.03 967.149 334.73 968.029 334.53L976.669 332.49L977.119 334.44L968.719 336.51C967.159 336.91 966.039 337.55 965.359 338.43C964.699 339.29 964.309 340.49 964.189 342.03C965.509 339.79 967.649 338.67 970.609 338.67C972.649 338.67 974.399 339.43 975.859 340.95C977.319 342.45 978.049 344.26 978.049 346.38C978.049 348.58 977.289 350.46 975.769 352.02C974.249 353.58 972.359 354.36 970.099 354.36ZM970.159 352.29C971.739 352.29 973.049 351.73 974.089 350.61C975.129 349.47 975.649 348.08 975.649 346.44C975.649 344.82 975.109 343.44 974.029 342.3C972.969 341.16 971.659 340.59 970.099 340.59C968.519 340.59 967.209 341.16 966.169 342.3C965.129 343.42 964.609 344.8 964.609 346.44C964.609 348.06 965.139 349.44 966.199 350.58C967.279 351.72 968.599 352.29 970.159 352.29ZM995.102 351.99C993.542 353.57 991.612 354.36 989.312 354.36C987.012 354.36 985.092 353.57 983.552 351.99C982.032 350.41 981.272 348.5 981.272 346.26C981.272 344.04 982.042 342.14 983.582 340.56C985.142 338.96 987.072 338.16 989.372 338.16C991.672 338.16 993.592 338.95 995.132 340.53C996.672 342.11 997.442 344.02 997.442 346.26C997.442 348.48 996.662 350.39 995.102 351.99ZM989.372 352.29C991.032 352.29 992.392 351.71 993.452 350.55C994.532 349.39 995.072 347.96 995.072 346.26C995.072 344.58 994.512 343.15 993.392 341.97C992.292 340.79 990.932 340.2 989.312 340.2C987.652 340.2 986.292 340.79 985.232 341.97C984.172 343.13 983.642 344.56 983.642 346.26C983.642 347.94 984.192 349.37 985.292 350.55C986.392 351.71 987.752 352.29 989.372 352.29ZM1005.38 354V340.53H999.827V338.49H1013.27V340.53H1007.72V354H1005.38ZM1021.25 354.33C1019.67 354.33 1018.31 353.9 1017.17 353.04C1016.03 352.18 1015.46 350.98 1015.46 349.44C1015.46 347.82 1016.06 346.57 1017.26 345.69C1018.46 344.81 1020.07 344.37 1022.09 344.37C1023.69 344.37 1025.27 344.59 1026.83 345.03V344.55C1026.83 343.19 1026.43 342.15 1025.63 341.43C1024.83 340.71 1023.7 340.35 1022.24 340.35C1020.72 340.35 1019.15 340.72 1017.53 341.46L1016.84 339.57C1018.76 338.69 1020.64 338.25 1022.48 338.25C1024.68 338.25 1026.35 338.82 1027.49 339.96C1028.57 341.04 1029.11 342.56 1029.11 344.52V354H1026.83V351.69C1025.45 353.45 1023.59 354.33 1021.25 354.33ZM1021.7 352.47C1023.14 352.47 1024.36 352.08 1025.36 351.3C1026.36 350.52 1026.86 349.52 1026.86 348.3V346.86C1025.34 346.42 1023.83 346.2 1022.33 346.2C1020.91 346.2 1019.8 346.49 1019 347.07C1018.2 347.63 1017.8 348.4 1017.8 349.38C1017.8 350.32 1018.17 351.07 1018.91 351.63C1019.67 352.19 1020.6 352.47 1021.7 352.47ZM1040.78 354.36C1038.6 354.36 1036.76 353.61 1035.26 352.11C1033.78 350.59 1033.04 348.64 1033.04 346.26C1033.04 344 1033.75 342.09 1035.17 340.53C1036.59 338.95 1038.36 338.16 1040.48 338.16C1042.7 338.16 1044.46 338.94 1045.76 340.5C1047.06 342.06 1047.71 344.02 1047.71 346.38C1047.71 346.68 1047.7 346.95 1047.68 347.19H1035.38C1035.54 348.77 1036.13 350.03 1037.15 350.97C1038.19 351.89 1039.42 352.35 1040.84 352.35C1042.7 352.35 1044.33 351.62 1045.73 350.16L1047.17 351.45C1045.43 353.39 1043.3 354.36 1040.78 354.36ZM1035.38 345.33H1045.37C1045.23 343.83 1044.73 342.59 1043.87 341.61C1043.03 340.61 1041.88 340.11 1040.42 340.11C1039.1 340.11 1037.97 340.6 1037.03 341.58C1036.09 342.56 1035.54 343.81 1035.38 345.33ZM1055.5 354V340.53H1049.95V338.49H1063.39V340.53H1057.84V354H1055.5Z" fill="#F1E0C5"/>
<line x1="200" y1="382" x2="640" y2="382" stroke="#3ADA80" stroke-width="4"/>
<path d="M225.267 449.23C224.507 449.99 223.587 450.37 222.507 450.37C221.427 450.37 220.497 449.99 219.717 449.23C218.957 448.45 218.577 447.51 218.577 446.41C218.577 445.33 218.967 444.41 219.747 443.65C220.527 442.89 221.447 442.51 222.507 442.51C223.567 442.51 224.487 442.9 225.267 443.68C226.047 444.44 226.437 445.37 226.437 446.47C226.437 447.55 226.047 448.47 225.267 449.23ZM247.58 461.8V441.49H249.89V444.61C251.45 442.31 253.43 441.16 255.83 441.16C257.81 441.16 259.54 441.9 261.02 443.38C262.5 444.84 263.24 446.8 263.24 449.26C263.24 451.68 262.5 453.63 261.02 455.11C259.54 456.59 257.81 457.33 255.83 457.33C253.39 457.33 251.41 456.23 249.89 454.03V461.8H247.58ZM255.41 455.26C256.97 455.26 258.27 454.72 259.31 453.64C260.35 452.54 260.87 451.07 260.87 449.23C260.87 447.45 260.34 446.01 259.28 444.91C258.22 443.79 256.93 443.23 255.41 443.23C253.91 443.23 252.6 443.8 251.48 444.94C250.36 446.08 249.8 447.52 249.8 449.26C249.8 451 250.36 452.44 251.48 453.58C252.6 454.7 253.91 455.26 255.41 455.26ZM272.122 457.33C270.542 457.33 269.182 456.9 268.042 456.04C266.902 455.18 266.332 453.98 266.332 452.44C266.332 450.82 266.932 449.57 268.132 448.69C269.332 447.81 270.942 447.37 272.962 447.37C274.562 447.37 276.142 447.59 277.702 448.03V447.55C277.702 446.19 277.302 445.15 276.502 444.43C275.702 443.71 274.572 443.35 273.112 443.35C271.592 443.35 270.022 443.72 268.402 444.46L267.712 442.57C269.632 441.69 271.512 441.25 273.352 441.25C275.552 441.25 277.222 441.82 278.362 442.96C279.442 444.04 279.982 445.56 279.982 447.52V457H277.702V454.69C276.322 456.45 274.462 457.33 272.122 457.33ZM272.572 455.47C274.012 455.47 275.232 455.08 276.232 454.3C277.232 453.52 277.732 452.52 277.732 451.3V449.86C276.212 449.42 274.702 449.2 273.202 449.2C271.782 449.2 270.672 449.49 269.872 450.07C269.072 450.63 268.672 451.4 268.672 452.38C268.672 453.32 269.042 454.07 269.782 454.63C270.542 455.19 271.472 455.47 272.572 455.47ZM289.795 457.36C287.415 457.36 285.275 456.59 283.375 455.05L284.545 453.34C286.125 454.68 287.855 455.35 289.735 455.35C290.795 455.35 291.695 455.11 292.435 454.63C293.195 454.13 293.575 453.45 293.575 452.59C293.575 451.79 293.235 451.17 292.555 450.73C291.875 450.27 290.915 450.04 289.675 450.04H287.605V448.15H289.705C290.725 448.15 291.555 447.91 292.195 447.43C292.835 446.93 293.155 446.28 293.155 445.48C293.155 444.78 292.835 444.22 292.195 443.8C291.575 443.38 290.775 443.17 289.795 443.17C287.955 443.17 286.385 443.69 285.085 444.73L283.945 443.11C285.625 441.81 287.625 441.16 289.945 441.16C291.665 441.16 293.025 441.55 294.025 442.33C295.045 443.09 295.555 444.08 295.555 445.3C295.555 447 294.725 448.19 293.065 448.87C294.985 449.55 295.945 450.82 295.945 452.68C295.945 453.98 295.385 455.09 294.265 456.01C293.145 456.91 291.655 457.36 289.795 457.36ZM300.226 461.8V441.49H302.536V444.61C304.096 442.31 306.076 441.16 308.476 441.16C310.456 441.16 312.186 441.9 313.666 443.38C315.146 444.84 315.886 446.8 315.886 449.26C315.886 451.68 315.146 453.63 313.666 455.11C312.186 456.59 310.456 457.33 308.476 457.33C306.036 457.33 304.056 456.23 302.536 454.03V461.8H300.226ZM308.056 455.26C309.616 455.26 310.916 454.72 311.956 453.64C312.996 452.54 313.516 451.07 313.516 449.23C313.516 447.45 312.986 446.01 311.926 444.91C310.866 443.79 309.576 443.23 308.056 443.23C306.556 443.23 305.246 443.8 304.126 444.94C303.006 446.08 302.446 447.52 302.446 449.26C302.446 451 303.006 452.44 304.126 453.58C305.246 454.7 306.556 455.26 308.056 455.26ZM324.768 457.33C323.188 457.33 321.828 456.9 320.688 456.04C319.548 455.18 318.978 453.98 318.978 452.44C318.978 450.82 319.578 449.57 320.778 448.69C321.978 447.81 323.588 447.37 325.608 447.37C327.208 447.37 328.788 447.59 330.348 448.03V447.55C330.348 446.19 329.948 445.15 329.148 444.43C328.348 443.71 327.218 443.35 325.758 443.35C324.238 443.35 322.668 443.72 321.048 444.46L320.358 442.57C322.278 441.69 324.158 441.25 325.998 441.25C328.198 441.25 329.868 441.82 331.008 442.96C332.088 444.04 332.628 445.56 332.628 447.52V457H330.348V454.69C328.968 456.45 327.108 457.33 324.768 457.33ZM325.218 455.47C326.658 455.47 327.878 455.08 328.878 454.3C329.878 453.52 330.378 452.52 330.378 451.3V449.86C328.858 449.42 327.348 449.2 325.848 449.2C324.428 449.2 323.318 449.49 322.518 450.07C321.718 450.63 321.318 451.4 321.318 452.38C321.318 453.32 321.688 454.07 322.428 454.63C323.188 455.19 324.118 455.47 325.218 455.47ZM344.811 457.36C342.431 457.36 340.521 456.58 339.081 455.02C337.661 453.44 336.951 451.31 336.951 448.63C336.951 447.65 336.971 446.82 337.011 446.14C337.051 445.44 337.131 444.67 337.251 443.83C337.371 442.99 337.561 442.27 337.821 441.67C338.081 441.07 338.411 440.48 338.811 439.9C339.231 439.32 339.771 438.83 340.431 438.43C341.091 438.03 341.861 437.73 342.741 437.53L351.381 435.49L351.831 437.44L343.431 439.51C341.871 439.91 340.751 440.55 340.071 441.43C339.411 442.29 339.021 443.49 338.901 445.03C340.221 442.79 342.361 441.67 345.321 441.67C347.361 441.67 349.111 442.43 350.571 443.95C352.031 445.45 352.761 447.26 352.761 449.38C352.761 451.58 352.001 453.46 350.481 455.02C348.961 456.58 347.071 457.36 344.811 457.36ZM344.871 455.29C346.451 455.29 347.761 454.73 348.801 453.61C349.841 452.47 350.361 451.08 350.361 449.44C350.361 447.82 349.821 446.44 348.741 445.3C347.681 444.16 346.371 443.59 344.811 443.59C343.231 443.59 341.921 444.16 340.881 445.3C339.841 446.42 339.321 447.8 339.321 449.44C339.321 451.06 339.851 452.44 340.911 453.58C341.991 454.72 343.311 455.29 344.871 455.29ZM369.815 454.99C368.255 456.57 366.325 457.36 364.025 457.36C361.725 457.36 359.805 456.57 358.265 454.99C356.745 453.41 355.985 451.5 355.985 449.26C355.985 447.04 356.755 445.14 358.295 443.56C359.855 441.96 361.785 441.16 364.085 441.16C366.385 441.16 368.305 441.95 369.845 443.53C371.385 445.11 372.155 447.02 372.155 449.26C372.155 451.48 371.375 453.39 369.815 454.99ZM364.085 455.29C365.745 455.29 367.105 454.71 368.165 453.55C369.245 452.39 369.785 450.96 369.785 449.26C369.785 447.58 369.225 446.15 368.105 444.97C367.005 443.79 365.645 443.2 364.025 443.2C362.365 443.2 361.005 443.79 359.945 444.97C358.885 446.13 358.355 447.56 358.355 449.26C358.355 450.94 358.905 452.37 360.005 453.55C361.105 454.71 362.465 455.29 364.085 455.29ZM380.09 457V443.53H374.54V441.49H387.98V443.53H382.43V457H380.09ZM391.34 457V441.49H393.65V450.43L402.14 441.49H404.99L398.51 448.21L405.17 457H402.44L396.92 449.89L393.65 453.25V457H391.34ZM412.981 457.33C411.401 457.33 410.041 456.9 408.901 456.04C407.761 455.18 407.191 453.98 407.191 452.44C407.191 450.82 407.791 449.57 408.991 448.69C410.191 447.81 411.801 447.37 413.821 447.37C415.421 447.37 417.001 447.59 418.561 448.03V447.55C418.561 446.19 418.161 445.15 417.361 444.43C416.561 443.71 415.431 443.35 413.971 443.35C412.451 443.35 410.881 443.72 409.261 444.46L408.571 442.57C410.491 441.69 412.371 441.25 414.211 441.25C416.411 441.25 418.081 441.82 419.221 442.96C420.301 444.04 420.841 445.56 420.841 447.52V457H418.561V454.69C417.181 456.45 415.321 457.33 412.981 457.33ZM413.431 455.47C414.871 455.47 416.091 455.08 417.091 454.3C418.091 453.52 418.591 452.52 418.591 451.3V449.86C417.071 449.42 415.561 449.2 414.061 449.2C412.641 449.2 411.531 449.49 410.731 450.07C409.931 450.63 409.531 451.4 409.531 452.38C409.531 453.32 409.901 454.07 410.641 454.63C411.401 455.19 412.331 455.47 413.431 455.47ZM434.728 457V441.49H437.038V450.43L445.528 441.49H448.378L441.898 448.21L448.558 457H445.828L440.308 449.89L437.038 453.25V457H434.728ZM464.62 454.99C463.06 456.57 461.13 457.36 458.83 457.36C456.53 457.36 454.61 456.57 453.07 454.99C451.55 453.41 450.79 451.5 450.79 449.26C450.79 447.04 451.56 445.14 453.1 443.56C454.66 441.96 456.59 441.16 458.89 441.16C461.19 441.16 463.11 441.95 464.65 443.53C466.19 445.11 466.96 447.02 466.96 449.26C466.96 451.48 466.18 453.39 464.62 454.99ZM458.89 455.29C460.55 455.29 461.91 454.71 462.97 453.55C464.05 452.39 464.59 450.96 464.59 449.26C464.59 447.58 464.03 446.15 462.91 444.97C461.81 443.79 460.45 443.2 458.83 443.2C457.17 443.2 455.81 443.79 454.75 444.97C453.69 446.13 453.16 447.56 453.16 449.26C453.16 450.94 453.71 452.37 454.81 453.55C455.91 454.71 457.27 455.29 458.89 455.29ZM471.144 457V441.49H473.454V448.18H482.394V441.49H484.704V457H482.394V450.22H473.454V457H471.144ZM503.245 460.87V457H489.865V441.49H492.175V454.96H500.875V441.49H503.185V454.96H505.525L505.165 460.87H503.245ZM515.483 457.36C513.303 457.36 511.463 456.61 509.963 455.11C508.483 453.59 507.743 451.64 507.743 449.26C507.743 447 508.453 445.09 509.873 443.53C511.293 441.95 513.063 441.16 515.183 441.16C517.403 441.16 519.163 441.94 520.463 443.5C521.763 445.06 522.413 447.02 522.413 449.38C522.413 449.68 522.403 449.95 522.383 450.19H510.083C510.243 451.77 510.833 453.03 511.853 453.97C512.893 454.89 514.123 455.35 515.543 455.35C517.403 455.35 519.033 454.62 520.433 453.16L521.873 454.45C520.133 456.39 518.003 457.36 515.483 457.36ZM510.083 448.33H520.073C519.933 446.83 519.433 445.59 518.573 444.61C517.733 443.61 516.583 443.11 515.123 443.11C513.803 443.11 512.673 443.6 511.733 444.58C510.793 445.56 510.243 446.81 510.083 448.33ZM526.457 457V441.49H539.897V457H537.587V443.53H528.767V457H526.457ZM558.44 460.87V457H545.06V441.49H547.37V454.96H556.07V441.49H558.38V454.96H560.72L560.36 460.87H558.44ZM563.898 457V441.49H566.208V453.76L575.418 441.49H577.668V457H575.358V444.73L566.118 457H563.898ZM582.824 457V441.49H585.134V453.76L594.344 441.49H596.594V457H594.284V444.73L585.044 457H582.824ZM225.267 478.23C224.507 478.99 223.587 479.37 222.507 479.37C221.427 479.37 220.497 478.99 219.717 478.23C218.957 477.45 218.577 476.51 218.577 475.41C218.577 474.33 218.967 473.41 219.747 472.65C220.527 471.89 221.447 471.51 222.507 471.51C223.567 471.51 224.487 471.9 225.267 472.68C226.047 473.44 226.437 474.37 226.437 475.47C226.437 476.55 226.047 477.47 225.267 478.23ZM245.3 489.87V483.96H246.98C248.36 481.42 249.05 477.83 249.05 473.19V470.49H260.09V483.96H262.43L262.07 489.87H260.15V486H247.61L247.19 489.87H245.3ZM249.44 483.96H257.78V472.53H251.27V474.69C251.27 478.59 250.66 481.68 249.44 483.96ZM265.598 486V470.49H267.908V482.76L277.118 470.49H279.368V486H277.058V473.73L267.818 486H265.598ZM289.443 486.36C287.063 486.36 284.923 485.59 283.023 484.05L284.193 482.34C285.773 483.68 287.503 484.35 289.383 484.35C290.443 484.35 291.343 484.11 292.083 483.63C292.843 483.13 293.223 482.45 293.223 481.59C293.223 480.79 292.883 480.17 292.203 479.73C291.523 479.27 290.563 479.04 289.323 479.04H287.253V477.15H289.353C290.373 477.15 291.203 476.91 291.843 476.43C292.483 475.93 292.803 475.28 292.803 474.48C292.803 473.78 292.483 473.22 291.843 472.8C291.223 472.38 290.423 472.17 289.443 472.17C287.603 472.17 286.033 472.69 284.733 473.73L283.593 472.11C285.273 470.81 287.273 470.16 289.593 470.16C291.313 470.16 292.673 470.55 293.673 471.33C294.693 472.09 295.203 473.08 295.203 474.3C295.203 476 294.373 477.19 292.713 477.87C294.633 478.55 295.593 479.82 295.593 481.68C295.593 482.98 295.033 484.09 293.913 485.01C292.793 485.91 291.303 486.36 289.443 486.36ZM304.495 486.33C302.915 486.33 301.555 485.9 300.415 485.04C299.275 484.18 298.705 482.98 298.705 481.44C298.705 479.82 299.305 478.57 300.505 477.69C301.705 476.81 303.315 476.37 305.335 476.37C306.935 476.37 308.515 476.59 310.075 477.03V476.55C310.075 475.19 309.675 474.15 308.875 473.43C308.075 472.71 306.945 472.35 305.485 472.35C303.965 472.35 302.395 472.72 300.775 473.46L300.085 471.57C302.005 470.69 303.885 470.25 305.725 470.25C307.925 470.25 309.595 470.82 310.735 471.96C311.815 473.04 312.355 474.56 312.355 476.52V486H310.075V483.69C308.695 485.45 306.835 486.33 304.495 486.33ZM304.945 484.47C306.385 484.47 307.605 484.08 308.605 483.3C309.605 482.52 310.105 481.52 310.105 480.3V478.86C308.585 478.42 307.075 478.2 305.575 478.2C304.155 478.2 303.045 478.49 302.245 479.07C301.445 479.63 301.045 480.4 301.045 481.38C301.045 482.32 301.415 483.07 302.155 483.63C302.915 484.19 303.845 484.47 304.945 484.47ZM317.248 486V470.49H319.558V482.76L328.768 470.49H331.018V486H328.708V473.73L319.468 486H317.248ZM326.848 467.25C326.088 467.93 325.158 468.27 324.058 468.27C322.958 468.27 322.018 467.93 321.238 467.25C320.478 466.57 320.008 465.69 319.828 464.61L321.418 464.28C321.818 465.68 322.698 466.38 324.058 466.38C325.418 466.38 326.298 465.68 326.698 464.28L328.288 464.61C328.108 465.69 327.628 466.57 326.848 467.25ZM336.174 486V470.49H338.484V477.18H347.424V470.49H349.734V486H347.424V479.22H338.484V486H336.174ZM354.264 478.2V475.77H362.604V478.2H354.264ZM367.141 486V470.49H380.581V486H378.271V472.53H369.451V486H367.141ZM385.744 490.8V470.49H388.054V473.61C389.614 471.31 391.594 470.16 393.994 470.16C395.974 470.16 397.704 470.9 399.184 472.38C400.664 473.84 401.404 475.8 401.404 478.26C401.404 480.68 400.664 482.63 399.184 484.11C397.704 485.59 395.974 486.33 393.994 486.33C391.554 486.33 389.574 485.23 388.054 483.03V490.8H385.744ZM393.574 484.26C395.134 484.26 396.434 483.72 397.474 482.64C398.514 481.54 399.034 480.07 399.034 478.23C399.034 476.45 398.504 475.01 397.444 473.91C396.384 472.79 395.094 472.23 393.574 472.23C392.074 472.23 390.764 472.8 389.644 473.94C388.524 475.08 387.964 476.52 387.964 478.26C387.964 480 388.524 481.44 389.644 482.58C390.764 483.7 392.074 484.26 393.574 484.26ZM418.536 483.99C416.976 485.57 415.046 486.36 412.746 486.36C410.446 486.36 408.526 485.57 406.986 483.99C405.466 482.41 404.706 480.5 404.706 478.26C404.706 476.04 405.476 474.14 407.016 472.56C408.576 470.96 410.506 470.16 412.806 470.16C415.106 470.16 417.026 470.95 418.566 472.53C420.106 474.11 420.876 476.02 420.876 478.26C420.876 480.48 420.096 482.39 418.536 483.99ZM412.806 484.29C414.466 484.29 415.826 483.71 416.886 482.55C417.966 481.39 418.506 479.96 418.506 478.26C418.506 476.58 417.946 475.15 416.826 473.97C415.726 472.79 414.366 472.2 412.746 472.2C411.086 472.2 409.726 472.79 408.666 473.97C407.606 475.13 407.076 476.56 407.076 478.26C407.076 479.94 407.626 481.37 408.726 482.55C409.826 483.71 411.186 484.29 412.806 484.29ZM431.84 486.36C429.66 486.36 427.82 485.61 426.32 484.11C424.84 482.59 424.1 480.64 424.1 478.26C424.1 476 424.81 474.09 426.23 472.53C427.65 470.95 429.42 470.16 431.54 470.16C433.76 470.16 435.52 470.94 436.82 472.5C438.12 474.06 438.77 476.02 438.77 478.38C438.77 478.68 438.76 478.95 438.74 479.19H426.44C426.6 480.77 427.19 482.03 428.21 482.97C429.25 483.89 430.48 484.35 431.9 484.35C433.76 484.35 435.39 483.62 436.79 482.16L438.23 483.45C436.49 485.39 434.36 486.36 431.84 486.36ZM426.44 477.33H436.43C436.29 475.83 435.79 474.59 434.93 473.61C434.09 472.61 432.94 472.11 431.48 472.11C430.16 472.11 429.03 472.6 428.09 473.58C427.15 474.56 426.6 475.81 426.44 477.33ZM442.814 486V470.49H445.124V479.43L453.614 470.49H456.464L449.984 477.21L456.644 486H453.914L448.394 478.89L445.124 482.25V486H442.814ZM463.586 486V472.53H458.036V470.49H471.476V472.53H465.926V486H463.586ZM225.267 507.23C224.507 507.99 223.587 508.37 222.507 508.37C221.427 508.37 220.497 507.99 219.717 507.23C218.957 506.45 218.577 505.51 218.577 504.41C218.577 503.33 218.967 502.41 219.747 501.65C220.527 500.89 221.447 500.51 222.507 500.51C223.567 500.51 224.487 500.9 225.267 501.68C226.047 502.44 226.437 503.37 226.437 504.47C226.437 505.55 226.047 506.47 225.267 507.23ZM247.58 515V499.49H261.02V515H258.71V501.53H249.89V515H247.58ZM279.054 512.99C277.494 514.57 275.564 515.36 273.264 515.36C270.964 515.36 269.044 514.57 267.504 512.99C265.984 511.41 265.224 509.5 265.224 507.26C265.224 505.04 265.994 503.14 267.534 501.56C269.094 499.96 271.024 499.16 273.324 499.16C275.624 499.16 277.544 499.95 279.084 501.53C280.624 503.11 281.394 505.02 281.394 507.26C281.394 509.48 280.614 511.39 279.054 512.99ZM273.324 513.29C274.984 513.29 276.344 512.71 277.404 511.55C278.484 510.39 279.024 508.96 279.024 507.26C279.024 505.58 278.464 504.15 277.344 502.97C276.244 501.79 274.884 501.2 273.264 501.2C271.604 501.2 270.244 501.79 269.184 502.97C268.124 504.13 267.594 505.56 267.594 507.26C267.594 508.94 268.144 510.37 269.244 511.55C270.344 512.71 271.704 513.29 273.324 513.29ZM285.578 515V499.49H287.888V511.76L297.098 499.49H299.348V515H297.038V502.73L287.798 515H285.578ZM311.494 515.36C309.254 515.36 307.364 514.57 305.824 512.99C304.304 511.39 303.544 509.48 303.544 507.26C303.544 505.04 304.304 503.14 305.824 501.56C307.364 499.96 309.254 499.16 311.494 499.16C313.894 499.16 315.964 500.08 317.704 501.92L316.234 503.48C314.794 501.96 313.204 501.2 311.464 501.2C309.904 501.2 308.584 501.79 307.504 502.97C306.444 504.13 305.914 505.56 305.914 507.26C305.914 508.94 306.454 510.37 307.534 511.55C308.634 512.71 309.994 513.29 311.614 513.29C313.274 513.29 314.834 512.51 316.294 510.95L317.824 512.36C316.024 514.36 313.914 515.36 311.494 515.36ZM321.643 515V499.49H323.953V508.43L332.443 499.49H335.293L328.813 506.21L335.473 515H332.743L327.223 507.89L323.953 511.25V515H321.643ZM347.658 515V499.49H361.098V515H358.788V501.53H349.968V515H347.658ZM379.132 512.99C377.572 514.57 375.642 515.36 373.342 515.36C371.042 515.36 369.122 514.57 367.582 512.99C366.062 511.41 365.302 509.5 365.302 507.26C365.302 505.04 366.072 503.14 367.612 501.56C369.172 499.96 371.102 499.16 373.402 499.16C375.702 499.16 377.622 499.95 379.162 501.53C380.702 503.11 381.472 505.02 381.472 507.26C381.472 509.48 380.692 511.39 379.132 512.99ZM373.402 513.29C375.062 513.29 376.422 512.71 377.482 511.55C378.562 510.39 379.102 508.96 379.102 507.26C379.102 505.58 378.542 504.15 377.422 502.97C376.322 501.79 374.962 501.2 373.342 501.2C371.682 501.2 370.322 501.79 369.262 502.97C368.202 504.13 367.672 505.56 367.672 507.26C367.672 508.94 368.222 510.37 369.322 511.55C370.422 512.71 371.782 513.29 373.402 513.29ZM392.646 515.36C390.406 515.36 388.516 514.57 386.976 512.99C385.456 511.39 384.696 509.48 384.696 507.26C384.696 505.04 385.456 503.14 386.976 501.56C388.516 499.96 390.406 499.16 392.646 499.16C395.046 499.16 397.116 500.08 398.856 501.92L397.386 503.48C395.946 501.96 394.356 501.2 392.616 501.2C391.056 501.2 389.736 501.79 388.656 502.97C387.596 504.13 387.066 505.56 387.066 507.26C387.066 508.94 387.606 510.37 388.686 511.55C389.786 512.71 391.146 513.29 392.766 513.29C394.426 513.29 395.986 512.51 397.446 510.95L398.976 512.36C397.176 514.36 395.066 515.36 392.646 515.36ZM406.545 515V501.53H400.995V499.49H414.435V501.53H408.885V515H406.545ZM422.415 515.33C420.835 515.33 419.475 514.9 418.335 514.04C417.195 513.18 416.625 511.98 416.625 510.44C416.625 508.82 417.225 507.57 418.425 506.69C419.625 505.81 421.235 505.37 423.255 505.37C424.855 505.37 426.435 505.59 427.995 506.03V505.55C427.995 504.19 427.595 503.15 426.795 502.43C425.995 501.71 424.865 501.35 423.405 501.35C421.885 501.35 420.315 501.72 418.695 502.46L418.005 500.57C419.925 499.69 421.805 499.25 423.645 499.25C425.845 499.25 427.515 499.82 428.655 500.96C429.735 502.04 430.275 503.56 430.275 505.52V515H427.995V512.69C426.615 514.45 424.755 515.33 422.415 515.33ZM422.865 513.47C424.305 513.47 425.525 513.08 426.525 512.3C427.525 511.52 428.025 510.52 428.025 509.3V507.86C426.505 507.42 424.995 507.2 423.495 507.2C422.075 507.2 420.965 507.49 420.165 508.07C419.365 508.63 418.965 509.4 418.965 510.38C418.965 511.32 419.335 512.07 420.075 512.63C420.835 513.19 421.765 513.47 422.865 513.47ZM435.168 515V499.49H442.668C444.208 499.49 445.438 499.84 446.358 500.54C447.278 501.24 447.738 502.18 447.738 503.36C447.738 505.02 446.878 506.21 445.158 506.93C447.438 507.55 448.578 508.83 448.578 510.77C448.578 512.07 448.068 513.1 447.048 513.86C446.028 514.62 444.658 515 442.938 515H435.168ZM437.478 513.02H442.638C443.738 513.02 444.608 512.79 445.248 512.33C445.888 511.87 446.208 511.23 446.208 510.41C446.208 509.65 445.868 509.06 445.188 508.64C444.528 508.22 443.578 508.01 442.338 508.01H437.478V513.02ZM437.478 506.15H442.248C443.208 506.15 443.968 505.94 444.528 505.52C445.108 505.08 445.398 504.46 445.398 503.66C445.398 503 445.128 502.47 444.588 502.07C444.048 501.67 443.288 501.47 442.308 501.47H437.478V506.15ZM474.886 518.87V515H452.746V499.49H455.056V512.96H462.616V499.49H464.926V512.96H472.486V499.49H474.826V512.96H477.166L476.806 518.87H474.886ZM480.344 515V499.49H482.654V511.76L491.864 499.49H494.114V515H491.804V502.73L482.564 515H480.344ZM499.269 515V499.49H501.579V508.43L510.069 499.49H512.919L506.439 506.21L513.099 515H510.369L504.849 507.89L501.579 511.25V515H499.269ZM529.161 512.99C527.601 514.57 525.671 515.36 523.371 515.36C521.071 515.36 519.151 514.57 517.611 512.99C516.091 511.41 515.331 509.5 515.331 507.26C515.331 505.04 516.101 503.14 517.641 501.56C519.201 499.96 521.131 499.16 523.431 499.16C525.731 499.16 527.651 499.95 529.191 501.53C530.731 503.11 531.501 505.02 531.501 507.26C531.501 509.48 530.721 511.39 529.161 512.99ZM523.431 513.29C525.091 513.29 526.451 512.71 527.511 511.55C528.591 510.39 529.131 508.96 529.131 507.26C529.131 505.58 528.571 504.15 527.451 502.97C526.351 501.79 524.991 501.2 523.371 501.2C521.711 501.2 520.351 501.79 519.291 502.97C518.231 504.13 517.701 505.56 517.701 507.26C517.701 508.94 518.251 510.37 519.351 511.55C520.451 512.71 521.811 513.29 523.431 513.29ZM535.685 515V499.49H543.185C544.725 499.49 545.955 499.84 546.875 500.54C547.795 501.24 548.255 502.18 548.255 503.36C548.255 505.02 547.395 506.21 545.675 506.93C547.955 507.55 549.095 508.83 549.095 510.77C549.095 512.07 548.585 513.1 547.565 513.86C546.545 514.62 545.175 515 543.455 515H535.685ZM537.995 513.02H543.155C544.255 513.02 545.125 512.79 545.765 512.33C546.405 511.87 546.725 511.23 546.725 510.41C546.725 509.65 546.385 509.06 545.705 508.64C545.045 508.22 544.095 508.01 542.855 508.01H537.995V513.02ZM537.995 506.15H542.765C543.725 506.15 544.485 505.94 545.045 505.52C545.625 505.08 545.915 504.46 545.915 503.66C545.915 503 545.645 502.47 545.105 502.07C544.565 501.67 543.805 501.47 542.825 501.47H537.995V506.15ZM562.258 515V499.49H564.568V511.76L573.778 499.49H576.028V515H573.718V502.73L564.478 515H562.258ZM603.048 512.99C601.488 514.57 599.558 515.36 597.258 515.36C594.958 515.36 593.038 514.57 591.498 512.99C589.978 511.41 589.218 509.5 589.218 507.26C589.218 505.04 589.988 503.14 591.528 501.56C593.088 499.96 595.018 499.16 597.318 499.16C599.618 499.16 601.538 499.95 603.078 501.53C604.618 503.11 605.388 505.02 605.388 507.26C605.388 509.48 604.608 511.39 603.048 512.99ZM597.318 513.29C598.978 513.29 600.338 512.71 601.398 511.55C602.478 510.39 603.018 508.96 603.018 507.26C603.018 505.58 602.458 504.15 601.338 502.97C600.238 501.79 598.878 501.2 597.258 501.2C595.598 501.2 594.238 501.79 593.178 502.97C592.118 504.13 591.588 505.56 591.588 507.26C591.588 508.94 592.138 510.37 593.238 511.55C594.338 512.71 595.698 513.29 597.318 513.29ZM616.862 515.36C614.482 515.36 612.572 514.58 611.132 513.02C609.712 511.44 609.002 509.31 609.002 506.63C609.002 505.65 609.022 504.82 609.062 504.14C609.102 503.44 609.182 502.67 609.302 501.83C609.422 500.99 609.612 500.27 609.872 499.67C610.132 499.07 610.462 498.48 610.862 497.9C611.282 497.32 611.822 496.83 612.482 496.43C613.142 496.03 613.912 495.73 614.792 495.53L623.432 493.49L623.882 495.44L615.482 497.51C613.922 497.91 612.802 498.55 612.122 499.43C611.462 500.29 611.072 501.49 610.952 503.03C612.272 500.79 614.412 499.67 617.372 499.67C619.412 499.67 621.162 500.43 622.622 501.95C624.082 503.45 624.812 505.26 624.812 507.38C624.812 509.58 624.052 511.46 622.532 513.02C621.012 514.58 619.122 515.36 616.862 515.36ZM616.922 513.29C618.502 513.29 619.812 512.73 620.852 511.61C621.892 510.47 622.412 509.08 622.412 507.44C622.412 505.82 621.872 504.44 620.792 503.3C619.732 502.16 618.422 501.59 616.862 501.59C615.282 501.59 613.972 502.16 612.932 503.3C611.892 504.42 611.372 505.8 611.372 507.44C611.372 509.06 611.902 510.44 612.962 511.58C614.042 512.72 615.362 513.29 616.922 513.29ZM641.866 512.99C640.306 514.57 638.376 515.36 636.076 515.36C633.776 515.36 631.856 514.57 630.316 512.99C628.796 511.41 628.036 509.5 628.036 507.26C628.036 505.04 628.806 503.14 630.346 501.56C631.906 499.96 633.836 499.16 636.136 499.16C638.436 499.16 640.356 499.95 641.896 501.53C643.436 503.11 644.206 505.02 644.206 507.26C644.206 509.48 643.426 511.39 641.866 512.99ZM636.136 513.29C637.796 513.29 639.156 512.71 640.216 511.55C641.296 510.39 641.836 508.96 641.836 507.26C641.836 505.58 641.276 504.15 640.156 502.97C639.056 501.79 637.696 501.2 636.076 501.2C634.416 501.2 633.056 501.79 631.996 502.97C630.936 504.13 630.406 505.56 630.406 507.26C630.406 508.94 630.956 510.37 632.056 511.55C633.156 512.71 634.516 513.29 636.136 513.29ZM648.391 519.8V499.49H650.701V502.61C652.261 500.31 654.241 499.16 656.641 499.16C658.621 499.16 660.351 499.9 661.831 501.38C663.311 502.84 664.051 504.8 664.051 507.26C664.051 509.68 663.311 511.63 661.831 513.11C660.351 514.59 658.621 515.33 656.641 515.33C654.201 515.33 652.221 514.23 650.701 512.03V519.8H648.391ZM656.221 513.26C657.781 513.26 659.081 512.72 660.121 511.64C661.161 510.54 661.681 509.07 661.681 507.23C661.681 505.45 661.151 504.01 660.091 502.91C659.031 501.79 657.741 501.23 656.221 501.23C654.721 501.23 653.411 501.8 652.291 502.94C651.171 504.08 650.611 505.52 650.611 507.26C650.611 509 651.171 510.44 652.291 511.58C653.411 512.7 654.721 513.26 656.221 513.26ZM670.712 519.89C669.592 519.89 668.492 519.63 667.412 519.11L668.192 517.28C668.932 517.66 669.742 517.85 670.622 517.85C671.322 517.85 671.912 517.63 672.392 517.19C672.872 516.77 673.342 516.02 673.802 514.94L666.752 499.49H669.302L674.942 512.42L679.922 499.49H682.382L675.872 515.51C675.212 517.09 674.482 518.21 673.682 518.87C672.882 519.55 671.892 519.89 670.712 519.89ZM683.757 518.87V512.96H685.437C686.817 510.42 687.507 506.83 687.507 502.19V499.49H698.547V512.96H700.887L700.527 518.87H698.607V515H686.067L685.647 518.87H683.757ZM687.897 512.96H696.237V501.53H689.727V503.69C689.727 507.59 689.117 510.68 687.897 512.96ZM716.925 512.99C715.365 514.57 713.435 515.36 711.135 515.36C708.835 515.36 706.915 514.57 705.375 512.99C703.855 511.41 703.095 509.5 703.095 507.26C703.095 505.04 703.865 503.14 705.405 501.56C706.965 499.96 708.895 499.16 711.195 499.16C713.495 499.16 715.415 499.95 716.955 501.53C718.495 503.11 719.265 505.02 719.265 507.26C719.265 509.48 718.485 511.39 716.925 512.99ZM711.195 513.29C712.855 513.29 714.215 512.71 715.275 511.55C716.355 510.39 716.895 508.96 716.895 507.26C716.895 505.58 716.335 504.15 715.215 502.97C714.115 501.79 712.755 501.2 711.135 501.2C709.475 501.2 708.115 501.79 707.055 502.97C705.995 504.13 705.465 505.56 705.465 507.26C705.465 508.94 706.015 510.37 707.115 511.55C708.215 512.71 709.575 513.29 711.195 513.29ZM723.449 515V499.49H730.949C732.489 499.49 733.719 499.84 734.639 500.54C735.559 501.24 736.019 502.18 736.019 503.36C736.019 505.02 735.159 506.21 733.439 506.93C735.719 507.55 736.859 508.83 736.859 510.77C736.859 512.07 736.349 513.1 735.329 513.86C734.309 514.62 732.939 515 731.219 515H723.449ZM725.759 513.02H730.919C732.019 513.02 732.889 512.79 733.529 512.33C734.169 511.87 734.489 511.23 734.489 510.41C734.489 509.65 734.149 509.06 733.469 508.64C732.809 508.22 731.859 508.01 730.619 508.01H725.759V513.02ZM725.759 506.15H730.529C731.489 506.15 732.249 505.94 732.809 505.52C733.389 505.08 733.679 504.46 733.679 503.66C733.679 503 733.409 502.47 732.869 502.07C732.329 501.67 731.569 501.47 730.589 501.47H725.759V506.15ZM745.647 515.33C744.067 515.33 742.707 514.9 741.567 514.04C740.427 513.18 739.857 511.98 739.857 510.44C739.857 508.82 740.457 507.57 741.657 506.69C742.857 505.81 744.467 505.37 746.487 505.37C748.087 505.37 749.667 505.59 751.227 506.03V505.55C751.227 504.19 750.827 503.15 750.027 502.43C749.227 501.71 748.097 501.35 746.637 501.35C745.117 501.35 743.547 501.72 741.927 502.46L741.237 500.57C743.157 499.69 745.037 499.25 746.877 499.25C749.077 499.25 750.747 499.82 751.887 500.96C752.967 502.04 753.507 503.56 753.507 505.52V515H751.227V512.69C749.847 514.45 747.987 515.33 745.647 515.33ZM746.097 513.47C747.537 513.47 748.757 513.08 749.757 512.3C750.757 511.52 751.257 510.52 751.257 509.3V507.86C749.737 507.42 748.227 507.2 746.727 507.2C745.307 507.2 744.197 507.49 743.397 508.07C742.597 508.63 742.197 509.4 742.197 510.38C742.197 511.32 742.567 512.07 743.307 512.63C744.067 513.19 744.997 513.47 746.097 513.47ZM758.4 515V499.49H760.71V506.18H769.65V499.49H771.96V515H769.65V508.22H760.71V515H758.4ZM777.121 515V499.49H779.431V511.76L788.641 499.49H790.891V515H788.581V502.73L779.341 515H777.121ZM794.667 515L799.407 509C798.187 508.72 797.187 508.17 796.407 507.35C795.647 506.53 795.267 505.52 795.267 504.32C795.267 502.88 795.787 501.72 796.827 500.84C797.867 499.94 799.297 499.49 801.117 499.49H808.407V515H806.097V509.36H801.807C801.627 509.6 801.007 510.42 799.947 511.82C798.887 513.22 798.077 514.28 797.517 515H794.667ZM801.297 507.41H806.097V501.53H801.237C800.097 501.53 799.197 501.79 798.537 502.31C797.897 502.81 797.577 503.51 797.577 504.41C797.577 505.33 797.917 506.06 798.597 506.6C799.297 507.14 800.197 507.41 801.297 507.41ZM225.267 536.23C224.507 536.99 223.587 537.37 222.507 537.37C221.427 537.37 220.497 536.99 219.717 536.23C218.957 535.45 218.577 534.51 218.577 533.41C218.577 532.33 218.967 531.41 219.747 530.65C220.527 529.89 221.447 529.51 222.507 529.51C223.567 529.51 224.487 529.9 225.267 530.68C226.047 531.44 226.437 532.37 226.437 533.47C226.437 534.55 226.047 535.47 225.267 536.23ZM247.58 544V528.49H255.08C256.62 528.49 257.85 528.84 258.77 529.54C259.69 530.24 260.15 531.18 260.15 532.36C260.15 534.02 259.29 535.21 257.57 535.93C259.85 536.55 260.99 537.83 260.99 539.77C260.99 541.07 260.48 542.1 259.46 542.86C258.44 543.62 257.07 544 255.35 544H247.58ZM249.89 542.02H255.05C256.15 542.02 257.02 541.79 257.66 541.33C258.3 540.87 258.62 540.23 258.62 539.41C258.62 538.65 258.28 538.06 257.6 537.64C256.94 537.22 255.99 537.01 254.75 537.01H249.89V542.02ZM249.89 535.15H254.66C255.62 535.15 256.38 534.94 256.94 534.52C257.52 534.08 257.81 533.46 257.81 532.66C257.81 532 257.54 531.47 257 531.07C256.46 530.67 255.7 530.47 254.72 530.47H249.89V535.15ZM265.158 544V528.49H267.468V534.31H271.608C273.408 534.31 274.878 534.7 276.018 535.48C277.158 536.24 277.728 537.4 277.728 538.96C277.728 540.5 277.198 541.73 276.138 542.65C275.078 543.55 273.658 544 271.878 544H265.158ZM267.468 541.96H271.668C272.848 541.96 273.758 541.71 274.398 541.21C275.058 540.71 275.388 539.98 275.388 539.02C275.388 538.14 275.048 537.47 274.368 537.01C273.708 536.53 272.778 536.29 271.578 536.29H267.468V541.96ZM280.518 544V528.49H282.828V544H280.518ZM294.97 544.36C292.73 544.36 290.84 543.57 289.3 541.99C287.78 540.39 287.02 538.48 287.02 536.26C287.02 534.04 287.78 532.14 289.3 530.56C290.84 528.96 292.73 528.16 294.97 528.16C297.37 528.16 299.44 529.08 301.18 530.92L299.71 532.48C298.27 530.96 296.68 530.2 294.94 530.2C293.38 530.2 292.06 530.79 290.98 531.97C289.92 533.13 289.39 534.56 289.39 536.26C289.39 537.94 289.93 539.37 291.01 540.55C292.11 541.71 293.47 542.29 295.09 542.29C296.75 542.29 298.31 541.51 299.77 539.95L301.3 541.36C299.5 543.36 297.39 544.36 294.97 544.36ZM308.869 544V530.53H303.319V528.49H316.759V530.53H311.209V544H308.869ZM320.119 548.8V528.49H322.429V531.61C323.989 529.31 325.969 528.16 328.369 528.16C330.349 528.16 332.079 528.9 333.559 530.38C335.039 531.84 335.779 533.8 335.779 536.26C335.779 538.68 335.039 540.63 333.559 542.11C332.079 543.59 330.349 544.33 328.369 544.33C325.929 544.33 323.949 543.23 322.429 541.03V548.8H320.119ZM327.949 542.26C329.509 542.26 330.809 541.72 331.849 540.64C332.889 539.54 333.409 538.07 333.409 536.23C333.409 534.45 332.879 533.01 331.819 531.91C330.759 530.79 329.469 530.23 327.949 530.23C326.449 530.23 325.139 530.8 324.019 531.94C322.899 533.08 322.339 534.52 322.339 536.26C322.339 538 322.899 539.44 324.019 540.58C325.139 541.7 326.449 542.26 327.949 542.26ZM352.911 541.99C351.351 543.57 349.421 544.36 347.121 544.36C344.821 544.36 342.901 543.57 341.361 541.99C339.841 540.41 339.081 538.5 339.081 536.26C339.081 534.04 339.851 532.14 341.391 530.56C342.951 528.96 344.881 528.16 347.181 528.16C349.481 528.16 351.401 528.95 352.941 530.53C354.481 532.11 355.251 534.02 355.251 536.26C355.251 538.48 354.471 540.39 352.911 541.99ZM347.181 542.29C348.841 542.29 350.201 541.71 351.261 540.55C352.341 539.39 352.881 537.96 352.881 536.26C352.881 534.58 352.321 533.15 351.201 531.97C350.101 530.79 348.741 530.2 347.121 530.2C345.461 530.2 344.101 530.79 343.041 531.97C341.981 533.13 341.451 534.56 341.451 536.26C341.451 537.94 342.001 539.37 343.101 540.55C344.201 541.71 345.561 542.29 347.181 542.29ZM359.435 544V528.49H361.745V540.76L370.955 528.49H373.205V544H370.895V531.73L361.655 544H359.435ZM378.361 544V528.49H380.551L386.341 536.65L392.131 528.49H394.351V544H392.011V532.18L386.281 540.04L380.611 532.18V544H378.361ZM415.798 544.36C413.418 544.36 411.508 543.58 410.068 542.02C408.648 540.44 407.938 538.31 407.938 535.63C407.938 534.65 407.958 533.82 407.998 533.14C408.038 532.44 408.118 531.67 408.238 530.83C408.358 529.99 408.548 529.27 408.808 528.67C409.068 528.07 409.398 527.48 409.798 526.9C410.218 526.32 410.758 525.83 411.418 525.43C412.078 525.03 412.848 524.73 413.728 524.53L422.368 522.49L422.818 524.44L414.418 526.51C412.858 526.91 411.738 527.55 411.058 528.43C410.398 529.29 410.008 530.49 409.888 532.03C411.208 529.79 413.348 528.67 416.308 528.67C418.348 528.67 420.098 529.43 421.558 530.95C423.018 532.45 423.748 534.26 423.748 536.38C423.748 538.58 422.988 540.46 421.468 542.02C419.948 543.58 418.058 544.36 415.798 544.36ZM415.858 542.29C417.438 542.29 418.748 541.73 419.788 540.61C420.828 539.47 421.348 538.08 421.348 536.44C421.348 534.82 420.808 533.44 419.728 532.3C418.668 531.16 417.358 530.59 415.798 530.59C414.218 530.59 412.908 531.16 411.868 532.3C410.828 533.42 410.308 534.8 410.308 536.44C410.308 538.06 410.838 539.44 411.898 540.58C412.978 541.72 414.298 542.29 415.858 542.29ZM427.932 544V528.49H430.242V540.76L439.452 528.49H441.702V544H439.392V531.73L430.152 544H427.932ZM451.777 544.36C449.397 544.36 447.257 543.59 445.357 542.05L446.527 540.34C448.107 541.68 449.837 542.35 451.717 542.35C452.777 542.35 453.677 542.11 454.417 541.63C455.177 541.13 455.557 540.45 455.557 539.59C455.557 538.79 455.217 538.17 454.537 537.73C453.857 537.27 452.897 537.04 451.657 537.04H449.587V535.15H451.687C452.707 535.15 453.537 534.91 454.177 534.43C454.817 533.93 455.137 533.28 455.137 532.48C455.137 531.78 454.817 531.22 454.177 530.8C453.557 530.38 452.757 530.17 451.777 530.17C449.937 530.17 448.367 530.69 447.067 531.73L445.927 530.11C447.607 528.81 449.607 528.16 451.927 528.16C453.647 528.16 455.007 528.55 456.007 529.33C457.027 530.09 457.537 531.08 457.537 532.3C457.537 534 456.707 535.19 455.047 535.87C456.967 536.55 457.927 537.82 457.927 539.68C457.927 540.98 457.367 542.09 456.247 543.01C455.127 543.91 453.637 544.36 451.777 544.36ZM462.209 544V528.49H464.519V535.18H473.459V528.49H475.769V544H473.459V537.22H464.519V544H462.209ZM487.71 544.36C485.53 544.36 483.69 543.61 482.19 542.11C480.71 540.59 479.97 538.64 479.97 536.26C479.97 534 480.68 532.09 482.1 530.53C483.52 528.95 485.29 528.16 487.41 528.16C489.63 528.16 491.39 528.94 492.69 530.5C493.99 532.06 494.64 534.02 494.64 536.38C494.64 536.68 494.63 536.95 494.61 537.19H482.31C482.47 538.77 483.06 540.03 484.08 540.97C485.12 541.89 486.35 542.35 487.77 542.35C489.63 542.35 491.26 541.62 492.66 540.16L494.1 541.45C492.36 543.39 490.23 544.36 487.71 544.36ZM482.31 535.33H492.3C492.16 533.83 491.66 532.59 490.8 531.61C489.96 530.61 488.81 530.11 487.35 530.11C486.03 530.11 484.9 530.6 483.96 531.58C483.02 532.56 482.47 533.81 482.31 535.33ZM505.674 544.36C503.434 544.36 501.544 543.57 500.004 541.99C498.484 540.39 497.724 538.48 497.724 536.26C497.724 534.04 498.484 532.14 500.004 530.56C501.544 528.96 503.434 528.16 505.674 528.16C508.074 528.16 510.144 529.08 511.884 530.92L510.414 532.48C508.974 530.96 507.384 530.2 505.644 530.2C504.084 530.2 502.764 530.79 501.684 531.97C500.624 533.13 500.094 534.56 500.094 536.26C500.094 537.94 500.634 539.37 501.714 540.55C502.814 541.71 504.174 542.29 505.794 542.29C507.454 542.29 509.014 541.51 510.474 539.95L512.004 541.36C510.204 543.36 508.094 544.36 505.674 544.36ZM515.192 536.2V533.77H523.532V536.2H515.192ZM528.068 544V528.49H541.508V544H539.198V530.53H530.378V544H528.068ZM546.672 548.8V528.49H548.982V531.61C550.542 529.31 552.522 528.16 554.922 528.16C556.902 528.16 558.632 528.9 560.112 530.38C561.592 531.84 562.332 533.8 562.332 536.26C562.332 538.68 561.592 540.63 560.112 542.11C558.632 543.59 556.902 544.33 554.922 544.33C552.482 544.33 550.502 543.23 548.982 541.03V548.8H546.672ZM554.502 542.26C556.062 542.26 557.362 541.72 558.402 540.64C559.442 539.54 559.962 538.07 559.962 536.23C559.962 534.45 559.432 533.01 558.372 531.91C557.312 530.79 556.022 530.23 554.502 530.23C553.002 530.23 551.692 530.8 550.572 531.94C549.452 533.08 548.892 534.52 548.892 536.26C548.892 538 549.452 539.44 550.572 540.58C551.692 541.7 553.002 542.26 554.502 542.26ZM579.464 541.99C577.904 543.57 575.974 544.36 573.674 544.36C571.374 544.36 569.454 543.57 567.914 541.99C566.394 540.41 565.634 538.5 565.634 536.26C565.634 534.04 566.404 532.14 567.944 530.56C569.504 528.96 571.434 528.16 573.734 528.16C576.034 528.16 577.954 528.95 579.494 530.53C581.034 532.11 581.804 534.02 581.804 536.26C581.804 538.48 581.024 540.39 579.464 541.99ZM573.734 542.29C575.394 542.29 576.754 541.71 577.814 540.55C578.894 539.39 579.434 537.96 579.434 536.26C579.434 534.58 578.874 533.15 577.754 531.97C576.654 530.79 575.294 530.2 573.674 530.2C572.014 530.2 570.654 530.79 569.594 531.97C568.534 533.13 568.004 534.56 568.004 536.26C568.004 537.94 568.554 539.37 569.654 540.55C570.754 541.71 572.114 542.29 573.734 542.29ZM599.368 547.87V544H585.988V528.49H588.298V541.96H596.998V528.49H599.308V541.96H601.648L601.288 547.87H599.368ZM611.606 544.36C609.426 544.36 607.586 543.61 606.086 542.11C604.606 540.59 603.866 538.64 603.866 536.26C603.866 534 604.576 532.09 605.996 530.53C607.416 528.95 609.186 528.16 611.306 528.16C613.526 528.16 615.286 528.94 616.586 530.5C617.886 532.06 618.536 534.02 618.536 536.38C618.536 536.68 618.526 536.95 618.506 537.19H606.206C606.366 538.77 606.956 540.03 607.976 540.97C609.016 541.89 610.246 542.35 611.666 542.35C613.526 542.35 615.156 541.62 616.556 540.16L617.996 541.45C616.256 543.39 614.126 544.36 611.606 544.36ZM606.206 535.33H616.196C616.056 533.83 615.556 532.59 614.696 531.61C613.856 530.61 612.706 530.11 611.246 530.11C609.926 530.11 608.796 530.6 607.856 531.58C606.916 532.56 606.366 533.81 606.206 535.33ZM629.57 544.36C627.33 544.36 625.44 543.57 623.9 541.99C622.38 540.39 621.62 538.48 621.62 536.26C621.62 534.04 622.38 532.14 623.9 530.56C625.44 528.96 627.33 528.16 629.57 528.16C631.97 528.16 634.04 529.08 635.78 530.92L634.31 532.48C632.87 530.96 631.28 530.2 629.54 530.2C627.98 530.2 626.66 530.79 625.58 531.97C624.52 533.13 623.99 534.56 623.99 536.26C623.99 537.94 624.53 539.37 625.61 540.55C626.71 541.71 628.07 542.29 629.69 542.29C631.35 542.29 632.91 541.51 634.37 539.95L635.9 541.36C634.1 543.36 631.99 544.36 629.57 544.36ZM646.709 544.36C644.469 544.36 642.579 543.57 641.039 541.99C639.519 540.39 638.759 538.48 638.759 536.26C638.759 534.04 639.519 532.14 641.039 530.56C642.579 528.96 644.469 528.16 646.709 528.16C649.109 528.16 651.179 529.08 652.919 530.92L651.449 532.48C650.009 530.96 648.419 530.2 646.679 530.2C645.119 530.2 643.799 530.79 642.719 531.97C641.659 533.13 641.129 534.56 641.129 536.26C641.129 537.94 641.669 539.37 642.749 540.55C643.849 541.71 645.209 542.29 646.829 542.29C648.489 542.29 650.049 541.51 651.509 539.95L653.039 541.36C651.239 543.36 649.129 544.36 646.709 544.36ZM656.857 544V528.49H659.167V534.31H663.307C665.107 534.31 666.577 534.7 667.717 535.48C668.857 536.24 669.427 537.4 669.427 538.96C669.427 540.5 668.897 541.73 667.837 542.65C666.777 543.55 665.357 544 663.577 544H656.857ZM659.167 541.96H663.367C664.547 541.96 665.457 541.71 666.097 541.21C666.757 540.71 667.087 539.98 667.087 539.02C667.087 538.14 666.747 537.47 666.067 537.01C665.407 536.53 664.477 536.29 663.277 536.29H659.167V541.96ZM672.217 544V528.49H674.527V544H672.217ZM225.267 565.23C224.507 565.99 223.587 566.37 222.507 566.37C221.427 566.37 220.497 565.99 219.717 565.23C218.957 564.45 218.577 563.51 218.577 562.41C218.577 561.33 218.967 560.41 219.747 559.65C220.527 558.89 221.447 558.51 222.507 558.51C223.567 558.51 224.487 558.9 225.267 559.68C226.047 560.44 226.437 561.37 226.437 562.47C226.437 563.55 226.047 564.47 225.267 565.23ZM252.5 573.36C250.12 573.36 247.98 572.59 246.08 571.05L247.25 569.34C248.83 570.68 250.56 571.35 252.44 571.35C253.5 571.35 254.4 571.11 255.14 570.63C255.9 570.13 256.28 569.45 256.28 568.59C256.28 567.79 255.94 567.17 255.26 566.73C254.58 566.27 253.62 566.04 252.38 566.04H250.31V564.15H252.41C253.43 564.15 254.26 563.91 254.9 563.43C255.54 562.93 255.86 562.28 255.86 561.48C255.86 560.78 255.54 560.22 254.9 559.8C254.28 559.38 253.48 559.17 252.5 559.17C250.66 559.17 249.09 559.69 247.79 560.73L246.65 559.11C248.33 557.81 250.33 557.16 252.65 557.16C254.37 557.16 255.73 557.55 256.73 558.33C257.75 559.09 258.26 560.08 258.26 561.3C258.26 563 257.43 564.19 255.77 564.87C257.69 565.55 258.65 566.82 258.65 568.68C258.65 569.98 258.09 571.09 256.97 572.01C255.85 572.91 254.36 573.36 252.5 573.36ZM267.552 573.33C265.972 573.33 264.612 572.9 263.472 572.04C262.332 571.18 261.762 569.98 261.762 568.44C261.762 566.82 262.362 565.57 263.562 564.69C264.762 563.81 266.372 563.37 268.392 563.37C269.992 563.37 271.572 563.59 273.132 564.03V563.55C273.132 562.19 272.732 561.15 271.932 560.43C271.132 559.71 270.002 559.35 268.542 559.35C267.022 559.35 265.452 559.72 263.832 560.46L263.142 558.57C265.062 557.69 266.942 557.25 268.782 557.25C270.982 557.25 272.652 557.82 273.792 558.96C274.872 560.04 275.412 561.56 275.412 563.52V573H273.132V570.69C271.752 572.45 269.892 573.33 267.552 573.33ZM268.002 571.47C269.442 571.47 270.662 571.08 271.662 570.3C272.662 569.52 273.162 568.52 273.162 567.3V565.86C271.642 565.42 270.132 565.2 268.632 565.2C267.212 565.2 266.102 565.49 265.302 566.07C264.502 566.63 264.102 567.4 264.102 568.38C264.102 569.32 264.472 570.07 265.212 570.63C265.972 571.19 266.902 571.47 268.002 571.47ZM280.305 573V557.49H293.745V573H291.435V559.53H282.615V573H280.305ZM301.308 577.89C300.188 577.89 299.088 577.63 298.008 577.11L298.788 575.28C299.528 575.66 300.338 575.85 301.218 575.85C301.918 575.85 302.508 575.63 302.988 575.19C303.468 574.77 303.938 574.02 304.398 572.94L297.348 557.49H299.898L305.538 570.42L310.518 557.49H312.978L306.468 573.51C305.808 575.09 305.078 576.21 304.278 576.87C303.478 577.55 302.488 577.89 301.308 577.89ZM323.623 573.36C321.383 573.36 319.493 572.57 317.953 570.99C316.433 569.39 315.673 567.48 315.673 565.26C315.673 563.04 316.433 561.14 317.953 559.56C319.493 557.96 321.383 557.16 323.623 557.16C326.023 557.16 328.093 558.08 329.833 559.92L328.363 561.48C326.923 559.96 325.333 559.2 323.593 559.2C322.033 559.2 320.713 559.79 319.633 560.97C318.573 562.13 318.043 563.56 318.043 565.26C318.043 566.94 318.583 568.37 319.663 569.55C320.763 570.71 322.123 571.29 323.743 571.29C325.403 571.29 326.963 570.51 328.423 568.95L329.953 570.36C328.153 572.36 326.043 573.36 323.623 573.36ZM333.771 573V557.49H336.081V566.43L344.571 557.49H347.421L340.941 564.21L347.601 573H344.871L339.351 565.89L336.081 569.25V573H333.771ZM359.787 573V557.49H373.227V573H370.917V559.53H362.097V573H359.787ZM378.391 577.8V557.49H380.701V560.61C382.261 558.31 384.241 557.16 386.641 557.16C388.621 557.16 390.351 557.9 391.831 559.38C393.311 560.84 394.051 562.8 394.051 565.26C394.051 567.68 393.311 569.63 391.831 571.11C390.351 572.59 388.621 573.33 386.641 573.33C384.201 573.33 382.221 572.23 380.701 570.03V577.8H378.391ZM386.221 571.26C387.781 571.26 389.081 570.72 390.121 569.64C391.161 568.54 391.681 567.07 391.681 565.23C391.681 563.45 391.151 562.01 390.091 560.91C389.031 559.79 387.741 559.23 386.221 559.23C384.721 559.23 383.411 559.8 382.291 560.94C381.171 562.08 380.611 563.52 380.611 565.26C380.611 567 381.171 568.44 382.291 569.58C383.411 570.7 384.721 571.26 386.221 571.26ZM411.182 570.99C409.622 572.57 407.692 573.36 405.392 573.36C403.092 573.36 401.172 572.57 399.632 570.99C398.112 569.41 397.352 567.5 397.352 565.26C397.352 563.04 398.122 561.14 399.662 559.56C401.222 557.96 403.152 557.16 405.452 557.16C407.752 557.16 409.672 557.95 411.212 559.53C412.752 561.11 413.522 563.02 413.522 565.26C413.522 567.48 412.742 569.39 411.182 570.99ZM405.452 571.29C407.112 571.29 408.472 570.71 409.532 569.55C410.612 568.39 411.152 566.96 411.152 565.26C411.152 563.58 410.592 562.15 409.472 560.97C408.372 559.79 407.012 559.2 405.392 559.2C403.732 559.2 402.372 559.79 401.312 560.97C400.252 562.13 399.722 563.56 399.722 565.26C399.722 566.94 400.272 568.37 401.372 569.55C402.472 570.71 403.832 571.29 405.452 571.29ZM424.487 573.36C422.307 573.36 420.467 572.61 418.967 571.11C417.487 569.59 416.747 567.64 416.747 565.26C416.747 563 417.457 561.09 418.877 559.53C420.297 557.95 422.067 557.16 424.187 557.16C426.407 557.16 428.167 557.94 429.467 559.5C430.767 561.06 431.417 563.02 431.417 565.38C431.417 565.68 431.407 565.95 431.387 566.19H419.087C419.247 567.77 419.837 569.03 420.857 569.97C421.897 570.89 423.127 571.35 424.547 571.35C426.407 571.35 428.037 570.62 429.437 569.16L430.877 570.45C429.137 572.39 427.007 573.36 424.487 573.36ZM419.087 564.33H429.077C428.937 562.83 428.437 561.59 427.577 560.61C426.737 559.61 425.587 559.11 424.127 559.11C422.807 559.11 421.677 559.6 420.737 560.58C419.797 561.56 419.247 562.81 419.087 564.33ZM435.461 573V557.49H437.771V566.43L446.261 557.49H449.111L442.631 564.21L449.291 573H446.561L441.041 565.89L437.771 569.25V573H435.461ZM456.232 573V559.53H450.682V557.49H464.122V559.53H458.572V573H456.232ZM472.102 573.33C470.522 573.33 469.162 572.9 468.022 572.04C466.882 571.18 466.312 569.98 466.312 568.44C466.312 566.82 466.912 565.57 468.112 564.69C469.312 563.81 470.922 563.37 472.942 563.37C474.542 563.37 476.122 563.59 477.682 564.03V563.55C477.682 562.19 477.282 561.15 476.482 560.43C475.682 559.71 474.552 559.35 473.092 559.35C471.572 559.35 470.002 559.72 468.382 560.46L467.692 558.57C469.612 557.69 471.492 557.25 473.332 557.25C475.532 557.25 477.202 557.82 478.342 558.96C479.422 560.04 479.962 561.56 479.962 563.52V573H477.682V570.69C476.302 572.45 474.442 573.33 472.102 573.33ZM472.552 571.47C473.992 571.47 475.212 571.08 476.212 570.3C477.212 569.52 477.712 568.52 477.712 567.3V565.86C476.192 565.42 474.682 565.2 473.182 565.2C471.762 565.2 470.652 565.49 469.852 566.07C469.052 566.63 468.652 567.4 468.652 568.38C468.652 569.32 469.022 570.07 469.762 570.63C470.522 571.19 471.452 571.47 472.552 571.47Z" fill="#F1E0C5"/>
<path d="M475.992 219.82C472.164 219.82 468.831 218.935 465.992 217.164C463.154 215.367 460.953 212.88 459.391 209.703C457.828 206.526 457.047 202.854 457.047 198.688V197.047C457.047 193.036 457.802 189.443 459.312 186.266C460.823 183.089 462.997 180.576 465.836 178.727C468.674 176.878 472.06 175.953 475.992 175.953C479.404 175.953 482.385 176.513 484.938 177.633C487.516 178.753 489.677 180.289 491.422 182.242L491.617 192.398H485.602L484.273 185.016C483.388 184.104 482.281 183.375 480.953 182.828C479.625 182.281 478.062 182.008 476.266 182.008C473.974 182.008 471.956 182.685 470.211 184.039C468.492 185.393 467.151 187.203 466.188 189.469C465.224 191.734 464.742 194.26 464.742 197.047V198.688C464.742 201.76 465.185 204.43 466.07 206.695C466.982 208.961 468.271 210.719 469.938 211.969C471.63 213.193 473.635 213.805 475.953 213.805C478.557 213.805 480.719 213.089 482.438 211.656C484.156 210.224 485.211 208.258 485.602 205.758H492.516L492.594 205.992C492.464 208.414 491.747 210.68 490.445 212.789C489.143 214.898 487.281 216.604 484.859 217.906C482.464 219.182 479.508 219.82 475.992 219.82ZM499.508 219V214.078L505.875 212.984V182.789L499.508 181.695V176.734H546.461V181.695L540.094 182.789V212.984L546.461 214.078V219H526.031V214.078L532.398 212.984V182.828H513.57V212.984L519.938 214.078V219H499.508ZM572.398 219.82C568.492 219.82 565.094 218.935 562.203 217.164C559.312 215.367 557.073 212.88 555.484 209.703C553.922 206.526 553.141 202.854 553.141 198.688V196.969C553.141 192.958 553.961 189.378 555.602 186.227C557.268 183.049 559.469 180.549 562.203 178.727C564.964 176.878 567.971 175.953 571.227 175.953C575.029 175.953 578.206 176.734 580.758 178.297C583.336 179.859 585.276 182.06 586.578 184.898C587.88 187.711 588.531 191.031 588.531 194.859V199.664H561.109L560.992 199.859C561.044 202.568 561.513 204.977 562.398 207.086C563.31 209.169 564.612 210.81 566.305 212.008C567.997 213.206 570.029 213.805 572.398 213.805C575.003 213.805 577.281 213.44 579.234 212.711C581.214 211.956 582.919 210.927 584.352 209.625L587.359 214.625C585.849 216.083 583.844 217.32 581.344 218.336C578.87 219.326 575.888 219.82 572.398 219.82ZM561.344 193.648H580.836V192.633C580.836 190.602 580.471 188.792 579.742 187.203C579.039 185.589 577.971 184.326 576.539 183.414C575.133 182.477 573.362 182.008 571.227 182.008C569.508 182.008 567.945 182.516 566.539 183.531C565.133 184.521 563.974 185.875 563.062 187.594C562.151 189.312 561.552 191.266 561.266 193.453L561.344 193.648ZM632.555 231.539V219H594.391V214.078L600.758 212.984V182.789L594.391 181.695V176.734H614.82V181.695L608.453 182.789V212.984H627.281V182.789L620.914 181.695V176.734H641.344V181.695L634.977 182.828V212.984H640.172L639.43 231.539H632.555ZM648.648 219V214.078L655.016 212.984V182.789L648.648 181.695V176.734H662.672H669.039V181.695L662.672 182.789V206.656L662.906 206.734L681.539 176.734H689.234H695.602V181.695L689.234 182.789V212.984L695.602 214.078V219H675.172V214.078L681.539 212.984V189.078L681.305 189L662.672 219H648.648ZM715.953 219.82C711.552 219.82 708.206 218.753 705.914 216.617C703.622 214.456 702.477 211.422 702.477 207.516C702.477 204.833 703.206 202.503 704.664 200.523C706.148 198.518 708.284 196.969 711.07 195.875C713.857 194.755 717.19 194.195 721.07 194.195H728.609V190.055C728.609 187.503 727.828 185.523 726.266 184.117C724.729 182.711 722.555 182.008 719.742 182.008C717.971 182.008 716.435 182.229 715.133 182.672C713.831 183.089 712.646 183.674 711.578 184.43L710.758 190.328H704.82V180.641C706.721 179.104 708.935 177.945 711.461 177.164C713.987 176.357 716.786 175.953 719.859 175.953C724.99 175.953 729.013 177.177 731.93 179.625C734.846 182.073 736.305 185.576 736.305 190.133V210.484C736.305 211.031 736.305 211.565 736.305 212.086C736.331 212.607 736.37 213.128 736.422 213.648L740.523 214.078V219H729.469C729.234 217.854 729.052 216.826 728.922 215.914C728.792 215.003 728.701 214.091 728.648 213.18C727.164 215.081 725.302 216.669 723.062 217.945C720.849 219.195 718.479 219.82 715.953 219.82ZM717.086 213.375C719.638 213.375 721.969 212.763 724.078 211.539C726.188 210.315 727.698 208.844 728.609 207.125V199.469H720.797C717.255 199.469 714.599 200.315 712.828 202.008C711.057 203.701 710.172 205.589 710.172 207.672C710.172 209.521 710.745 210.94 711.891 211.93C713.036 212.893 714.768 213.375 717.086 213.375ZM746.305 219L746.422 212.438L748.023 212.398C749.872 212.398 751.331 211.826 752.398 210.68C753.466 209.508 754.234 207.633 754.703 205.055C755.172 202.451 755.406 199.026 755.406 194.781V182.789L749.039 181.695V176.734H785.133H791.5V181.695L785.133 182.789V212.984L791.5 214.078V219H771.07V214.078L777.438 212.984V182.828H763.102V194.781C763.102 203.115 761.995 209.234 759.781 213.141C757.594 217.047 753.831 219 748.492 219H746.305ZM798.805 219V214.078L805.172 212.984V182.789L798.805 181.695V176.734H812.828H819.195V181.695L812.828 182.789V206.656L813.062 206.734L831.695 176.734H839.391H845.758V181.695L839.391 182.789V212.984L845.758 214.078V219H825.328V214.078L831.695 212.984V189.078L831.461 189L812.828 219H798.805ZM869.625 219.742C866.552 219.742 863.74 219.247 861.188 218.258C858.635 217.268 856.617 215.81 855.133 213.883C853.648 211.93 852.945 209.547 853.023 206.734L853.102 206.5H860.406C860.406 207.828 860.797 209.052 861.578 210.172C862.359 211.266 863.44 212.151 864.82 212.828C866.227 213.505 867.828 213.844 869.625 213.844C872.411 213.844 874.573 213.206 876.109 211.93C877.646 210.628 878.414 209.013 878.414 207.086C878.414 204.82 877.737 203.167 876.383 202.125C875.055 201.083 872.971 200.562 870.133 200.562H862.789V194.312H870.133C872.841 194.312 874.768 193.805 875.914 192.789C877.086 191.747 877.672 190.25 877.672 188.297C877.672 186.526 877.008 185.029 875.68 183.805C874.352 182.581 872.333 181.969 869.625 181.969C868.01 181.969 866.552 182.268 865.25 182.867C863.974 183.44 862.958 184.221 862.203 185.211C861.448 186.201 861.07 187.307 861.07 188.531H853.766L853.688 188.297C853.583 185.875 854.221 183.753 855.602 181.93C857.008 180.081 858.935 178.635 861.383 177.594C863.831 176.552 866.578 176.031 869.625 176.031C874.573 176.031 878.44 177.099 881.227 179.234C884.013 181.344 885.406 184.365 885.406 188.297C885.406 190.198 884.833 191.943 883.688 193.531C882.542 195.12 880.94 196.37 878.883 197.281C883.753 199 886.188 202.268 886.188 207.086C886.188 209.716 885.497 211.982 884.117 213.883C882.737 215.758 880.797 217.203 878.297 218.219C875.823 219.234 872.932 219.742 869.625 219.742ZM907.047 219.82C902.646 219.82 899.299 218.753 897.008 216.617C894.716 214.456 893.57 211.422 893.57 207.516C893.57 204.833 894.299 202.503 895.758 200.523C897.242 198.518 899.378 196.969 902.164 195.875C904.951 194.755 908.284 194.195 912.164 194.195H919.703V190.055C919.703 187.503 918.922 185.523 917.359 184.117C915.823 182.711 913.648 182.008 910.836 182.008C909.065 182.008 907.529 182.229 906.227 182.672C904.924 183.089 903.74 183.674 902.672 184.43L901.852 190.328H895.914V180.641C897.815 179.104 900.029 177.945 902.555 177.164C905.081 176.357 907.88 175.953 910.953 175.953C916.083 175.953 920.107 177.177 923.023 179.625C925.94 182.073 927.398 185.576 927.398 190.133V210.484C927.398 211.031 927.398 211.565 927.398 212.086C927.424 212.607 927.464 213.128 927.516 213.648L931.617 214.078V219H920.562C920.328 217.854 920.146 216.826 920.016 215.914C919.885 215.003 919.794 214.091 919.742 213.18C918.258 215.081 916.396 216.669 914.156 217.945C911.943 219.195 909.573 219.82 907.047 219.82ZM908.18 213.375C910.732 213.375 913.062 212.763 915.172 211.539C917.281 210.315 918.792 208.844 919.703 207.125V199.469H911.891C908.349 199.469 905.693 200.315 903.922 202.008C902.151 203.701 901.266 205.589 901.266 207.672C901.266 209.521 901.839 210.94 902.984 211.93C904.13 212.893 905.862 213.375 908.18 213.375ZM975.602 231.539V219H937.438V214.078L943.805 212.984V182.789L937.438 181.695V176.734H957.867V181.695L951.5 182.789V212.984H970.328V182.789L963.961 181.695V176.734H984.391V181.695L978.023 182.828V212.984H983.219L982.477 231.539H975.602ZM991.695 219V214.078L998.062 212.984V182.789L991.695 181.695V176.734H1005.72H1012.09V181.695L1005.72 182.789V206.656L1005.95 206.734L1024.59 176.734H1032.28H1038.65V181.695L1032.28 182.789V212.984L1038.65 214.078V219H1018.22V214.078L1024.59 212.984V189.078L1024.35 189L1005.72 219H991.695ZM1046.23 219V214.078L1052.59 212.984V182.789L1046.23 181.695V176.734H1060.25H1066.62V181.695L1060.25 182.789V206.656L1060.48 206.734L1079.12 176.734H1086.81H1093.18V181.695L1086.81 182.789V212.984L1093.18 214.078V219H1072.75V214.078L1079.12 212.984V189.078L1078.88 189L1060.25 219H1046.23ZM1102.63 219V211.109H1110.33V219H1102.63ZM1102.63 184.625V176.734H1110.33V184.625H1102.63Z" fill="#3ADA80"/>
<path d="M203.164 219V214.078L209.531 212.984V168.18L203.164 167.086V162.125H223.594V167.086L217.227 168.18V187.828H244.414V168.18L238.047 167.086V162.125H244.414H252.109H258.477V167.086L252.109 168.18V212.984L258.477 214.078V219H238.047V214.078L244.414 212.984V193.883H217.227V212.984L223.594 214.078V219H203.164ZM278.203 219.82C273.802 219.82 270.456 218.753 268.164 216.617C265.872 214.456 264.727 211.422 264.727 207.516C264.727 204.833 265.456 202.503 266.914 200.523C268.398 198.518 270.534 196.969 273.32 195.875C276.107 194.755 279.44 194.195 283.32 194.195H290.859V190.055C290.859 187.503 290.078 185.523 288.516 184.117C286.979 182.711 284.805 182.008 281.992 182.008C280.221 182.008 278.685 182.229 277.383 182.672C276.081 183.089 274.896 183.674 273.828 184.43L273.008 190.328H267.07V180.641C268.971 179.104 271.185 177.945 273.711 177.164C276.237 176.357 279.036 175.953 282.109 175.953C287.24 175.953 291.263 177.177 294.18 179.625C297.096 182.073 298.555 185.576 298.555 190.133V210.484C298.555 211.031 298.555 211.565 298.555 212.086C298.581 212.607 298.62 213.128 298.672 213.648L302.773 214.078V219H291.719C291.484 217.854 291.302 216.826 291.172 215.914C291.042 215.003 290.951 214.091 290.898 213.18C289.414 215.081 287.552 216.669 285.312 217.945C283.099 219.195 280.729 219.82 278.203 219.82ZM279.336 213.375C281.888 213.375 284.219 212.763 286.328 211.539C288.438 210.315 289.948 208.844 290.859 207.125V199.469H283.047C279.505 199.469 276.849 200.315 275.078 202.008C273.307 203.701 272.422 205.589 272.422 207.672C272.422 209.521 272.995 210.94 274.141 211.93C275.286 212.893 277.018 213.375 279.336 213.375ZM309.648 219V214.078L316.016 212.984V182.789L309.648 181.695V176.734H323.711H330.078V181.695L323.711 182.789V212.984H338.555V176.734H346.25V212.984H361.133V182.789L354.766 181.695V176.734H368.828H375.195V181.695L368.828 182.789V212.984L375.195 214.078V219H309.648ZM382.773 219V214.078L389.141 212.984V182.789L382.773 181.695V176.734H396.797H403.164V181.695L396.797 182.789V206.656L397.031 206.734L415.664 176.734H423.359H429.727V181.695L423.359 182.789V212.984L429.727 214.078V219H409.297V214.078L415.664 212.984V189.078L415.43 189L396.797 219H382.773Z" fill="#F1E0C5"/>
</svg>
